<svg width="24" height="24" viewBox="0 0 24 24" fill="none" xmlns="http://www.w3.org/2000/svg">
<g id="NumberCircleTwo">
<path id="Vector" d="M12 2.25C10.0716 2.25 8.18657 2.82183 6.58319 3.89317C4.97982 4.96452 3.73013 6.48726 2.99218 8.26884C2.25422 10.0504 2.06114 12.0108 2.43735 13.9021C2.81355 15.7934 3.74215 17.5307 5.10571 18.8943C6.46928 20.2579 8.20656 21.1865 10.0979 21.5627C11.9892 21.9389 13.9496 21.7458 15.7312 21.0078C17.5127 20.2699 19.0355 19.0202 20.1068 17.4168C21.1782 15.8134 21.75 13.9284 21.75 12C21.7473 9.41498 20.7192 6.93661 18.8913 5.10872C17.0634 3.28084 14.585 2.25273 12 2.25ZM12 20.25C10.3683 20.25 8.77326 19.7661 7.41655 18.8596C6.05984 17.9531 5.00242 16.6646 4.378 15.1571C3.75358 13.6496 3.5902 11.9908 3.90853 10.3905C4.22685 8.79016 5.01259 7.32015 6.16637 6.16637C7.32016 5.01259 8.79017 4.22685 10.3905 3.90852C11.9909 3.59019 13.6497 3.75357 15.1571 4.37799C16.6646 5.00242 17.9531 6.05984 18.8596 7.41655C19.7662 8.77325 20.25 10.3683 20.25 12C20.2475 14.1873 19.3775 16.2843 17.8309 17.8309C16.2843 19.3775 14.1873 20.2475 12 20.25ZM14.3963 11.5556L11.25 15.75H14.25C14.4489 15.75 14.6397 15.829 14.7803 15.9697C14.921 16.1103 15 16.3011 15 16.5C15 16.6989 14.921 16.8897 14.7803 17.0303C14.6397 17.171 14.4489 17.25 14.25 17.25H9.75C9.61072 17.25 9.47419 17.2112 9.35571 17.138C9.23722 17.0648 9.14147 16.96 9.07918 16.8354C9.01689 16.7108 8.99053 16.5714 9.00303 16.4326C9.01554 16.2939 9.06643 16.1614 9.15 16.05L13.1972 10.6537C13.3268 10.4811 13.4176 10.2824 13.4633 10.0714C13.5091 9.8604 13.5088 9.642 13.4624 9.43113C13.416 9.22026 13.3246 9.02189 13.1945 8.84958C13.0644 8.67727 12.8986 8.53508 12.7085 8.43272C12.5184 8.33037 12.3084 8.27026 12.093 8.25651C11.8775 8.24275 11.6616 8.27568 11.46 8.35304C11.2584 8.43039 11.0759 8.55036 10.925 8.70473C10.774 8.8591 10.6581 9.04424 10.5853 9.2475C10.5189 9.4351 10.3807 9.58864 10.2011 9.67435C10.0215 9.76006 9.81526 9.77092 9.62766 9.70453C9.44006 9.63814 9.28652 9.49995 9.20081 9.32036C9.1151 9.14076 9.10424 8.93447 9.17063 8.74688C9.31531 8.33957 9.54629 7.96834 9.84777 7.6586C10.1492 7.34886 10.5141 7.10793 10.9173 6.95229C11.3206 6.79665 11.7527 6.72998 12.1841 6.75685C12.6155 6.78373 13.036 6.9035 13.4168 7.10798C13.7976 7.31246 14.1297 7.59681 14.3904 7.94157C14.6511 8.28633 14.8343 8.68335 14.9273 9.10546C15.0203 9.52757 15.021 9.96479 14.9294 10.3872C14.8377 10.8096 14.6558 11.2072 14.3963 11.5528V11.5556Z" fill="#ADB9D7"/>
</g>
</svg>
