<svg width="24" height="25" viewBox="0 0 24 25" fill="none" xmlns="http://www.w3.org/2000/svg">
<g id="Elevator">
<path id="Vector" d="M19.5 3.5H4.5C4.10218 3.5 3.72064 3.65804 3.43934 3.93934C3.15804 4.22064 3 4.60218 3 5V20C3 20.3978 3.15804 20.7794 3.43934 21.0607C3.72064 21.342 4.10218 21.5 4.5 21.5H19.5C19.8978 21.5 20.2794 21.342 20.5607 21.0607C20.842 20.7794 21 20.3978 21 20V5C21 4.60218 20.842 4.22064 20.5607 3.93934C20.2794 3.65804 19.8978 3.5 19.5 3.5ZM16.5 11V20H12.75V11H16.5ZM11.25 20H7.5V11H11.25V20ZM19.5 20H18V10.25C18 10.0511 17.921 9.86032 17.7803 9.71967C17.6397 9.57902 17.4489 9.5 17.25 9.5H6.75C6.55109 9.5 6.36032 9.57902 6.21967 9.71967C6.07902 9.86032 6 10.0511 6 10.25V20H4.5V5H19.5V20ZM14.25 7.25C14.25 7.44891 14.171 7.63968 14.0303 7.78033C13.8897 7.92098 13.6989 8 13.5 8H10.5C10.3011 8 10.1103 7.92098 9.96967 7.78033C9.82902 7.63968 9.75 7.44891 9.75 7.25C9.75 7.05109 9.82902 6.86032 9.96967 6.71967C10.1103 6.57902 10.3011 6.5 10.5 6.5H13.5C13.6989 6.5 13.8897 6.57902 14.0303 6.71967C14.171 6.86032 14.25 7.05109 14.25 7.25Z" fill="#ADB9D7"/>
</g>
</svg>
