<svg width="24" height="24" viewBox="0 0 24 24" fill="none" xmlns="http://www.w3.org/2000/svg">
<g id="ArrowClockwise">
<path id="Vector" d="M22.5005 5.25062V9.75062C22.5005 9.94953 22.4215 10.1403 22.2808 10.281C22.1402 10.4216 21.9494 10.5006 21.7505 10.5006H17.2505C17.0516 10.5006 16.8608 10.4216 16.7202 10.281C16.5795 10.1403 16.5005 9.94953 16.5005 9.75062C16.5005 9.55171 16.5795 9.36094 16.7202 9.22029C16.8608 9.07964 17.0516 9.00062 17.2505 9.00062H19.8192L17.3264 6.71687L17.303 6.69437C16.2606 5.65233 14.9342 4.94055 13.4896 4.64795C12.045 4.35534 10.5462 4.49489 9.1804 5.04915C7.81463 5.60342 6.64246 6.54782 5.81031 7.7644C4.97817 8.98097 4.52294 10.4158 4.50149 11.8896C4.48005 13.3634 4.89334 14.8108 5.68974 16.0511C6.48615 17.2913 7.63035 18.2694 8.97941 18.8632C10.3285 19.457 11.8226 19.6401 13.2751 19.3896C14.7276 19.1392 16.0741 18.4663 17.1464 17.455C17.291 17.3182 17.484 17.2445 17.6829 17.2501C17.8819 17.2556 18.0705 17.3399 18.2072 17.4845C18.344 17.6291 18.4177 17.8221 18.4121 18.021C18.4066 18.22 18.3223 18.4086 18.1777 18.5453C16.5103 20.1266 14.2985 21.0058 12.0005 21.0006H11.8767C10.4028 20.9804 8.95628 20.5985 7.66446 19.8884C6.37265 19.1782 5.27504 18.1617 4.46811 16.928C3.66118 15.6943 3.16964 14.2813 3.03668 12.8132C2.90373 11.3451 3.13343 9.86677 3.7056 8.50821C4.27777 7.14964 5.17489 5.95242 6.31811 5.02177C7.46133 4.09112 8.81566 3.45553 10.262 3.17087C11.7084 2.8862 13.2026 2.96118 14.6132 3.3892C16.0239 3.81723 17.3077 4.5852 18.3521 5.62562L21.0005 8.04437V5.25062C21.0005 5.05171 21.0795 4.86094 21.2202 4.72029C21.3608 4.57964 21.5516 4.50062 21.7505 4.50062C21.9494 4.50062 22.1402 4.57964 22.2808 4.72029C22.4215 4.86094 22.5005 5.05171 22.5005 5.25062Z" fill="#ADB9D7"/>
</g>
</svg>
