<svg width="24" height="25" viewBox="0 0 24 25" fill="none" xmlns="http://www.w3.org/2000/svg">
<g id="DeviceMobileCamera">
<path id="Vector" d="M16.5 2H7.5C6.90326 2 6.33097 2.23705 5.90901 2.65901C5.48705 3.08097 5.25 3.65326 5.25 4.25V20.75C5.25 21.3467 5.48705 21.919 5.90901 22.341C6.33097 22.7629 6.90326 23 7.5 23H16.5C17.0967 23 17.669 22.7629 18.091 22.341C18.5129 21.919 18.75 21.3467 18.75 20.75V4.25C18.75 3.65326 18.5129 3.08097 18.091 2.65901C17.669 2.23705 17.0967 2 16.5 2ZM17.25 20.75C17.25 20.9489 17.171 21.1397 17.0303 21.2803C16.8897 21.421 16.6989 21.5 16.5 21.5H7.5C7.30109 21.5 7.11032 21.421 6.96967 21.2803C6.82902 21.1397 6.75 20.9489 6.75 20.75V4.25C6.75 4.05109 6.82902 3.86032 6.96967 3.71967C7.11032 3.57902 7.30109 3.5 7.5 3.5H16.5C16.6989 3.5 16.8897 3.57902 17.0303 3.71967C17.171 3.86032 17.25 4.05109 17.25 4.25V20.75ZM13.125 6.125C13.125 6.3475 13.059 6.56501 12.9354 6.75002C12.8118 6.93502 12.6361 7.07922 12.4305 7.16436C12.225 7.24951 11.9988 7.27179 11.7805 7.22838C11.5623 7.18498 11.3618 7.07783 11.2045 6.9205C11.0472 6.76316 10.94 6.56271 10.8966 6.34448C10.8532 6.12625 10.8755 5.90005 10.9606 5.69448C11.0458 5.48891 11.19 5.31321 11.375 5.1896C11.56 5.06598 11.7775 5 12 5C12.2984 5 12.5845 5.11853 12.7955 5.3295C13.0065 5.54048 13.125 5.82663 13.125 6.125Z" fill="#ADB9D7"/>
</g>
</svg>
