<svg width="24" height="25" viewBox="0 0 24 25" fill="none" xmlns="http://www.w3.org/2000/svg">
<g id="Warehouse">
<path id="Vector" d="M22.5 17.7501H21.75V5.92824L22.6566 5.73324C22.755 5.71479 22.8487 5.67682 22.9321 5.62159C23.0156 5.56635 23.0872 5.49496 23.1427 5.41162C23.1981 5.32828 23.2364 5.23468 23.2551 5.13634C23.2738 5.03799 23.2726 4.9369 23.2517 4.83901C23.2307 4.74112 23.1904 4.64842 23.133 4.56638C23.0756 4.48433 23.0024 4.4146 22.9177 4.36128C22.833 4.30797 22.7384 4.27217 22.6396 4.25597C22.5408 4.23978 22.4398 4.24352 22.3425 4.26699L1.3425 8.76699C1.16159 8.80603 1.00149 8.91058 0.89302 9.06054C0.784545 9.2105 0.735349 9.39527 0.754894 9.57932C0.774438 9.76336 0.861343 9.93368 0.998893 10.0575C1.13644 10.1813 1.31492 10.2499 1.5 10.2501C1.55326 10.25 1.60636 10.2444 1.65844 10.2332L2.25 10.1067V17.7501H1.5C1.30109 17.7501 1.11032 17.8291 0.96967 17.9698C0.829018 18.1104 0.75 18.3012 0.75 18.5001C0.75 18.699 0.829018 18.8898 0.96967 19.0304C1.11032 19.1711 1.30109 19.2501 1.5 19.2501H22.5C22.6989 19.2501 22.8897 19.1711 23.0303 19.0304C23.171 18.8898 23.25 18.699 23.25 18.5001C23.25 18.3012 23.171 18.1104 23.0303 17.9698C22.8897 17.8291 22.6989 17.7501 22.5 17.7501ZM3.75 9.78137L20.25 6.2498V17.7501H18V12.5001C18 12.3012 17.921 12.1104 17.7803 11.9698C17.6397 11.8291 17.4489 11.7501 17.25 11.7501H6.75C6.55109 11.7501 6.36032 11.8291 6.21967 11.9698C6.07902 12.1104 6 12.3012 6 12.5001V17.7501H3.75V9.78137ZM16.5 14.7501H7.5V13.2501H16.5V14.7501ZM7.5 16.2501H16.5V17.7501H7.5V16.2501Z" fill="#ADB9D7"/>
</g>
</svg>
