<svg width="24" height="25" viewBox="0 0 24 25" fill="none" xmlns="http://www.w3.org/2000/svg">
<g id="User">
<path id="Vector" d="M21.6494 20.3746C20.2216 17.9062 18.0212 16.1362 15.4534 15.2971C16.7236 14.541 17.7104 13.3888 18.2624 12.0176C18.8143 10.6463 18.9009 9.13175 18.5088 7.70652C18.1167 6.28129 17.2676 5.02418 16.0918 4.12824C14.9161 3.2323 13.4788 2.74707 12.0006 2.74707C10.5224 2.74707 9.08512 3.2323 7.90939 4.12824C6.73367 5.02418 5.88455 6.28129 5.49244 7.70652C5.10033 9.13175 5.1869 10.6463 5.73886 12.0176C6.29082 13.3888 7.27765 14.541 8.54781 15.2971C5.98 16.1352 3.77968 17.9052 2.35187 20.3746C2.29951 20.46 2.26478 20.555 2.24973 20.654C2.23468 20.753 2.23961 20.8541 2.26424 20.9511C2.28886 21.0482 2.33268 21.1394 2.39311 21.2192C2.45354 21.2991 2.52936 21.3661 2.61608 21.4162C2.70281 21.4663 2.79869 21.4985 2.89806 21.5109C2.99744 21.5234 3.09831 21.5158 3.1947 21.4886C3.2911 21.4614 3.38108 21.4152 3.45933 21.3527C3.53758 21.2902 3.60251 21.2126 3.65031 21.1246C5.41656 18.0721 8.53843 16.2496 12.0006 16.2496C15.4628 16.2496 18.5847 18.0721 20.3509 21.1246C20.3987 21.2126 20.4637 21.2902 20.5419 21.3527C20.6202 21.4152 20.7101 21.4614 20.8065 21.4886C20.9029 21.5158 21.0038 21.5234 21.1032 21.5109C21.2026 21.4985 21.2984 21.4663 21.3852 21.4162C21.4719 21.3661 21.5477 21.2991 21.6081 21.2192C21.6686 21.1394 21.7124 21.0482 21.737 20.9511C21.7616 20.8541 21.7666 20.753 21.7515 20.654C21.7365 20.555 21.7017 20.46 21.6494 20.3746ZM6.75062 9.49962C6.75062 8.46127 7.05853 7.44624 7.6354 6.58288C8.21228 5.71952 9.03222 5.04661 9.99153 4.64925C10.9508 4.25189 12.0064 4.14793 13.0248 4.3505C14.0432 4.55307 14.9787 5.05308 15.7129 5.78731C16.4472 6.52154 16.9472 7.457 17.1497 8.4754C17.3523 9.4938 17.2483 10.5494 16.851 11.5087C16.4536 12.468 15.7807 13.288 14.9174 13.8648C14.054 14.4417 13.039 14.7496 12.0006 14.7496C10.6087 14.7481 9.2742 14.1945 8.28995 13.2103C7.30571 12.226 6.75211 10.8916 6.75062 9.49962Z" fill="#ADB9D7"/>
</g>
</svg>
