<svg width="23" height="17" viewBox="0 0 23 17" fill="none" xmlns="http://www.w3.org/2000/svg">
<path id="Vector" d="M12.5001 11.7823C13.6758 11.0501 14.581 9.95479 15.0788 8.66223C15.5766 7.36966 15.6399 5.95013 15.2591 4.61839C14.8783 3.28666 14.0741 2.11518 12.9682 1.2812C11.8623 0.447211 10.5149 -0.00390625 9.12978 -0.00390625C7.74467 -0.00390625 6.39724 0.447211 5.29135 1.2812C4.18545 2.11518 3.38126 3.28666 3.00045 4.61839C2.61964 5.95013 2.68292 7.36966 3.18072 8.66223C3.67852 9.95479 4.58375 11.0501 5.75947 11.7823C3.82353 12.4161 2.08165 13.6002 0.68103 15.267C0.615405 15.3421 0.565399 15.4294 0.533937 15.524C0.502474 15.6186 0.490186 15.7186 0.497791 15.818C0.505396 15.9174 0.532741 16.0142 0.578227 16.103C0.623714 16.1917 0.686429 16.2704 0.762706 16.3346C0.838983 16.3988 0.927291 16.4471 1.02247 16.4768C1.11764 16.5064 1.21778 16.5168 1.31702 16.5073C1.41625 16.4978 1.5126 16.4687 1.60043 16.4215C1.68826 16.3743 1.7658 16.3101 1.82853 16.2327C3.71103 13.9864 6.30415 12.7498 9.12509 12.7498C11.946 12.7498 14.5392 13.9864 16.4254 16.2327C16.5535 16.3851 16.7368 16.4804 16.9351 16.4976C17.1334 16.5148 17.3305 16.4526 17.4829 16.3245C17.6353 16.1965 17.7306 16.0131 17.7479 15.8148C17.7651 15.6165 17.7028 15.4194 17.5748 15.267C16.1732 13.6002 14.4313 12.4161 12.5001 11.7823ZM4.25009 6.37484C4.25009 5.41066 4.53601 4.46813 5.07168 3.66644C5.60735 2.86475 6.36872 2.23991 7.25951 1.87093C8.1503 1.50195 9.1305 1.40541 10.0762 1.59351C11.0218 1.78162 11.8905 2.24592 12.5722 2.9277C13.254 3.60948 13.7183 4.47812 13.9064 5.42378C14.0945 6.36944 13.998 7.34964 13.629 8.24043C13.26 9.13122 12.6352 9.89259 11.8335 10.4283C11.0318 10.9639 10.0893 11.2498 9.12509 11.2498C7.83262 11.2484 6.59351 10.7343 5.67959 9.82035C4.76567 8.90643 4.25158 7.66732 4.25009 6.37484ZM21.8985 10.4127L21.4617 10.1605C21.5129 9.88912 21.5129 9.61057 21.4617 9.33922L21.8985 9.08703C22.0708 8.98757 22.1966 8.82374 22.2481 8.63158C22.2996 8.43941 22.2727 8.23465 22.1732 8.06234C22.0738 7.89004 21.9099 7.76429 21.7178 7.71278C21.5256 7.66127 21.3208 7.6882 21.1485 7.78766L20.7107 8.04078C20.5012 7.86102 20.2603 7.7215 20.0001 7.62922V7.12484C20.0001 6.92593 19.9211 6.73517 19.7804 6.59451C19.6398 6.45386 19.449 6.37484 19.2501 6.37484C19.0512 6.37484 18.8604 6.45386 18.7198 6.59451C18.5791 6.73517 18.5001 6.92593 18.5001 7.12484V7.62922C18.2399 7.7215 17.999 7.86102 17.7895 8.04078L17.3517 7.78766C17.2663 7.73841 17.1722 7.70645 17.0745 7.6936C16.9768 7.68076 16.8776 7.68727 16.7824 7.71278C16.6873 7.73829 16.5981 7.78229 16.5199 7.84226C16.4418 7.90224 16.3762 7.97703 16.327 8.06234C16.2777 8.14766 16.2458 8.24184 16.2329 8.33951C16.2201 8.43718 16.2266 8.53643 16.2521 8.63158C16.2776 8.72673 16.3216 8.81592 16.3816 8.89407C16.4416 8.97222 16.5163 9.03778 16.6017 9.08703L17.0385 9.33922C16.9873 9.61057 16.9873 9.88912 17.0385 10.1605L16.6017 10.4127C16.4293 10.5121 16.3036 10.6759 16.2521 10.8681C16.2006 11.0603 16.2275 11.265 16.327 11.4373C16.4264 11.6097 16.5903 11.7354 16.7824 11.7869C16.9746 11.8384 17.1793 11.8115 17.3517 11.712L17.7895 11.4589C17.999 11.6387 18.2399 11.7782 18.5001 11.8705V12.3748C18.5001 12.5738 18.5791 12.7645 18.7198 12.9052C18.8604 13.0458 19.0512 13.1248 19.2501 13.1248C19.449 13.1248 19.6398 13.0458 19.7804 12.9052C19.9211 12.7645 20.0001 12.5738 20.0001 12.3748V11.8705C20.2603 11.7782 20.5012 11.6387 20.7107 11.4589L21.1485 11.712C21.2624 11.7781 21.3918 11.8128 21.5235 11.8123C21.6887 11.8124 21.8492 11.758 21.9803 11.6574C22.1113 11.5569 22.2055 11.416 22.2483 11.2564C22.291 11.0969 22.2799 10.9277 22.2167 10.7752C22.1534 10.6226 22.0416 10.4952 21.8985 10.4127ZM18.5001 9.74984C18.5001 9.60151 18.5441 9.4565 18.6265 9.33317C18.7089 9.20983 18.826 9.1137 18.9631 9.05693C19.1001 9.00017 19.2509 8.98532 19.3964 9.01425C19.5419 9.04319 19.6755 9.11462 19.7804 9.21951C19.8853 9.3244 19.9567 9.45804 19.9857 9.60353C20.0146 9.74901 19.9998 9.89981 19.943 10.0369C19.8862 10.1739 19.7901 10.291 19.6668 10.3734C19.5434 10.4559 19.3984 10.4998 19.2501 10.4998C19.0512 10.4998 18.8604 10.4208 18.7198 10.2802C18.5791 10.1395 18.5001 9.94876 18.5001 9.74984Z" fill="#717D8C"/>
</svg>
