<svg width="72" height="72" viewBox="0 0 72 72" fill="none" xmlns="http://www.w3.org/2000/svg">
<g id="UserCircleMinus">
<path id="Vector" d="M47.249 15.75C47.249 15.1533 47.486 14.581 47.908 14.159C48.3299 13.7371 48.9022 13.5 49.499 13.5H62.999C63.5957 13.5 64.168 13.7371 64.59 14.159C65.0119 14.581 65.249 15.1533 65.249 15.75C65.249 16.3468 65.0119 16.9191 64.59 17.341C64.168 17.763 63.5957 18 62.999 18H49.499C48.9022 18 48.3299 17.763 47.908 17.341C47.486 16.9191 47.249 16.3468 47.249 15.75ZM64.844 31.1288C65.8719 37.2391 64.9313 43.518 62.1581 49.0589C59.3849 54.5999 54.9225 59.1161 49.4152 61.9555C43.9079 64.795 37.6407 65.8107 31.5185 64.8561C25.3963 63.9014 19.7359 61.0259 15.3545 56.6445C10.9732 52.2631 8.09756 46.6027 7.14294 40.4805C6.18832 34.3583 7.20405 28.0911 10.0435 22.5838C12.8829 17.0765 17.3991 12.6141 22.9401 9.8409C28.481 7.06766 34.7599 6.12711 40.8702 7.15503C41.4543 7.25832 41.9739 7.58805 42.3162 8.0725C42.6584 8.55695 42.7954 9.15693 42.6976 9.74192C42.5997 10.3269 42.2748 10.8496 41.7935 11.1963C41.3123 11.543 40.7136 11.6856 40.1277 11.5932C36.5787 10.9961 32.9423 11.1796 29.4714 12.1309C26.0005 13.0822 22.7786 14.7784 20.0299 17.1014C17.2813 19.4245 15.0718 22.3186 13.5553 25.5824C12.0389 28.8461 11.2518 32.4012 11.249 36C11.2436 42.0587 13.4704 47.907 17.504 52.4278C20.0134 48.7915 23.5419 45.9783 27.6459 44.3419C25.4414 42.6056 23.8327 40.2255 23.0437 37.5326C22.2546 34.8396 22.3243 31.9677 23.2431 29.3163C24.1619 26.6648 25.8841 24.3655 28.1703 22.7382C30.4564 21.1109 33.1928 20.2365 35.999 20.2365C38.8051 20.2365 41.5415 21.1109 43.8277 22.7382C46.1138 24.3655 47.836 26.6648 48.7548 29.3163C49.6736 31.9677 49.7433 34.8396 48.9543 37.5326C48.1652 40.2255 46.5566 42.6056 44.3521 44.3419C48.4561 45.9783 51.9846 48.7915 54.494 52.4278C58.5275 47.907 60.7543 42.0587 60.749 36C60.7491 34.6167 60.6343 33.2357 60.4058 31.8713C60.3541 31.5786 60.3608 31.2786 60.4257 30.9885C60.4906 30.6984 60.6122 30.4241 60.7837 30.1813C60.9552 29.9385 61.1731 29.7322 61.4248 29.5741C61.6765 29.416 61.9571 29.3093 62.2502 29.2603C62.5434 29.2113 62.8433 29.2208 63.1328 29.2883C63.4222 29.3559 63.6954 29.4801 63.9366 29.6538C64.1778 29.8276 64.3821 30.0474 64.5379 30.3005C64.6936 30.5537 64.7976 30.8352 64.844 31.1288ZM35.999 42.75C37.779 42.75 39.5191 42.2222 40.9991 41.2333C42.4791 40.2443 43.6327 38.8387 44.3139 37.1942C44.9951 35.5496 45.1733 33.74 44.826 31.9942C44.4788 30.2484 43.6216 28.6447 42.3629 27.3861C41.1043 26.1274 39.5006 25.2702 37.7548 24.923C36.009 24.5757 34.1994 24.7539 32.5548 25.4351C30.9103 26.1163 29.5047 27.2699 28.5158 28.7499C27.5268 30.2299 26.999 31.97 26.999 33.75C26.999 36.137 27.9472 38.4262 29.635 40.114C31.3228 41.8018 33.612 42.75 35.999 42.75ZM35.999 60.75C41.4928 60.7556 46.8308 58.9241 51.164 55.5469C49.5363 53.0013 47.294 50.9063 44.6437 49.4552C41.9934 48.0041 39.0205 47.2434 35.999 47.2434C32.9774 47.2434 30.0045 48.0041 27.3543 49.4552C24.704 50.9063 22.4617 53.0013 20.834 55.5469C25.1672 58.9241 30.5051 60.7556 35.999 60.75Z" fill="#1E3F5F"/>
</g>
</svg>
