<svg width="246" height="78" viewBox="0 0 246 78" fill="none" xmlns="http://www.w3.org/2000/svg">
<g id="Clip path group">
<mask id="mask0_3126_72593" style="mask-type:luminance" maskUnits="userSpaceOnUse" x="0" y="-9" width="252" height="97">
<g id="clip0_2563_785">
<path id="Vector" d="M251.655 -8.48276H0V87.0655H251.655V-8.48276Z" fill="white"/>
</g>
</mask>
<g mask="url(#mask0_3126_72593)">
<g id="Group">
<path id="Vector_2" d="M46.2271 30.3032H54.8259V46.881C52.6182 48.5528 50.0626 49.8358 47.155 50.7378C44.2552 51.6281 41.3322 52.0752 38.3861 52.0752C34.1678 52.0752 30.3749 51.1732 27.0035 49.3692C23.6397 47.5575 21.0028 45.046 19.0851 41.8424C17.1674 38.631 16.2085 34.9958 16.2085 30.9408C16.2085 26.8974 17.1674 23.27 19.0851 20.0547C21.0028 16.8434 23.6629 14.3318 27.0653 12.5279C30.4754 10.7161 34.3109 9.8063 38.5717 9.8063C42.1288 9.8063 45.3533 10.4128 48.2531 11.6258C51.1606 12.8311 53.6042 14.5768 55.5838 16.8667L49.5367 22.4808C46.6369 19.4016 43.1378 17.862 39.0356 17.862C36.4374 17.862 34.133 18.4063 32.1225 19.4949C30.112 20.5835 28.5423 22.1231 27.421 24.1137C26.2959 26.0965 25.7352 28.3709 25.7352 30.9408C25.7352 33.4718 26.2959 35.7306 27.421 37.7212C28.5423 39.704 30.1004 41.2475 32.0916 42.3555C34.0789 43.4675 36.3523 44.0196 38.9119 44.0196C41.6223 44.0196 44.0619 43.4364 46.2271 42.2622V30.3032Z" fill="white"/>
<path id="Vector_3" d="M89.1892 51.3754L81.3478 39.9917H72.7026V51.3754H63.2996V10.5061H80.8839C84.4798 10.5061 87.6036 11.1126 90.256 12.3256C92.9047 13.5309 94.9461 15.2416 96.3803 17.4576C97.8108 19.6776 98.5302 22.3058 98.5302 25.3422C98.5302 28.3826 97.8034 30.9991 96.3492 33.1957C94.9031 35.3963 92.8468 37.0758 90.1788 38.2344L99.2881 51.3754H89.1892ZM89.0185 25.3422C89.0185 23.0406 88.2806 21.2794 86.807 20.0547C85.3305 18.834 83.1807 18.2197 80.3583 18.2197H72.7026V32.4648H80.3583C83.1807 32.4648 85.3305 31.8428 86.807 30.5986C88.2806 29.3467 89.0185 27.5933 89.0185 25.3422Z" fill="white"/>
<path id="Vector_4" d="M132.489 42.6199H113.621L110.017 51.3754H100.382L118.492 10.5061H127.787L145.959 51.3754H136.092L132.489 42.6199ZM129.534 35.4352L123.085 19.7903L116.636 35.4352H129.534Z" fill="white"/>
<path id="Vector_5" d="M159.37 18.0952V28.9035H178.176V36.4926H159.37V51.3754H149.967V10.5061H180.666V18.0952H159.37Z" fill="white"/>
<path id="Vector_6" d="M195.242 18.2197H182.236V10.5061H217.652V18.2197H204.646V51.3754H195.242V18.2197Z" fill="white"/>
<path id="Vector_7" d="M225.255 51.8419C223.666 51.8419 222.332 51.2976 221.249 50.209C220.167 49.1203 219.626 47.7596 219.626 46.1189C219.626 44.451 220.167 43.1019 221.249 42.0755C222.332 41.0413 223.666 40.5204 225.255 40.5204C226.84 40.5204 228.178 41.0413 229.261 42.0755C230.343 43.1019 230.884 44.451 230.884 46.1189C230.884 47.7596 230.343 49.1203 229.261 50.209C228.178 51.2976 226.84 51.8419 225.255 51.8419Z" fill="white"/>
<path id="Vector_8" d="M29.6692 61.789H32.7932C33.5433 61.789 34.2083 61.9367 34.7883 62.2244C35.3644 62.516 35.809 62.9203 36.1183 63.4374C36.4354 63.9584 36.5977 64.5649 36.5977 65.2569C36.5977 65.9529 36.4354 66.5636 36.1183 67.0921C35.809 67.6132 35.3644 68.017 34.7883 68.3051C34.2083 68.5851 33.5433 68.7247 32.7932 68.7247H29.6692V61.789ZM32.7159 67.4034C33.4041 67.4034 33.957 67.2123 34.3707 66.8279C34.7805 66.4464 34.9894 65.9217 34.9894 65.2569C34.9894 64.596 34.7805 64.0712 34.3707 63.6862C33.957 63.3052 33.4041 63.1108 32.7159 63.1108H31.2621V67.4034H32.7159Z" fill="white"/>
<path id="Vector_9" d="M41.1433 68.8493C40.4202 68.8493 39.7707 68.6941 39.1946 68.3828C38.6263 68.0715 38.1777 67.6483 37.8491 67.1078C37.5282 66.5592 37.3696 65.9412 37.3696 65.2569C37.3696 64.5726 37.5282 63.9622 37.8491 63.4218C38.1777 62.8736 38.6263 62.4421 39.1946 62.131C39.7707 61.82 40.4202 61.6645 41.1433 61.6645C41.8547 61.6645 42.4926 61.82 43.061 62.131C43.6371 62.4421 44.0894 62.8736 44.4219 63.4218C44.7506 63.9622 44.9168 64.5726 44.9168 65.2569C44.9168 65.9412 44.7506 66.5592 44.4219 67.1078C44.0894 67.6483 43.6371 68.0715 43.061 68.3828C42.4926 68.6941 41.8547 68.8493 41.1433 68.8493ZM41.1433 67.481C41.5453 67.481 41.9088 67.3877 42.2413 67.2011C42.57 67.0063 42.829 66.742 43.0146 66.4076C43.2002 66.0656 43.293 65.6845 43.293 65.2569C43.293 64.8331 43.2002 64.456 43.0146 64.1216C42.829 63.7795 42.57 63.5151 42.2413 63.3285C41.9088 63.1341 41.5453 63.0331 41.1433 63.0331C40.7296 63.0331 40.3584 63.1341 40.0297 63.3285C39.7088 63.5151 39.4498 63.7795 39.2564 64.1216C39.0709 64.456 38.9781 64.8331 38.9781 65.2569C38.9781 65.6845 39.0709 66.0656 39.2564 66.4076C39.4498 66.742 39.7088 67.0063 40.0297 67.2011C40.3584 67.3877 40.7296 67.481 41.1433 67.481Z" fill="white"/>
<path id="Vector_10" d="M52.4406 61.789V68.7247H51.1261L47.6927 64.5105V68.7247H46.1152V61.789H47.4298L50.8631 66.0034V61.789H52.4406Z" fill="white"/>
<path id="Vector_11" d="M54.5513 61.2912C54.8297 61.2912 55.054 61.3807 55.2319 61.5556C55.4059 61.7345 55.4948 61.96 55.4948 62.2399C55.4948 62.3759 55.4793 62.512 55.4484 62.6442C55.4174 62.7803 55.3478 62.9786 55.2473 63.2352L54.6751 64.666H53.7008L54.1183 63.0952C53.9521 63.0252 53.8245 62.9164 53.7317 62.7687C53.6389 62.6248 53.5925 62.4498 53.5925 62.2399C53.5925 61.96 53.6775 61.7345 53.8554 61.5556C54.041 61.3807 54.273 61.2912 54.5513 61.2912Z" fill="white"/>
<path id="Vector_12" d="M58.0751 63.0953H55.8789V61.789H61.8796V63.0953H59.668V68.7247H58.0751V63.0953Z" fill="white"/>
<path id="Vector_13" d="M70.5824 65.117C70.9844 65.2414 71.2938 65.4552 71.5103 65.7546C71.7346 66.0462 71.8505 66.4039 71.8505 66.8279C71.8505 67.4422 71.6108 67.9125 71.1391 68.2432C70.6752 68.5657 69.9869 68.7247 69.0822 68.7247H65.5251V61.789H68.8966C69.7317 61.789 70.3736 61.9561 70.8298 62.2866C71.2822 62.6093 71.5103 63.0448 71.5103 63.5929C71.5103 63.9351 71.4252 64.2383 71.2628 64.4949C71.0966 64.7554 70.8685 64.9615 70.5824 65.117ZM67.1026 63.002V64.6349H68.6956C69.0861 64.6349 69.3838 64.5688 69.5925 64.4327C69.7975 64.2888 69.9019 64.0828 69.9019 63.8107C69.9019 63.5424 69.7975 63.3402 69.5925 63.2041C69.3838 63.0719 69.0861 63.002 68.6956 63.002H67.1026ZM68.9739 67.5117C69.3954 67.5117 69.7086 67.446 69.9173 67.3101C70.1338 67.1772 70.2421 66.9637 70.2421 66.6719C70.2421 66.0928 69.8168 65.8013 68.9739 65.8013H67.1026V67.5117H68.9739Z" fill="white"/>
<path id="Vector_14" d="M78.3933 67.434V68.7247H73.0574V61.789H78.2693V63.0797H74.6348V64.5883H77.8365V65.8323H74.6348V67.434H78.3933Z" fill="white"/>
<path id="Vector_15" d="M82.4524 61.789H85.5769C86.3267 61.789 86.9918 61.9367 87.5716 62.2244C88.1477 62.516 88.5923 62.9203 88.9019 63.4374C89.2189 63.9584 89.3814 64.5649 89.3814 65.2569C89.3814 65.9529 89.2189 66.5636 88.9019 67.0921C88.5923 67.6132 88.1477 68.017 87.5716 68.3051C86.9918 68.5851 86.3267 68.7247 85.5769 68.7247H82.4524V61.789ZM85.499 67.4034C86.1879 67.4034 86.7402 67.2123 87.1544 66.8279C87.5642 66.4464 87.7728 65.9217 87.7728 65.2569C87.7728 64.596 87.5642 64.0712 87.1544 63.6862C86.7402 63.3052 86.1879 63.1108 85.499 63.1108H84.0455V67.4034H85.499Z" fill="white"/>
<path id="Vector_16" d="M95.1338 67.2317H91.932L91.3137 68.7247H89.6746L92.7523 61.789H94.3298L97.4068 68.7247H95.7365L95.1338 67.2317ZM94.623 66.0189L93.5251 63.3596L92.4428 66.0189H94.623Z" fill="white"/>
<path id="Vector_17" d="M99.723 63.0797V64.9148H102.909V66.2053H99.723V68.7247H98.1299V61.789H103.342V63.0797H99.723Z" fill="white"/>
<path id="Vector_18" d="M105.846 63.0953H103.65V61.789H109.651V63.0953H107.439V68.7247H105.846V63.0953Z" fill="white"/>
<path id="Vector_19" d="M110.988 66.8898C111.267 66.8898 111.491 66.9794 111.669 67.1541C111.843 67.3213 111.932 67.5505 111.932 67.8386C111.932 67.9625 111.916 68.0954 111.886 68.2275C111.854 68.3634 111.781 68.5619 111.669 68.818L111.112 70.249H110.138L110.571 68.6784C110.405 68.6082 110.27 68.4992 110.169 68.3514C110.076 68.2081 110.03 68.0364 110.03 67.8386C110.03 67.5505 110.114 67.3213 110.293 67.1541C110.478 66.9794 110.71 66.8898 110.988 66.8898Z" fill="white"/>
<path id="Vector_20" d="M120.53 65.148H121.984V67.9625C121.613 68.2424 121.18 68.4604 120.685 68.6157C120.198 68.7717 119.702 68.8493 119.2 68.8493C118.489 68.8493 117.843 68.6941 117.267 68.3828C116.698 68.0715 116.25 67.6483 115.922 67.1078C115.6 66.5592 115.442 65.9412 115.442 65.2569C115.442 64.5726 115.6 63.9622 115.922 63.4218C116.25 62.8736 116.703 62.4421 117.282 62.131C117.858 61.82 118.508 61.6645 119.231 61.6645C119.838 61.6645 120.383 61.7694 120.87 61.9755C121.365 62.1854 121.783 62.4848 122.123 62.8775L121.087 63.8262C120.6 63.2974 120.008 63.0331 119.308 63.0331C118.875 63.0331 118.481 63.1264 118.133 63.313C117.792 63.4996 117.522 63.7639 117.328 64.1061C117.143 64.4404 117.05 64.8214 117.05 65.2569C117.05 65.6845 117.143 66.0656 117.328 66.4076C117.522 66.742 117.792 67.0063 118.133 67.2011C118.473 67.3877 118.86 67.481 119.293 67.481C119.746 67.481 120.159 67.3833 120.53 67.1854V65.148Z" fill="white"/>
<path id="Vector_21" d="M128.804 67.434V68.7247H123.469V61.789H128.681V63.0797H125.046V64.5883H128.248V65.8323H125.046V67.434H128.804Z" fill="white"/>
<path id="Vector_22" d="M131.499 63.0953H129.303V61.789H135.304V63.0953H133.092V68.7247H131.499V63.0953Z" fill="white"/>
<path id="Vector_23" d="M142.289 68.8493C141.566 68.8493 140.917 68.6941 140.341 68.3828C139.773 68.0715 139.324 67.6483 138.995 67.1078C138.674 66.5592 138.516 65.9412 138.516 65.2569C138.516 64.5726 138.674 63.9622 138.995 63.4218C139.324 62.8736 139.773 62.4421 140.341 62.131C140.917 61.82 141.566 61.6645 142.289 61.6645C143 61.6645 143.639 61.82 144.207 62.131C144.783 62.4421 145.236 62.8736 145.568 63.4218C145.897 63.9622 146.063 64.5726 146.063 65.2569C146.063 65.9412 145.897 66.5592 145.568 67.1078C145.236 67.6483 144.783 68.0715 144.207 68.3828C143.639 68.6941 143 68.8493 142.289 68.8493ZM142.289 67.481C142.692 67.481 143.055 67.3877 143.387 67.2011C143.716 67.0063 143.975 66.742 144.161 66.4076C144.346 66.0656 144.439 65.6845 144.439 65.2569C144.439 64.8331 144.346 64.456 144.161 64.1216C143.975 63.7795 143.716 63.5151 143.387 63.3285C143.055 63.1341 142.692 63.0331 142.289 63.0331C141.876 63.0331 141.505 63.1341 141.176 63.3285C140.855 63.5151 140.596 63.7795 140.402 64.1216C140.217 64.456 140.124 64.8331 140.124 65.2569C140.124 65.6845 140.217 66.0656 140.402 66.4076C140.596 66.742 140.855 67.0063 141.176 67.2011C141.505 67.3877 141.876 67.481 142.289 67.481Z" fill="white"/>
<path id="Vector_24" d="M153.586 61.789V68.7247H152.271L148.837 64.5105V68.7247H147.26V61.789H148.575L152.008 66.0034V61.789H153.586Z" fill="white"/>
<path id="Vector_25" d="M159.427 63.0953H157.231V61.789H163.231V63.0953H161.02V68.7247H159.427V63.0953Z" fill="white"/>
<path id="Vector_26" d="M170.416 61.789V68.7247H168.823V65.879H165.683V68.7247H164.09V61.789H165.683V64.526H168.823V61.789H170.416Z" fill="white"/>
<path id="Vector_27" d="M177.383 67.434V68.7247H172.048V61.789H177.26V63.0797H173.625V64.5883H176.826V65.8323H173.625V67.434H177.383Z" fill="white"/>
<path id="Vector_28" d="M186.096 65.148H187.55V67.9625C187.179 68.2424 186.745 68.4604 186.251 68.6157C185.763 68.7717 185.269 68.8493 184.766 68.8493C184.054 68.8493 183.408 68.6941 182.832 68.3828C182.264 68.0715 181.816 67.6483 181.487 67.1078C181.166 66.5592 181.008 65.9412 181.008 65.2569C181.008 64.5726 181.166 63.9622 181.487 63.4218C181.816 62.8736 182.268 62.4421 182.848 62.131C183.424 61.82 184.073 61.6645 184.797 61.6645C185.404 61.6645 185.949 61.7694 186.436 61.9755C186.931 62.1854 187.349 62.4848 187.689 62.8775L186.652 63.8262C186.165 63.2974 185.574 63.0331 184.874 63.0331C184.441 63.0331 184.047 63.1264 183.699 63.313C183.359 63.4996 183.088 63.7639 182.895 64.1061C182.709 64.4404 182.616 64.8214 182.616 65.2569C182.616 65.6845 182.709 66.0656 182.895 66.4076C183.088 66.742 183.359 67.0063 183.699 67.2011C184.039 67.3877 184.425 67.481 184.859 67.481C185.311 67.481 185.724 67.3833 186.096 67.1854V65.148Z" fill="white"/>
<path id="Vector_29" d="M193.426 68.7247L192.097 66.7965H190.627V68.7247H189.035V61.789H192.019C192.626 61.789 193.152 61.8939 193.596 62.1C194.049 62.3099 194.401 62.5976 194.648 62.9709C194.895 63.3441 195.019 63.7912 195.019 64.3083C195.019 64.8293 194.895 65.2725 194.648 65.6457C194.401 66.0189 194.049 66.3068 193.596 66.5009L195.143 68.7247H193.426ZM193.396 64.3083C193.396 63.9156 193.272 63.6163 193.025 63.4063C192.777 63.2003 192.409 63.0953 191.926 63.0953H190.627V65.5213H191.926C192.409 65.5213 192.777 65.4203 193.025 65.2103C193.272 64.9925 193.396 64.6932 193.396 64.3083Z" fill="white"/>
<path id="Vector_30" d="M200.818 67.2317H197.617L196.998 68.7247H195.359L198.436 61.789H200.014L203.092 68.7247H201.421L200.818 67.2317ZM200.308 66.0189L199.21 63.3596L198.127 66.0189H200.308Z" fill="white"/>
<path id="Vector_31" d="M205.408 63.0797V64.9148H208.593V66.2053H205.408V68.7247H203.815V61.789H209.027V63.0797H205.408Z" fill="white"/>
<path id="Vector_32" d="M211.531 63.0953H209.334V61.789H215.335V63.0953H213.123V68.7247H211.531V63.0953Z" fill="white"/>
<path id="Vector_33" d="M216.657 68.8023C216.386 68.8023 216.162 68.709 215.977 68.5224C215.799 68.3358 215.714 68.1103 215.714 67.8386C215.714 67.5505 215.799 67.3213 215.977 67.1541C216.162 66.9794 216.386 66.8898 216.657 66.8898C216.936 66.8898 217.16 66.9794 217.337 67.1541C217.523 67.3213 217.616 67.5505 217.616 67.8386C217.616 68.1103 217.523 68.3358 217.337 68.5224C217.16 68.709 216.936 68.8023 216.657 68.8023Z" fill="white"/>
</g>
</g>
</g>
</svg>
