<svg width="269" height="85" viewBox="0 0 269 85" fill="none" xmlns="http://www.w3.org/2000/svg">
<path d="M50.5319 33.1249H59.9315V51.2466C57.5182 53.0741 54.7246 54.4765 51.5462 55.4625C48.3764 56.4358 45.1812 56.9245 41.9607 56.9245C37.3496 56.9245 33.2034 55.9385 29.518 53.9665C25.841 51.986 22.9585 49.2406 20.8622 45.7387C18.766 42.2282 17.7178 38.2545 17.7178 33.8219C17.7178 29.402 18.766 25.4368 20.8622 21.9221C22.9585 18.4116 25.8664 15.6662 29.5856 13.6942C33.3133 11.7138 37.506 10.7192 42.1635 10.7192C46.0519 10.7192 49.5767 11.3822 52.7466 12.7082C55.9248 14.0257 58.596 15.934 60.7599 18.4372L54.1497 24.574C50.9799 21.2081 47.1549 19.5251 42.6707 19.5251C39.8305 19.5251 37.3115 20.1201 35.1138 21.3101C32.9161 22.5 31.2002 24.183 29.9745 26.359C28.7445 28.5264 28.1317 31.0127 28.1317 33.8219C28.1317 36.5886 28.7445 39.0578 29.9745 41.2338C31.2002 43.4012 32.9034 45.0884 35.08 46.2997C37.2524 47.5152 39.7375 48.1187 42.5354 48.1187C45.4982 48.1187 48.1651 47.4811 50.5319 46.1977V33.1249Z" fill="white"/>
<path d="M97.495 56.1596L88.9234 43.7158H79.4731V56.1596H69.1943V11.4844H88.4162C92.347 11.4844 95.7617 12.1474 98.6611 13.4733C101.556 14.7908 103.788 16.6608 105.356 19.0833C106.92 21.51 107.706 24.3829 107.706 27.7021C107.706 31.0256 106.911 33.8858 105.322 36.287C103.741 38.6925 101.493 40.5284 98.5767 41.7949L108.534 56.1596H97.495ZM97.3084 27.7021C97.3084 25.1862 96.5018 23.2609 94.891 21.9222C93.277 20.5878 90.9269 19.9163 87.8417 19.9163H79.4731V35.488H87.8417C90.9269 35.488 93.277 34.808 94.891 33.448C96.5018 32.0795 97.3084 30.1629 97.3084 27.7021Z" fill="white"/>
<path d="M144.827 46.5888H124.202L120.263 56.1596H109.73L129.526 11.4844H139.687L159.551 56.1596H148.766L144.827 46.5888ZM141.597 38.735L134.548 21.6332L127.498 38.735H141.597Z" fill="white"/>
<path d="M174.211 19.7803V31.5951H194.769V39.8909H174.211V56.1596H163.933V11.4844H197.491V19.7803H174.211Z" fill="white"/>
<path d="M213.424 19.9163H199.207V11.4844H237.921V19.9163H223.703V56.1596H213.424V19.9163Z" fill="white"/>
<path d="M246.232 56.6698C244.495 56.6698 243.037 56.0748 241.854 54.8848C240.671 53.6948 240.079 52.2073 240.079 50.4138C240.079 48.5906 240.671 47.1159 241.854 45.9939C243.037 44.8634 244.495 44.2939 246.232 44.2939C247.965 44.2939 249.427 44.8634 250.611 45.9939C251.794 47.1159 252.386 48.5906 252.386 50.4138C252.386 52.2073 251.794 53.6948 250.611 54.8848C249.427 56.0748 247.965 56.6698 246.232 56.6698Z" fill="white"/>
<path d="M32.4323 67.5435H35.8472C36.6671 67.5435 37.3941 67.7049 38.028 68.0194C38.6578 68.3381 39.1438 68.7802 39.482 69.3454C39.8285 69.9149 40.006 70.5779 40.006 71.3344C40.006 72.0951 39.8285 72.7627 39.482 73.3405C39.1438 73.91 38.6578 74.3515 38.028 74.6664C37.3941 74.9724 36.6671 75.125 35.8472 75.125H32.4323V67.5435ZM35.7627 73.6807C36.515 73.6807 37.1193 73.4718 37.5716 73.0516C38.0196 72.6346 38.2479 72.0611 38.2479 71.3344C38.2479 70.6119 38.0196 70.0382 37.5716 69.6174C37.1193 69.2009 36.515 68.9884 35.7627 68.9884H34.1735V73.6807H35.7627Z" fill="white"/>
<path d="M44.9747 75.2607C44.1843 75.2607 43.4742 75.091 42.8445 74.7507C42.2233 74.4104 41.733 73.9478 41.3737 73.357C41.0229 72.7572 40.8496 72.0817 40.8496 71.3337C40.8496 70.5857 41.0229 69.9184 41.3737 69.3277C41.733 68.7285 42.2233 68.2568 42.8445 67.9167C43.4742 67.5768 44.1843 67.4067 44.9747 67.4067C45.7523 67.4067 46.4497 67.5768 47.071 67.9167C47.7008 68.2568 48.1952 68.7285 48.5586 69.3277C48.918 69.9184 49.0997 70.5857 49.0997 71.3337C49.0997 72.0817 48.918 72.7572 48.5586 73.357C48.1952 73.9478 47.7008 74.4104 47.071 74.7507C46.4497 75.091 45.7523 75.2607 44.9747 75.2607ZM44.9747 73.765C45.4142 73.765 45.8115 73.663 46.1749 73.459C46.5343 73.246 46.8174 72.9572 47.0202 72.5916C47.2231 72.2177 47.3245 71.8012 47.3245 71.3337C47.3245 70.8704 47.2231 70.4582 47.0202 70.0927C46.8174 69.7188 46.5343 69.4297 46.1749 69.2257C45.8115 69.0133 45.4142 68.9028 44.9747 68.9028C44.5224 68.9028 44.1167 69.0133 43.7575 69.2257C43.4067 69.4297 43.1234 69.7188 42.9121 70.0927C42.7093 70.4582 42.6078 70.8704 42.6078 71.3337C42.6078 71.8012 42.7093 72.2177 42.9121 72.5916C43.1234 72.9572 43.4067 73.246 43.7575 73.459C44.1167 73.663 44.5224 73.765 44.9747 73.765Z" fill="white"/>
<path d="M57.3243 67.5435V75.125H55.8874L52.1343 70.5184V75.125H50.4099V67.5435H51.8469L55.6 72.1504V67.5435H57.3243Z" fill="white"/>
<path d="M59.6315 66.9995C59.9358 66.9995 60.1809 67.0973 60.3754 67.2885C60.5656 67.484 60.6628 67.7306 60.6628 68.0365C60.6628 68.1852 60.6458 68.334 60.6121 68.4785C60.5782 68.6272 60.5021 68.844 60.3922 69.1245L59.7668 70.6885H58.7017L59.1581 68.9715C58.9764 68.895 58.837 68.776 58.7355 68.6145C58.6341 68.4573 58.5834 68.266 58.5834 68.0365C58.5834 67.7306 58.6763 67.484 58.8707 67.2885C59.0736 67.0973 59.3272 66.9995 59.6315 66.9995Z" fill="white"/>
<path d="M63.4834 68.9714H61.0828V67.5435H67.6423V68.9714H65.2247V75.125H63.4834V68.9714Z" fill="white"/>
<path d="M77.1554 71.1814C77.5949 71.3174 77.933 71.5511 78.1697 71.8784C78.4149 72.1971 78.5416 72.5881 78.5416 73.0516C78.5416 73.7232 78.2796 74.2372 77.764 74.5987C77.2568 74.9512 76.5045 75.125 75.5155 75.125H71.6272V67.5435H75.3126C76.2255 67.5435 76.9271 67.7262 77.4259 68.0874C77.9204 68.4401 78.1697 68.9162 78.1697 69.5154C78.1697 69.8894 78.0767 70.2209 77.8992 70.5014C77.7175 70.7861 77.4681 71.0114 77.1554 71.1814ZM73.3516 68.8694V70.6544H75.0929C75.5198 70.6544 75.8452 70.5821 76.0734 70.4334C76.2974 70.2761 76.4115 70.0509 76.4115 69.7534C76.4115 69.4601 76.2974 69.2392 76.0734 69.0904C75.8452 68.9459 75.5198 68.8694 75.0929 68.8694H73.3516ZM75.3972 73.7991C75.8578 73.7991 76.2002 73.7272 76.4284 73.5787C76.6651 73.4335 76.7834 73.2001 76.7834 72.8811C76.7834 72.2481 76.3185 71.9294 75.3972 71.9294H73.3516V73.7991H75.3972Z" fill="white"/>
<path d="M85.6937 73.7142V75.125H79.8608V67.5435H85.5581V68.9544H81.5851V70.6034H85.085V71.9633H81.5851V73.7142H85.6937Z" fill="white"/>
<path d="M90.1309 67.5435H93.5464C94.366 67.5435 95.093 67.7049 95.7268 68.0194C96.3565 68.3381 96.8426 68.7802 97.181 69.3454C97.5275 69.9149 97.7052 70.5779 97.7052 71.3344C97.7052 72.0951 97.5275 72.7627 97.181 73.3405C96.8426 73.91 96.3565 74.3515 95.7268 74.6664C95.093 74.9724 94.366 75.125 93.5464 75.125H90.1309V67.5435ZM93.4612 73.6807C94.2142 73.6807 94.818 73.4718 95.2708 73.0516C95.7187 72.6346 95.9467 72.0611 95.9467 71.3344C95.9467 70.6119 95.7187 70.0382 95.2708 69.6174C94.818 69.2009 94.2142 68.9884 93.4612 68.9884H91.8723V73.6807H93.4612Z" fill="white"/>
<path d="M103.993 73.4931H100.493L99.8175 75.125H98.0258L101.39 67.5435H103.115L106.478 75.125H104.652L103.993 73.4931ZM103.435 72.1673L102.235 69.2604L101.052 72.1673H103.435Z" fill="white"/>
<path d="M109.01 68.9544V70.9604H112.493V72.3711H109.01V75.125H107.268V67.5435H112.966V68.9544H109.01Z" fill="white"/>
<path d="M115.703 68.9714H113.303V67.5435H119.862V68.9714H117.444V75.125H115.703V68.9714Z" fill="white"/>
<path d="M121.324 73.1191C121.628 73.1191 121.873 73.2171 122.068 73.408C122.258 73.5908 122.355 73.8413 122.355 74.1563C122.355 74.2917 122.338 74.437 122.305 74.5814C122.271 74.7299 122.191 74.947 122.068 75.2268L121.46 76.7911H120.395L120.868 75.0742C120.686 74.9975 120.538 74.8784 120.428 74.7168C120.327 74.5602 120.276 74.3725 120.276 74.1563C120.276 73.8413 120.369 73.5908 120.564 73.408C120.767 73.2171 121.02 73.1191 121.324 73.1191Z" fill="white"/>
<path d="M131.755 71.2147H133.344V74.2913C132.938 74.5973 132.465 74.8356 131.924 75.0053C131.391 75.1758 130.85 75.2607 130.301 75.2607C129.523 75.2607 128.817 75.091 128.188 74.7507C127.566 74.4104 127.076 73.9478 126.717 73.357C126.366 72.7572 126.193 72.0817 126.193 71.3337C126.193 70.5857 126.366 69.9184 126.717 69.3277C127.076 68.7285 127.571 68.2568 128.205 67.9167C128.834 67.5768 129.544 67.4067 130.335 67.4067C130.999 67.4067 131.594 67.5215 132.127 67.7468C132.668 67.9762 133.124 68.3035 133.496 68.7327L132.363 69.7698C131.831 69.1917 131.184 68.9028 130.419 68.9028C129.946 68.9028 129.515 69.0048 129.135 69.2088C128.762 69.4128 128.467 69.7017 128.255 70.0757C128.052 70.4412 127.951 70.8577 127.951 71.3337C127.951 71.8012 128.052 72.2177 128.255 72.5916C128.467 72.9572 128.762 73.246 129.135 73.459C129.506 73.663 129.929 73.765 130.402 73.765C130.897 73.765 131.349 73.6581 131.755 73.4419V71.2147Z" fill="white"/>
<path d="M140.799 73.7142V75.125H134.967V67.5435H140.664V68.9544H136.691V70.6034H140.191V71.9633H136.691V73.7142H140.799Z" fill="white"/>
<path d="M143.745 68.9714H141.345V67.5435H147.904V68.9714H145.486V75.125H143.745V68.9714Z" fill="white"/>
<path d="M155.54 75.2607C154.75 75.2607 154.04 75.091 153.41 74.7507C152.789 74.4104 152.298 73.9478 151.94 73.357C151.588 72.7572 151.415 72.0817 151.415 71.3337C151.415 70.5857 151.588 69.9184 151.94 69.3277C152.298 68.7285 152.789 68.2568 153.41 67.9167C154.04 67.5768 154.75 67.4067 155.54 67.4067C156.317 67.4067 157.015 67.5768 157.636 67.9167C158.267 68.2568 158.761 68.7285 159.124 69.3277C159.484 69.9184 159.665 70.5857 159.665 71.3337C159.665 72.0817 159.484 72.7572 159.124 73.357C158.761 73.9478 158.267 74.4104 157.636 74.7507C157.015 75.091 156.317 75.2607 155.54 75.2607ZM155.54 73.765C155.98 73.765 156.377 73.663 156.74 73.459C157.1 73.246 157.383 72.9572 157.586 72.5916C157.789 72.2177 157.89 71.8012 157.89 71.3337C157.89 70.8704 157.789 70.4582 157.586 70.0927C157.383 69.7188 157.1 69.4297 156.74 69.2257C156.377 69.0133 155.98 68.9028 155.54 68.9028C155.088 68.9028 154.682 69.0133 154.323 69.2257C153.972 69.4297 153.689 69.7188 153.477 70.0927C153.274 70.4582 153.173 70.8704 153.173 71.3337C153.173 71.8012 153.274 72.2177 153.477 72.5916C153.689 72.9572 153.972 73.246 154.323 73.459C154.682 73.663 155.088 73.765 155.54 73.765Z" fill="white"/>
<path d="M167.888 67.5435V75.125H166.451L162.698 70.5184V75.125H160.974V67.5435H162.411L166.164 72.1504V67.5435H167.888Z" fill="white"/>
<path d="M174.274 68.9714H171.873V67.5435H178.432V68.9714H176.015V75.125H174.274V68.9714Z" fill="white"/>
<path d="M186.286 67.5435V75.125H184.545V72.0143H181.113V75.125H179.372V67.5435H181.113V70.5353H184.545V67.5435H186.286Z" fill="white"/>
<path d="M193.902 73.7142V75.125H188.07V67.5435H193.767V68.9544H189.794V70.6034H193.293V71.9633H189.794V73.7142H193.902Z" fill="white"/>
<path d="M203.426 71.2147H205.016V74.2913C204.61 74.5973 204.136 74.8356 203.596 75.0053C203.063 75.1758 202.522 75.2607 201.973 75.2607C201.195 75.2607 200.489 75.091 199.859 74.7507C199.238 74.4104 198.748 73.9478 198.388 73.357C198.038 72.7572 197.864 72.0817 197.864 71.3337C197.864 70.5857 198.038 69.9184 198.388 69.3277C198.748 68.7285 199.242 68.2568 199.876 67.9167C200.506 67.5768 201.216 67.4067 202.006 67.4067C202.67 67.4067 203.265 67.5215 203.799 67.7468C204.339 67.9762 204.796 68.3035 205.168 68.7327L204.035 69.7698C203.502 69.1917 202.856 68.9028 202.09 68.9028C201.617 68.9028 201.186 69.0048 200.806 69.2088C200.434 69.4128 200.138 69.7017 199.927 70.0757C199.724 70.4412 199.623 70.8577 199.623 71.3337C199.623 71.8012 199.724 72.2177 199.927 72.5916C200.138 72.9572 200.434 73.246 200.806 73.459C201.178 73.663 201.6 73.765 202.074 73.765C202.568 73.765 203.02 73.6581 203.426 73.4419V71.2147Z" fill="white"/>
<path d="M211.439 75.125L209.986 73.0173H208.379V75.125H206.639V67.5435H209.901C210.565 67.5435 211.139 67.6582 211.625 67.8834C212.12 68.1129 212.505 68.4274 212.775 68.8354C213.045 69.2434 213.181 69.7322 213.181 70.2974C213.181 70.8669 213.045 71.3513 212.775 71.7593C212.505 72.1673 212.12 72.482 211.625 72.6942L213.316 75.125H211.439ZM211.406 70.2974C211.406 69.8681 211.271 69.5409 211 69.3114C210.729 69.0862 210.328 68.9714 209.799 68.9714H208.379V71.6234H209.799C210.328 71.6234 210.729 71.5129 211 71.2834C211.271 71.0453 211.406 70.7181 211.406 70.2974Z" fill="white"/>
<path d="M219.519 73.4931H216.02L215.344 75.125H213.552L216.916 67.5435H218.641L222.005 75.125H220.179L219.519 73.4931ZM218.962 72.1673L217.762 69.2604L216.578 72.1673H218.962Z" fill="white"/>
<path d="M224.537 68.9544V70.9604H228.019V72.3711H224.537V75.125H222.795V67.5435H228.493V68.9544H224.537Z" fill="white"/>
<path d="M231.23 68.9714H228.829V67.5435H235.389V68.9714H232.97V75.125H231.23V68.9714Z" fill="white"/>
<path d="M236.834 75.2097C236.538 75.2097 236.293 75.1077 236.09 74.9037C235.896 74.6997 235.802 74.4533 235.802 74.1563C235.802 73.8413 235.896 73.5908 236.09 73.408C236.293 73.2171 236.538 73.1191 236.834 73.1191C237.138 73.1191 237.383 73.2171 237.577 73.408C237.78 73.5908 237.881 73.8413 237.881 74.1563C237.881 74.4533 237.78 74.6997 237.577 74.9037C237.383 75.1077 237.138 75.2097 236.834 75.2097Z" fill="white"/>
</svg>
