<svg width="16" height="16" viewBox="0 0 16 16" fill="none" xmlns="http://www.w3.org/2000/svg">
<g id="Money">
<path id="Vector" d="M15 3.25H1C0.801088 3.25 0.610322 3.32902 0.46967 3.46967C0.329018 3.61032 0.25 3.80109 0.25 4V12C0.25 12.1989 0.329018 12.3897 0.46967 12.5303C0.610322 12.671 0.801088 12.75 1 12.75H15C15.1989 12.75 15.3897 12.671 15.5303 12.5303C15.671 12.3897 15.75 12.1989 15.75 12V4C15.75 3.80109 15.671 3.61032 15.5303 3.46967C15.3897 3.32902 15.1989 3.25 15 3.25ZM11.3256 11.25H4.67438C4.52598 10.5301 4.16992 9.86953 3.65019 9.34981C3.13047 8.83009 2.46986 8.47402 1.75 8.32563V7.67438C2.46986 7.52598 3.13047 7.16991 3.65019 6.65019C4.16992 6.13047 4.52598 5.46986 4.67438 4.75H11.3256C11.474 5.46986 11.8301 6.13047 12.3498 6.65019C12.8695 7.16991 13.5301 7.52598 14.25 7.67438V8.32563C13.5301 8.47402 12.8695 8.83009 12.3498 9.34981C11.8301 9.86953 11.474 10.5301 11.3256 11.25ZM14.25 6.12125C13.9342 6.0085 13.6473 5.82699 13.4102 5.58985C13.173 5.3527 12.9915 5.06585 12.8787 4.75H14.25V6.12125ZM3.12125 4.75C3.00849 5.06585 2.82699 5.3527 2.58985 5.58985C2.3527 5.82699 2.06585 6.0085 1.75 6.12125V4.75H3.12125ZM1.75 9.87875C2.06585 9.9915 2.3527 10.173 2.58985 10.4102C2.82699 10.6473 3.00849 10.9342 3.12125 11.25H1.75V9.87875ZM12.8787 11.25C12.9915 10.9342 13.173 10.6473 13.4102 10.4102C13.6473 10.173 13.9342 9.9915 14.25 9.87875V11.25H12.8787ZM8 5.5C7.50555 5.5 7.0222 5.64662 6.61107 5.92133C6.19995 6.19603 5.87952 6.58648 5.6903 7.04329C5.50108 7.50011 5.45157 8.00277 5.54804 8.48773C5.6445 8.97268 5.8826 9.41814 6.23223 9.76777C6.58186 10.1174 7.02732 10.3555 7.51227 10.452C7.99723 10.5484 8.49989 10.4989 8.95671 10.3097C9.41352 10.1205 9.80397 9.80005 10.0787 9.38893C10.3534 8.9778 10.5 8.49445 10.5 8C10.5 7.33696 10.2366 6.70107 9.76777 6.23223C9.29893 5.76339 8.66304 5.5 8 5.5ZM8 9C7.80222 9 7.60888 8.94135 7.44443 8.83147C7.27998 8.72159 7.15181 8.56541 7.07612 8.38268C7.00043 8.19996 6.98063 7.99889 7.01921 7.80491C7.0578 7.61093 7.15304 7.43275 7.29289 7.29289C7.43275 7.15304 7.61093 7.0578 7.80491 7.01921C7.99889 6.98063 8.19996 7.00043 8.38268 7.07612C8.56541 7.15181 8.72159 7.27998 8.83147 7.44443C8.94135 7.60888 9 7.80222 9 8C9 8.26522 8.89464 8.51957 8.70711 8.70711C8.51957 8.89464 8.26522 9 8 9Z" fill="#717D8C"/>
</g>
</svg>
