<svg width="16" height="16" viewBox="0 0 16 16" fill="none" xmlns="http://www.w3.org/2000/svg">
<g id="Wallet">
<path id="Vector" d="M12.2499 8.75C12.2499 8.94778 12.1912 9.14112 12.0813 9.30557C11.9714 9.47002 11.8153 9.59819 11.6325 9.67388C11.4498 9.74957 11.2487 9.76937 11.0548 9.73079C10.8608 9.6922 10.6826 9.59696 10.5427 9.45711C10.4029 9.31725 10.3077 9.13907 10.2691 8.94509C10.2305 8.75111 10.2503 8.55004 10.326 8.36732C10.4017 8.18459 10.5298 8.02841 10.6943 7.91853C10.8587 7.80865 11.0521 7.75 11.2499 7.75C11.5151 7.75 11.7694 7.85536 11.957 8.04289C12.1445 8.23043 12.2499 8.48478 12.2499 8.75ZM14.7499 6.75V11.75C14.7499 12.2804 14.5391 12.7891 14.1641 13.1642C13.789 13.5393 13.2803 13.75 12.7499 13.75H3.74985C3.21942 13.75 2.71071 13.5393 2.33564 13.1642C1.96056 12.7891 1.74985 12.2804 1.74985 11.75V4.3075C1.74216 4.04006 1.78821 3.77379 1.88526 3.52446C1.98232 3.27514 2.12842 3.04782 2.31491 2.85597C2.5014 2.66412 2.72449 2.51164 2.97097 2.40755C3.21744 2.30346 3.4823 2.24989 3.74985 2.25H11.9999C12.1988 2.25 12.3895 2.32902 12.5302 2.46967C12.6708 2.61032 12.7499 2.80109 12.7499 3C12.7499 3.19891 12.6708 3.38968 12.5302 3.53033C12.3895 3.67098 12.1988 3.75 11.9999 3.75H3.74985C3.6828 3.74996 3.61643 3.76342 3.55468 3.78955C3.49293 3.81569 3.43707 3.85398 3.39043 3.90214C3.34378 3.95031 3.30729 4.00736 3.28314 4.06991C3.25899 4.13247 3.24767 4.19923 3.24985 4.26625V4.27125C3.26035 4.40364 3.32111 4.52699 3.41966 4.61601C3.51821 4.70503 3.64708 4.75297 3.77985 4.75H12.7499C13.2803 4.75 13.789 4.96071 14.1641 5.33579C14.5391 5.71086 14.7499 6.21957 14.7499 6.75ZM13.2499 6.75C13.2499 6.61739 13.1972 6.49021 13.1034 6.39645C13.0096 6.30268 12.8825 6.25 12.7499 6.25H3.77985C3.60104 6.25008 3.42294 6.22739 3.24985 6.1825V11.75C3.24985 11.8826 3.30253 12.0098 3.3963 12.1036C3.49007 12.1973 3.61724 12.25 3.74985 12.25H12.7499C12.8825 12.25 13.0096 12.1973 13.1034 12.1036C13.1972 12.0098 13.2499 11.8826 13.2499 11.75V6.75Z" fill="#717D8C"/>
</g>
</svg>
