<svg width="24" height="24" viewBox="0 0 24 24" fill="none" xmlns="http://www.w3.org/2000/svg">
<g id="ChatCircleText">
<path id="Vector" d="M15.75 10.5004C15.75 10.6993 15.671 10.8901 15.5303 11.0307C15.3897 11.1714 15.1989 11.2504 15 11.2504H9C8.80109 11.2504 8.61032 11.1714 8.46967 11.0307C8.32902 10.8901 8.25 10.6993 8.25 10.5004C8.25 10.3015 8.32902 10.1107 8.46967 9.97007C8.61032 9.82941 8.80109 9.7504 9 9.7504H15C15.1989 9.7504 15.3897 9.82941 15.5303 9.97007C15.671 10.1107 15.75 10.3015 15.75 10.5004ZM15 12.7504H9C8.80109 12.7504 8.61032 12.8294 8.46967 12.9701C8.32902 13.1107 8.25 13.3015 8.25 13.5004C8.25 13.6993 8.32902 13.8901 8.46967 14.0307C8.61032 14.1714 8.80109 14.2504 9 14.2504H15C15.1989 14.2504 15.3897 14.1714 15.5303 14.0307C15.671 13.8901 15.75 13.6993 15.75 13.5004C15.75 13.3015 15.671 13.1107 15.5303 12.9701C15.3897 12.8294 15.1989 12.7504 15 12.7504ZM21.75 12.0004C21.7504 13.6837 21.3149 15.3384 20.486 16.8035C19.6572 18.2686 18.4631 19.4942 17.02 20.3609C15.577 21.2276 13.9341 21.7059 12.2514 21.7493C10.5686 21.7927 8.9033 21.3997 7.4175 20.6085L4.22531 21.6726C3.96102 21.7607 3.6774 21.7735 3.40624 21.7095C3.13509 21.6455 2.88711 21.5073 2.69011 21.3103C2.49311 21.1133 2.35486 20.8653 2.29087 20.5942C2.22688 20.323 2.23967 20.0394 2.32781 19.7751L3.39187 16.5829C2.69639 15.2753 2.30793 13.8264 2.256 12.3463C2.20406 10.8662 2.49001 9.39365 3.09213 8.04052C3.69425 6.68739 4.59672 5.48922 5.73105 4.53695C6.86537 3.58468 8.20173 2.90334 9.63869 2.54465C11.0756 2.18596 12.5754 2.15935 14.0242 2.46683C15.473 2.77432 16.8327 3.40782 18.0001 4.31924C19.1675 5.23067 20.1119 6.39607 20.7616 7.72698C21.4114 9.0579 21.7494 10.5193 21.75 12.0004ZM20.25 12.0004C20.2496 10.7349 19.9582 9.48642 19.3981 8.35159C18.838 7.21676 18.0244 6.22599 17.0201 5.45593C16.0159 4.68586 14.8479 4.15715 13.6067 3.9107C12.3654 3.66424 11.084 3.70665 9.86178 4.03464C8.63951 4.36264 7.50909 4.96742 6.55796 5.8022C5.60682 6.63698 4.86049 7.67939 4.37668 8.84877C3.89288 10.0181 3.68458 11.2832 3.7679 12.5459C3.85122 13.8087 4.22393 15.0353 4.85719 16.131C4.91034 16.223 4.94334 16.3252 4.954 16.4309C4.96467 16.5366 4.95276 16.6434 4.91906 16.7441L3.75 20.2504L7.25625 19.0813C7.33262 19.0553 7.41275 19.042 7.49344 19.042C7.62516 19.0422 7.7545 19.0771 7.86844 19.1432C9.12263 19.8689 10.5458 20.2514 11.9948 20.2523C13.4438 20.2532 14.8674 19.8725 16.1225 19.1484C17.3776 18.4244 18.4199 17.3825 19.1445 16.1277C19.869 14.8729 20.2503 13.4494 20.25 12.0004Z" fill="#99A7B9"/>
</g>
</svg>
