<svg width="24" height="20" viewBox="0 0 24 20" fill="none" xmlns="http://www.w3.org/2000/svg">
<path id="Vector" d="M23.781 10.53L21.531 12.78C21.4614 12.8497 21.3787 12.9051 21.2876 12.9428C21.1966 12.9806 21.099 13 21.0004 13C20.9019 13 20.8043 12.9806 20.7132 12.9428C20.6222 12.9051 20.5394 12.8497 20.4698 12.78L18.2198 10.53C18.0791 10.3893 18 10.1984 18 9.99939C18 9.80037 18.0791 9.6095 18.2198 9.46877C18.3605 9.32803 18.5514 9.24897 18.7504 9.24897C18.9494 9.24897 19.1403 9.32803 19.281 9.46877L20.2504 10.4391V9.99939C20.2513 8.25248 19.6976 6.55039 18.6691 5.13831C17.6407 3.72623 16.1906 2.67706 14.5276 2.14193C12.8647 1.60681 11.0748 1.61335 9.41586 2.16062C7.75689 2.70789 6.31446 3.76764 5.29635 5.1872C5.18024 5.34882 5.00468 5.45769 4.80829 5.48986C4.61191 5.52204 4.41078 5.47488 4.24917 5.35877C4.08755 5.24265 3.97868 5.06709 3.94651 4.8707C3.91433 4.67432 3.96149 4.47319 4.0776 4.31158C5.28087 2.63394 6.98562 1.38156 8.94625 0.734844C10.9069 0.0881317 13.0222 0.080474 14.9875 0.712974C16.9527 1.34547 18.6665 2.58548 19.8819 4.25436C21.0973 5.92325 21.7515 7.93485 21.7504 9.99939V10.4391L22.7198 9.46877C22.8605 9.32803 23.0514 9.24897 23.2504 9.24897C23.4494 9.24897 23.6403 9.32804 23.781 9.46877C23.9218 9.6095 24.0008 9.80037 24.0008 9.99939C24.0008 10.1984 23.9218 10.3893 23.781 10.53ZM19.9204 15.6863C18.7168 17.3626 17.0123 18.6139 15.0523 19.2598C13.0923 19.9058 10.9779 19.9132 9.01338 19.281C7.04891 18.6487 5.3357 17.4094 4.12039 15.7415C2.90507 14.0736 2.25033 12.0631 2.25042 9.99939V9.5597L1.28104 10.53C1.14031 10.6707 0.94944 10.7498 0.750417 10.7498C0.551394 10.7498 0.360523 10.6707 0.219792 10.53C0.0790616 10.3893 0 10.1984 0 9.99939C0 9.80037 0.0790616 9.6095 0.219792 9.46877L2.46979 7.21877C2.53945 7.14903 2.62216 7.09371 2.71321 7.05597C2.80426 7.01823 2.90186 6.9988 3.00042 6.9988C3.09898 6.9988 3.19657 7.01823 3.28762 7.05597C3.37867 7.09371 3.46139 7.14903 3.53104 7.21877L5.78104 9.46877C5.92177 9.6095 6.00083 9.80037 6.00083 9.99939C6.00083 10.1984 5.92177 10.3893 5.78104 10.53C5.64031 10.6707 5.44944 10.7498 5.25042 10.7498C5.05139 10.7498 4.86052 10.6707 4.71979 10.53L3.75042 9.5597V9.99939C3.74864 12.0189 4.4909 13.9684 5.83542 15.4753C6.67188 14.2632 7.84806 13.3255 9.21604 12.78C8.48122 12.2012 7.94501 11.4079 7.68198 10.5102C7.41896 9.61259 7.4422 8.65529 7.74847 7.77146C8.05473 6.88764 8.62881 6.12122 9.39085 5.57879C10.1529 5.03635 11.065 4.74487 12.0004 4.74487C12.9358 4.74487 13.8479 5.03635 14.61 5.57879C15.372 6.12122 15.9461 6.88764 16.2524 7.77146C16.5586 8.65529 16.5819 9.61259 16.3189 10.5102C16.0558 11.4079 15.5196 12.2012 14.7848 12.78C16.154 13.3256 17.331 14.2644 18.1673 15.4781C18.3569 15.2652 18.5356 15.0427 18.7026 14.8116C18.8187 14.65 18.9943 14.5411 19.1907 14.5089C19.3871 14.4767 19.5882 14.5239 19.7498 14.64C19.9114 14.7561 20.0203 14.9317 20.0525 15.1281C20.0846 15.3245 20.0375 15.5256 19.9214 15.6872L19.9204 15.6863ZM12.0004 12.2494C12.5938 12.2494 13.1738 12.0734 13.6671 11.7438C14.1605 11.4142 14.545 10.9456 14.7721 10.3974C14.9991 9.84926 15.0585 9.24606 14.9428 8.66412C14.827 8.08218 14.5413 7.54763 14.1217 7.12807C13.7022 6.70851 13.1676 6.42279 12.5857 6.30703C12.0037 6.19128 11.4005 6.25069 10.8524 6.47775C10.3042 6.70481 9.83565 7.08933 9.50601 7.58268C9.17636 8.07603 9.00042 8.65605 9.00042 9.24939C9.00042 10.045 9.31649 10.8081 9.8791 11.3707C10.4417 11.9333 11.2048 12.2494 12.0004 12.2494ZM12.0004 18.2494C13.8308 18.247 15.6087 17.6373 17.0554 16.516C16.5129 15.6674 15.7654 14.9691 14.882 14.4854C13.9986 14.0017 13.0076 13.7481 12.0004 13.7481C10.9932 13.7481 10.0023 14.0017 9.11884 14.4854C8.23542 14.9691 7.48798 15.6674 6.94542 16.516C8.38994 17.6414 10.1693 18.2515 12.0004 18.2494Z" fill="#99A7B9"/>
</svg>
