<svg width="20" height="20" viewBox="0 0 20 20" fill="none" xmlns="http://www.w3.org/2000/svg">
<path id="Vector" d="M18.25 5.75H14.9612C14.9978 5.71906 15.0353 5.68906 15.0709 5.65625C15.3557 5.40329 15.5851 5.0943 15.745 4.74861C15.9049 4.40292 15.9917 4.02796 16 3.64718C16.0123 3.23063 15.9394 2.81595 15.7856 2.42861C15.6319 2.04127 15.4006 1.68944 15.106 1.39471C14.8113 1.09999 14.4596 0.868599 14.0723 0.714741C13.685 0.560882 13.2703 0.487806 12.8538 0.499997C12.4728 0.508201 12.0977 0.594951 11.7518 0.754816C11.406 0.91468 11.0968 1.14422 10.8438 1.42906C10.4936 1.8349 10.2089 2.29291 10 2.78656C9.7911 2.29291 9.50642 1.8349 9.15625 1.42906C8.90318 1.14422 8.59405 0.91468 8.24818 0.754816C7.90232 0.594951 7.52718 0.508201 7.14625 0.499997C6.72969 0.487806 6.31503 0.560882 5.92774 0.714741C5.54044 0.868599 5.18868 1.09999 4.89405 1.39471C4.59941 1.68944 4.36812 2.04127 4.21438 2.42861C4.06064 2.81595 3.98768 3.23063 4 3.64718C4.00833 4.02796 4.09514 4.40292 4.255 4.74861C4.41486 5.0943 4.64434 5.40329 4.92906 5.65625C4.96469 5.68718 5.00219 5.71718 5.03875 5.75H1.75C1.35218 5.75 0.970644 5.90803 0.68934 6.18934C0.408035 6.47064 0.25 6.85217 0.25 7.25V10.25C0.25 10.6478 0.408035 11.0294 0.68934 11.3107C0.970644 11.592 1.35218 11.75 1.75 11.75V17.75C1.75 18.1478 1.90804 18.5294 2.18934 18.8107C2.47064 19.092 2.85218 19.25 3.25 19.25H16.75C17.1478 19.25 17.5294 19.092 17.8107 18.8107C18.092 18.5294 18.25 18.1478 18.25 17.75V11.75C18.6478 11.75 19.0294 11.592 19.3107 11.3107C19.592 11.0294 19.75 10.6478 19.75 10.25V7.25C19.75 6.85217 19.592 6.47064 19.3107 6.18934C19.0294 5.90803 18.6478 5.75 18.25 5.75ZM11.9688 2.42281C12.0875 2.29167 12.2321 2.1865 12.3934 2.1139C12.5547 2.0413 12.7293 2.00284 12.9062 2.00093H12.9522C13.1595 2.00223 13.3645 2.0449 13.5552 2.12644C13.7458 2.20798 13.9183 2.32675 14.0624 2.47579C14.2066 2.62483 14.3195 2.80115 14.3947 2.99441C14.4698 3.18766 14.5056 3.39397 14.5 3.60125C14.4981 3.77815 14.4596 3.95275 14.387 4.11408C14.3144 4.27541 14.2093 4.42 14.0781 4.53875C13.1884 5.32625 11.7119 5.60375 10.7969 5.70125C10.9094 4.70843 11.2188 3.26562 11.9688 2.42281ZM5.96031 2.45656C6.25088 2.16602 6.64441 2.00194 7.05531 2H7.10125C7.27815 2.0019 7.45275 2.04037 7.61409 2.11297C7.77542 2.18556 7.92 2.29073 8.03875 2.42187C8.82531 3.31062 9.10281 4.78437 9.20031 5.69562C8.28906 5.60187 6.81531 5.32062 5.92656 4.53406C5.79543 4.41531 5.69026 4.27073 5.61766 4.1094C5.54506 3.94806 5.5066 3.77346 5.50469 3.59656C5.49887 3.38584 5.53593 3.17614 5.61361 2.98017C5.69128 2.78421 5.80796 2.60607 5.95656 2.45656H5.96031ZM1.75 7.25H9.25V10.25H1.75V7.25ZM3.25 11.75H9.25V17.75H3.25V11.75ZM16.75 17.75H10.75V11.75H16.75V17.75ZM18.25 10.25H10.75V7.25H18.25V10.25Z" fill="#99A7B9"/>
</svg>
