<svg width="20" height="20" viewBox="0 0 20 20" fill="none" xmlns="http://www.w3.org/2000/svg">
<path id="Vector" d="M13.7497 3.25001C13.7497 3.0511 13.8287 2.86033 13.9693 2.71968C14.11 2.57903 14.3007 2.50001 14.4997 2.50001H15.9997V1.00001C15.9997 0.801098 16.0787 0.610333 16.2193 0.469681C16.36 0.329028 16.5507 0.250011 16.7497 0.250011C16.9486 0.250011 17.1393 0.329028 17.28 0.469681C17.4206 0.610333 17.4997 0.801098 17.4997 1.00001V2.50001H18.9997C19.1986 2.50001 19.3893 2.57903 19.53 2.71968C19.6706 2.86033 19.7497 3.0511 19.7497 3.25001C19.7497 3.44892 19.6706 3.63969 19.53 3.78034C19.3893 3.92099 19.1986 4.00001 18.9997 4.00001H17.4997V5.50001C17.4997 5.69892 17.4206 5.88969 17.28 6.03034C17.1393 6.17099 16.9486 6.25001 16.7497 6.25001C16.5507 6.25001 16.36 6.17099 16.2193 6.03034C16.0787 5.88969 15.9997 5.69892 15.9997 5.50001V4.00001H14.4997C14.3007 4.00001 14.11 3.92099 13.9693 3.78034C13.8287 3.63969 13.7497 3.44892 13.7497 3.25001ZM19.6147 8.37626C19.9573 10.413 19.6438 12.506 18.7194 14.353C17.795 16.2 16.3075 17.7054 14.4717 18.6518C12.636 19.5983 10.5469 19.9369 8.50617 19.6187C6.46543 19.3005 4.57863 18.342 3.11817 16.8815C1.65772 15.421 0.699188 13.5342 0.38098 11.4935C0.0627718 9.45277 0.401351 7.36371 1.34783 5.52795C2.29431 3.69218 3.79972 2.20471 5.64669 1.2803C7.49367 0.355887 9.58664 0.0423685 11.6234 0.385011C11.8181 0.41944 11.9913 0.52935 12.1054 0.690833C12.2195 0.852316 12.2651 1.05231 12.2325 1.24731C12.1999 1.4423 12.0916 1.61653 11.9312 1.73209C11.7708 1.84766 11.5712 1.8952 11.3759 1.86439C10.1929 1.66538 8.98075 1.72655 7.82379 2.04364C6.66684 2.36073 5.59287 2.92613 4.67665 3.70048C3.76042 4.47483 3.02393 5.43954 2.51844 6.52746C2.01296 7.61538 1.75061 8.80039 1.74966 10C1.74788 12.0196 2.49014 13.969 3.83466 15.4759C4.67113 14.2638 5.8473 13.3261 7.21528 12.7806C6.48046 12.2019 5.94425 11.4085 5.68123 10.5109C5.4182 9.61321 5.44144 8.65591 5.74771 7.77208C6.05398 6.88826 6.62805 6.12184 7.39009 5.57941C8.15214 5.03697 9.06427 4.74549 9.99966 4.74549C10.935 4.74549 11.8472 5.03697 12.6092 5.57941C13.3713 6.12184 13.9453 6.88826 14.2516 7.77208C14.5579 8.65591 14.5811 9.61321 14.3181 10.5109C14.0551 11.4085 13.5189 12.2019 12.784 12.7806C14.152 13.3261 15.3282 14.2638 16.1647 15.4759C17.5092 13.969 18.2514 12.0196 18.2497 10C18.2497 9.53889 18.2114 9.07855 18.1353 8.62376C18.118 8.5262 18.1203 8.42618 18.1419 8.3295C18.1635 8.23281 18.2041 8.14136 18.2612 8.06044C18.3184 7.97951 18.391 7.91072 18.4749 7.85802C18.5588 7.80533 18.6523 7.76978 18.7501 7.75343C18.8478 7.73709 18.9478 7.74026 19.0443 7.76278C19.1407 7.78529 19.2318 7.8267 19.3122 7.88461C19.3926 7.94252 19.4607 8.01579 19.5126 8.10017C19.5645 8.18456 19.5992 8.2784 19.6147 8.37626ZM9.99966 12.25C10.593 12.25 11.173 12.0741 11.6664 11.7444C12.1597 11.4148 12.5442 10.9462 12.7713 10.3981C12.9984 9.84988 13.0578 9.24668 12.942 8.66474C12.8263 8.0828 12.5405 7.54825 12.121 7.12869C11.7014 6.70913 11.1669 6.42341 10.5849 6.30765C10.003 6.1919 9.39979 6.25131 8.85161 6.47837C8.30343 6.70543 7.83489 7.08995 7.50525 7.5833C7.17561 8.07665 6.99966 8.65667 6.99966 9.25001C6.99966 10.0457 7.31573 10.8087 7.87834 11.3713C8.44095 11.9339 9.20401 12.25 9.99966 12.25ZM9.99966 18.25C11.8309 18.2519 13.6103 17.6414 15.0547 16.5156C14.5121 15.6671 13.7647 14.9688 12.8812 14.4851C11.9978 14.0014 11.0068 13.7478 9.99966 13.7478C8.99248 13.7478 8.00151 14.0014 7.11809 14.4851C6.23466 14.9688 5.48722 15.6671 4.94466 16.5156C6.38906 17.6414 8.16838 18.2519 9.99966 18.25Z" fill="#99A7B9"/>
</svg>
