<svg width="24" height="24" viewBox="0 0 24 24" fill="none" xmlns="http://www.w3.org/2000/svg">
<g id="UserList">
<path id="Vector" d="M13.4998 7.49965C13.4998 7.30074 13.5789 7.10998 13.7195 6.96932C13.8602 6.82867 14.0509 6.74965 14.2498 6.74965H23.2498C23.4488 6.74965 23.6395 6.82867 23.7802 6.96932C23.9208 7.10998 23.9998 7.30074 23.9998 7.49965C23.9998 7.69857 23.9208 7.88933 23.7802 8.02998C23.6395 8.17064 23.4488 8.24965 23.2498 8.24965H14.2498C14.0509 8.24965 13.8602 8.17064 13.7195 8.02998C13.5789 7.88933 13.4998 7.69857 13.4998 7.49965ZM23.2498 11.2497H14.2498C14.0509 11.2497 13.8602 11.3287 13.7195 11.4693C13.5789 11.61 13.4998 11.8007 13.4998 11.9997C13.4998 12.1986 13.5789 12.3893 13.7195 12.53C13.8602 12.6706 14.0509 12.7497 14.2498 12.7497H23.2498C23.4488 12.7497 23.6395 12.6706 23.7802 12.53C23.9208 12.3893 23.9998 12.1986 23.9998 11.9997C23.9998 11.8007 23.9208 11.61 23.7802 11.4693C23.6395 11.3287 23.4488 11.2497 23.2498 11.2497ZM23.2498 15.7497H16.4998C16.3009 15.7497 16.1102 15.8287 15.9695 15.9693C15.8289 16.11 15.7498 16.3007 15.7498 16.4997C15.7498 16.6986 15.8289 16.8893 15.9695 17.03C16.1102 17.1706 16.3009 17.2497 16.4998 17.2497H23.2498C23.4488 17.2497 23.6395 17.1706 23.7802 17.03C23.9208 16.8893 23.9998 16.6986 23.9998 16.4997C23.9998 16.3007 23.9208 16.11 23.7802 15.9693C23.6395 15.8287 23.4488 15.7497 23.2498 15.7497ZM14.2264 17.8122C14.2509 17.9076 14.2564 18.0069 14.2425 18.1044C14.2287 18.2019 14.1957 18.2958 14.1456 18.3806C14.0954 18.4654 14.0291 18.5395 13.9503 18.5986C13.8715 18.6578 13.7818 18.7008 13.6864 18.7253C13.6253 18.7418 13.5622 18.75 13.4989 18.7497C13.3326 18.7497 13.1709 18.6945 13.0394 18.5927C12.9079 18.4909 12.8139 18.3482 12.7723 18.1872C12.1948 15.9428 9.92797 14.2497 7.4989 14.2497C5.06984 14.2497 2.80297 15.9418 2.22547 18.1872C2.17574 18.3799 2.0515 18.5449 1.88008 18.646C1.70866 18.7471 1.5041 18.7759 1.3114 18.7262C1.11871 18.6765 0.953657 18.5522 0.852564 18.3808C0.75147 18.2094 0.722613 18.0049 0.772341 17.8122C1.2964 15.7768 2.81984 14.1287 4.75297 13.3122C4.00862 12.7388 3.46239 11.9469 3.19089 11.0475C2.91938 10.148 2.93622 9.18611 3.23904 8.29671C3.54186 7.4073 4.11547 6.63498 4.87942 6.08806C5.64338 5.54115 6.55936 5.24707 7.4989 5.24707C8.43845 5.24707 9.35443 5.54115 10.1184 6.08806C10.8823 6.63498 11.4559 7.4073 11.7588 8.29671C12.0616 9.18611 12.0784 10.148 11.8069 11.0475C11.5354 11.9469 10.9892 12.7388 10.2448 13.3122C12.1789 14.1287 13.7023 15.7768 14.2264 17.8122ZM7.49984 12.7497C8.09319 12.7497 8.6732 12.5737 9.16655 12.2441C9.6599 11.9144 10.0444 11.4459 10.2715 10.8977C10.4985 10.3495 10.558 9.74633 10.4422 9.16438C10.3264 8.58244 10.0407 8.04789 9.62116 7.62833C9.2016 7.20878 8.66706 6.92305 8.08511 6.8073C7.50317 6.69154 6.89997 6.75095 6.35179 6.97802C5.80361 7.20508 5.33508 7.5896 5.00543 8.08294C4.67579 8.57629 4.49984 9.15631 4.49984 9.74965C4.49984 10.5453 4.81591 11.3084 5.37852 11.871C5.94113 12.4336 6.70419 12.7497 7.49984 12.7497Z" fill="#717D8C"/>
</g>
</svg>
