<svg width="28" height="29" viewBox="0 0 28 29" fill="none" xmlns="http://www.w3.org/2000/svg">
<g id="CheckSquare">
<path id="Vector" d="M18.9941 11.2559C19.0754 11.3372 19.14 11.4337 19.184 11.5399C19.228 11.6462 19.2507 11.76 19.2507 11.875C19.2507 11.99 19.228 12.1038 19.184 12.2101C19.14 12.3163 19.0754 12.4128 18.9941 12.4941L12.8691 18.6191C12.7878 18.7004 12.6913 18.765 12.5851 18.809C12.4788 18.853 12.365 18.8757 12.25 18.8757C12.135 18.8757 12.0212 18.853 11.9149 18.809C11.8087 18.765 11.7122 18.7004 11.6309 18.6191L9.00594 15.9941C8.84175 15.8299 8.74951 15.6072 8.74951 15.375C8.74951 15.1428 8.84175 14.9201 9.00594 14.7559C9.17012 14.5918 9.39281 14.4995 9.625 14.4995C9.85719 14.4995 10.0799 14.5918 10.2441 14.7559L12.25 16.763L17.7559 11.2559C17.8372 11.1746 17.9337 11.11 18.0399 11.066C18.1462 11.022 18.26 10.9993 18.375 10.9993C18.49 10.9993 18.6038 11.022 18.7101 11.066C18.8163 11.11 18.9128 11.1746 18.9941 11.2559ZM24.5 5.75V23.25C24.5 23.7141 24.3156 24.1592 23.9874 24.4874C23.6592 24.8156 23.2141 25 22.75 25H5.25C4.78587 25 4.34075 24.8156 4.01256 24.4874C3.68437 24.1592 3.5 23.7141 3.5 23.25V5.75C3.5 5.28587 3.68437 4.84075 4.01256 4.51256C4.34075 4.18437 4.78587 4 5.25 4H22.75C23.2141 4 23.6592 4.18437 23.9874 4.51256C24.3156 4.84075 24.5 5.28587 24.5 5.75ZM22.75 23.25V5.75H5.25V23.25H22.75Z" fill="#ADB9D7"/>
</g>
</svg>
