<svg width="14" height="14" viewBox="0 0 14 14" fill="none" xmlns="http://www.w3.org/2000/svg">
<path id="Vector" d="M7 0.25C5.66498 0.25 4.35994 0.645881 3.2499 1.38758C2.13987 2.12928 1.27471 3.18349 0.763816 4.41689C0.252925 5.65029 0.119252 7.00749 0.379702 8.31686C0.640153 9.62623 1.28303 10.829 2.22703 11.773C3.17104 12.717 4.37377 13.3599 5.68314 13.6203C6.99251 13.8808 8.34971 13.7471 9.58312 13.2362C10.8165 12.7253 11.8707 11.8601 12.6124 10.7501C13.3541 9.64007 13.75 8.33502 13.75 7C13.748 5.2104 13.0362 3.49466 11.7708 2.22922C10.5053 0.963781 8.7896 0.251985 7 0.25ZM3.97313 11.2856C4.3213 10.8096 4.77685 10.4223 5.30279 10.1554C5.82872 9.88846 6.4102 9.74934 7 9.74934C7.5898 9.74934 8.17128 9.88846 8.69722 10.1554C9.22315 10.4223 9.67871 10.8096 10.0269 11.2856C9.14224 11.913 8.08452 12.25 7 12.25C5.91549 12.25 4.85777 11.913 3.97313 11.2856ZM5.25 6.5C5.25 6.15388 5.35264 5.81554 5.54493 5.52775C5.73722 5.23997 6.01054 5.01566 6.33031 4.88321C6.65008 4.75076 7.00194 4.7161 7.34141 4.78363C7.68088 4.85115 7.9927 5.01782 8.23744 5.26256C8.48218 5.50731 8.64885 5.81912 8.71638 6.15859C8.7839 6.49806 8.74925 6.84993 8.61679 7.1697C8.48434 7.48947 8.26004 7.76278 7.97225 7.95507C7.68446 8.14736 7.34612 8.25 7 8.25C6.53587 8.25 6.09075 8.06563 5.76257 7.73744C5.43438 7.40925 5.25 6.96413 5.25 6.5ZM11.125 10.2463C10.6389 9.62796 10.0193 9.12757 9.3125 8.7825C9.76293 8.32637 10.0684 7.74722 10.1905 7.1179C10.3126 6.48859 10.2459 5.83722 9.99869 5.24574C9.75151 4.65426 9.33493 4.1491 8.80136 3.79379C8.26778 3.43848 7.64105 3.2489 7 3.2489C6.35895 3.2489 5.73222 3.43848 5.19865 3.79379C4.66508 4.1491 4.2485 4.65426 4.00132 5.24574C3.75414 5.83722 3.6874 6.48859 3.8095 7.1179C3.93159 7.74722 4.23707 8.32637 4.6875 8.7825C3.98073 9.12757 3.36112 9.62796 2.875 10.2463C2.26441 9.47222 1.88409 8.5419 1.7776 7.5618C1.6711 6.58169 1.84273 5.5914 2.27283 4.7043C2.70294 3.81719 3.37413 3.06911 4.20959 2.5457C5.04505 2.02228 6.011 1.74469 6.99688 1.74469C7.98275 1.74469 8.94871 2.02228 9.78416 2.5457C10.6196 3.06911 11.2908 3.81719 11.7209 4.7043C12.151 5.5914 12.3227 6.58169 12.2162 7.5618C12.1097 8.5419 11.7293 9.47222 11.1188 10.2463H11.125Z" fill="#717D8C"/>
</svg>
