<svg width="16" height="16" viewBox="0 0 16 16" fill="none" xmlns="http://www.w3.org/2000/svg">
<g id="PhoneCall">
<path id="Vector" d="M9.27563 2.30603C9.32705 2.11393 9.45266 1.95013 9.62483 1.85062C9.797 1.75112 10.0016 1.72406 10.1938 1.7754C11.1634 2.028 12.0481 2.53469 12.7566 3.2432C13.4651 3.95171 13.9718 4.8364 14.2244 5.80603C14.2522 5.90188 14.2605 6.00232 14.249 6.10145C14.2375 6.20058 14.2063 6.29642 14.1572 6.38334C14.1082 6.47026 14.0423 6.54651 13.9634 6.60764C13.8845 6.66877 13.7942 6.71354 13.6978 6.73933C13.6014 6.76512 13.5008 6.7714 13.4019 6.75782C13.3031 6.74424 13.2079 6.71106 13.122 6.66022C13.0361 6.60939 12.9613 6.54193 12.9018 6.46179C12.8423 6.38166 12.7994 6.29045 12.7756 6.19353C12.5894 5.47928 12.216 4.82762 11.6941 4.30568C11.1722 3.78375 10.5205 3.41041 9.80625 3.22415C9.61416 3.17273 9.45035 3.04712 9.35085 2.87495C9.25134 2.70278 9.22429 2.49814 9.27563 2.30603ZM14.7406 10.9735C14.6214 11.8808 14.1761 12.7137 13.4877 13.3166C12.7994 13.9195 11.9151 14.2512 11 14.2498C5.89938 14.2498 1.75 10.1004 1.75 4.99978C1.74859 4.08471 2.08031 3.20042 2.68322 2.51206C3.28612 1.8237 4.11899 1.37834 5.02625 1.25915C5.29358 1.22667 5.56425 1.28116 5.79818 1.41456C6.03211 1.54796 6.21684 1.75317 6.325 1.99978L7.64438 4.9454C7.64578 4.94926 7.64745 4.95302 7.64938 4.95665C7.73046 5.14616 7.76342 5.35279 7.74532 5.55812C7.72722 5.76345 7.65862 5.96112 7.54563 6.13353C7.52955 6.15865 7.5118 6.18266 7.4925 6.2054L6.30125 7.62478C6.7425 8.42728 7.5825 9.25978 8.39438 9.7004L9.78875 8.5129C9.81113 8.49417 9.8345 8.47664 9.85876 8.4604C10.0318 8.34431 10.2312 8.27352 10.4386 8.25452C10.6461 8.23552 10.855 8.26892 11.0463 8.35165L11.0575 8.35665L14 9.67478C14.2466 9.78303 14.4517 9.96777 14.5851 10.2017C14.7185 10.4356 14.773 10.7062 14.7406 10.9735ZM13.2213 10.9698L10.5963 9.79415L9.19438 10.986C9.17234 11.0051 9.14917 11.0229 9.125 11.0392C8.9448 11.1586 8.73669 11.2293 8.52099 11.2443C8.30529 11.2594 8.08939 11.2182 7.89438 11.1248C6.67688 10.5373 5.46375 9.33228 4.875 8.12478C4.78138 7.93064 4.73954 7.71559 4.75356 7.5005C4.76758 7.28542 4.83697 7.07762 4.955 6.89728C4.9713 6.87215 4.98926 6.84814 5.00875 6.8254L6.20625 5.4054L5.03 2.7804C4.52463 2.89177 4.07254 3.17261 3.74877 3.57631C3.42499 3.98 3.249 4.48228 3.25 4.99978C3.25249 7.05444 4.0698 9.02424 5.52267 10.4771C6.97554 11.93 8.94534 12.7473 11 12.7498C11.5178 12.7512 12.0205 12.5754 12.4246 12.2516C12.8287 11.9278 13.1098 11.4755 13.2213 10.9698ZM9.10188 5.59165C9.40859 5.68833 9.68746 5.85753 9.91486 6.08493C10.1422 6.31232 10.3115 6.59119 10.4081 6.8979C10.456 7.05007 10.5511 7.18302 10.6797 7.27744C10.8083 7.37185 10.9636 7.4228 11.1231 7.4229C11.1996 7.42281 11.2757 7.41122 11.3488 7.38853C11.5377 7.32873 11.6954 7.19655 11.7872 7.02088C11.879 6.8452 11.8975 6.64033 11.8388 6.45103C11.6696 5.91401 11.3734 5.42573 10.9753 5.02761C10.5772 4.62949 10.0889 4.33329 9.55188 4.16415C9.45737 4.13244 9.35748 4.11988 9.25806 4.12723C9.15864 4.13457 9.06168 4.16165 8.97285 4.2069C8.88403 4.25215 8.80511 4.31466 8.74072 4.39077C8.67633 4.46687 8.62776 4.55505 8.59785 4.65015C8.56793 4.74525 8.55728 4.84535 8.56651 4.94461C8.57573 5.04388 8.60466 5.1403 8.65159 5.22826C8.69852 5.31621 8.76251 5.39392 8.83983 5.45686C8.91714 5.51979 9.00623 5.56668 9.10188 5.59478V5.59165Z" fill="#717D8C"/>
</g>
</svg>
