<svg width="249" height="146" viewBox="0 0 249 146" fill="none" xmlns="http://www.w3.org/2000/svg">
<g id="objects">
<g id="Vector">
<mask id="path-1-outside-1_4025_100738" maskUnits="userSpaceOnUse" x="6.81304" y="48.5497" width="180.518" height="96.9555" fill="black">
<rect fill="white" x="6.81304" y="48.5497" width="180.518" height="96.9555"/>
<path d="M21.8093 144.243C21.7662 144.254 21.7214 144.258 21.6752 144.252C21.4719 144.229 21.3266 144.045 21.3497 143.842C21.3931 143.465 21.442 143.084 21.4923 142.708C21.5193 142.505 21.7062 142.365 21.909 142.39C22.1121 142.417 22.2541 142.603 22.2271 142.806C22.1767 143.176 22.1294 143.553 22.0859 143.926C22.068 144.084 21.954 144.206 21.8093 144.243ZM100.852 123.69C100.844 123.692 100.837 123.694 100.829 123.695C100.33 123.791 99.8166 123.868 99.3039 123.926C99.1007 123.948 98.9179 123.802 98.8953 123.599C98.8726 123.397 99.0183 123.214 99.2226 123.191C99.7156 123.136 100.21 123.061 100.69 122.969C100.89 122.93 101.084 123.062 101.123 123.262C101.16 123.456 101.039 123.642 100.852 123.69ZM104.471 122.609C104.295 122.654 104.108 122.564 104.037 122.392C103.959 122.203 104.049 121.987 104.238 121.909C104.69 121.723 105.144 121.516 105.588 121.292C105.771 121.201 105.993 121.274 106.084 121.456C106.176 121.639 106.103 121.861 105.92 121.952C105.459 122.184 104.988 122.4 104.518 122.593C104.504 122.599 104.488 122.604 104.471 122.609ZM95.5784 123.997C95.5413 124.006 95.5027 124.01 95.4626 124.007C94.9598 123.975 94.445 123.925 93.934 123.86C93.7312 123.835 93.588 123.649 93.6138 123.446C93.6396 123.244 93.8247 123.101 94.0287 123.126C94.5254 123.19 95.0243 123.237 95.5115 123.269C95.7152 123.283 95.8697 123.458 95.8567 123.661C95.8453 123.825 95.729 123.958 95.5784 123.997ZM109.057 119.987C108.916 120.024 108.76 119.974 108.669 119.85C108.546 119.687 108.58 119.455 108.744 119.333C109.136 119.04 109.529 118.727 109.909 118.405C110.065 118.273 110.299 118.291 110.43 118.446C110.563 118.602 110.544 118.836 110.388 118.967C109.997 119.3 109.593 119.622 109.186 119.925C109.147 119.955 109.102 119.976 109.057 119.987ZM90.3636 123.12C90.3038 123.135 90.2403 123.136 90.1774 123.119C89.6924 122.992 89.1983 122.849 88.7077 122.695C88.5125 122.634 88.4045 122.427 88.4654 122.232C88.5263 122.037 88.7343 121.929 88.9295 121.989C89.409 122.14 89.8932 122.279 90.3674 122.404C90.5656 122.456 90.6826 122.659 90.6297 122.856C90.5943 122.991 90.4891 123.088 90.3636 123.12ZM130.797 112.089C130.599 112.139 130.397 112.021 130.346 111.823C130.296 111.625 130.415 111.424 130.613 111.373C131.091 111.249 131.576 111.113 132.055 110.969C132.249 110.91 132.457 111.02 132.516 111.216C132.575 111.412 132.465 111.618 132.269 111.677C131.78 111.824 131.285 111.964 130.797 112.089ZM127.089 112.831C127.076 112.834 127.062 112.836 127.049 112.838C126.75 112.881 126.445 112.919 126.144 112.953C125.939 112.977 125.733 112.998 125.527 113.016C125.323 113.035 125.143 112.884 125.125 112.682C125.106 112.478 125.257 112.298 125.461 112.28C125.661 112.262 125.861 112.241 126.062 112.219C126.357 112.186 126.653 112.149 126.946 112.107C127.148 112.078 127.335 112.22 127.364 112.421C127.39 112.61 127.27 112.784 127.089 112.831ZM112.931 116.391C112.816 116.421 112.69 116.395 112.595 116.311C112.441 116.176 112.426 115.942 112.561 115.789C112.886 115.42 113.208 115.035 113.518 114.643C113.645 114.482 113.877 114.454 114.038 114.58C114.199 114.707 114.227 114.939 114.1 115.1C113.782 115.502 113.452 115.898 113.119 116.277C113.067 116.335 113.002 116.373 112.931 116.391ZM135.818 110.415C135.641 110.461 135.454 110.37 135.383 110.197C135.307 110.008 135.398 109.793 135.587 109.715C136.043 109.53 136.507 109.332 136.968 109.127C137.156 109.045 137.374 109.127 137.457 109.315C137.541 109.501 137.456 109.719 137.27 109.803C136.801 110.012 136.329 110.213 135.866 110.4C135.85 110.406 135.834 110.411 135.818 110.415ZM22.5769 139.394C22.5243 139.407 22.4687 139.409 22.4123 139.398C22.2121 139.357 22.0821 139.163 22.1223 138.962C22.2228 138.465 22.3318 137.965 22.4446 137.476C22.4905 137.277 22.6892 137.152 22.8885 137.199C23.0875 137.245 23.2122 137.443 23.1651 137.642C23.0531 138.125 22.9463 138.617 22.8478 139.108C22.8183 139.252 22.7097 139.36 22.5769 139.394ZM121.805 113.109C121.771 113.118 121.735 113.122 121.699 113.121C121.193 113.102 120.678 113.072 120.171 113.027C119.967 113.01 119.816 112.831 119.834 112.628C119.852 112.425 120.031 112.274 120.234 112.291C120.729 112.334 121.232 112.365 121.727 112.382C121.931 112.389 122.091 112.561 122.083 112.765C122.077 112.932 121.96 113.07 121.805 113.109ZM140.607 108.156C140.446 108.198 140.27 108.126 140.189 107.972C140.093 107.792 140.161 107.569 140.341 107.472C140.773 107.241 141.216 106.998 141.659 106.747C141.837 106.647 142.063 106.708 142.164 106.886C142.264 107.064 142.202 107.29 142.024 107.39C141.575 107.644 141.126 107.891 140.689 108.124C140.664 108.138 140.636 108.149 140.607 108.156ZM85.3615 121.397C85.2861 121.416 85.2035 121.412 85.1264 121.38C84.6683 121.188 84.1987 120.982 83.7296 120.768C83.5436 120.683 83.4618 120.464 83.5467 120.278C83.6316 120.092 83.8515 120.01 84.0376 120.095C84.4994 120.306 84.9615 120.508 85.4127 120.697C85.6011 120.776 85.6897 120.993 85.6105 121.181C85.5642 121.293 85.4703 121.369 85.3615 121.397ZM145.175 105.476C145.024 105.514 144.859 105.455 144.771 105.316C144.662 105.143 144.712 104.916 144.885 104.806C145.297 104.544 145.722 104.269 146.149 103.986C146.32 103.874 146.55 103.92 146.662 104.09C146.775 104.26 146.728 104.489 146.558 104.603C146.128 104.887 145.698 105.165 145.283 105.429C145.249 105.451 145.212 105.466 145.175 105.476ZM116.555 112.463C116.501 112.476 116.444 112.478 116.386 112.466C115.889 112.361 115.387 112.243 114.897 112.113C114.698 112.061 114.581 111.86 114.633 111.662C114.686 111.464 114.887 111.346 115.085 111.399C115.274 111.448 115.465 111.496 115.655 111.543C115.904 111.127 116.146 110.701 116.376 110.273C116.472 110.093 116.697 110.025 116.877 110.122C117.057 110.218 117.125 110.442 117.028 110.622C116.832 110.989 116.625 111.356 116.413 111.716C116.455 111.725 116.498 111.733 116.54 111.743C116.741 111.786 116.867 111.982 116.825 112.181C116.794 112.324 116.686 112.429 116.555 112.463ZM149.563 102.51C149.418 102.547 149.261 102.494 149.169 102.367C149.05 102.2 149.089 101.97 149.256 101.851C149.667 101.559 150.076 101.264 150.482 100.97C150.647 100.848 150.878 100.886 150.999 101.051C151.119 101.216 151.083 101.446 150.918 101.567C150.51 101.864 150.099 102.16 149.686 102.454C149.648 102.479 149.606 102.499 149.563 102.51ZM23.887 134.274C23.8224 134.291 23.7536 134.29 23.6843 134.269C23.4891 134.208 23.3811 134.001 23.442 133.806C23.595 133.319 23.7561 132.834 23.9229 132.361C23.9907 132.168 24.2018 132.067 24.395 132.135C24.5881 132.202 24.6892 132.413 24.6214 132.606C24.4579 133.071 24.2988 133.549 24.1488 134.028C24.1097 134.153 24.0078 134.243 23.887 134.274ZM80.5909 119.107C80.5049 119.129 80.4096 119.12 80.3253 119.074C79.9005 118.849 79.4639 118.612 78.9911 118.353C78.8118 118.255 78.7465 118.031 78.8458 117.851C78.9439 117.672 79.1693 117.607 79.3488 117.706C79.819 117.964 80.2522 118.198 80.6743 118.423C80.8544 118.519 80.923 118.742 80.8267 118.923C80.7746 119.018 80.6878 119.082 80.5909 119.107ZM111.491 110.935C111.418 110.954 111.338 110.95 111.261 110.92C110.789 110.733 110.315 110.531 109.853 110.32C109.667 110.235 109.586 110.016 109.67 109.83C109.755 109.644 109.975 109.563 110.161 109.647C110.613 109.853 111.075 110.05 111.536 110.233C111.726 110.309 111.818 110.523 111.743 110.713C111.697 110.828 111.602 110.907 111.491 110.935ZM153.828 99.3705C153.688 99.4063 153.533 99.3583 153.441 99.2358C153.317 99.0729 153.35 98.8408 153.513 98.7175C153.914 98.4138 154.316 98.11 154.716 97.8039C154.879 97.6794 155.111 97.7102 155.236 97.8716C155.36 98.0331 155.329 98.266 155.167 98.3902C154.767 98.6975 154.364 99.0031 153.961 99.3072C153.919 99.337 153.875 99.3585 153.828 99.3705ZM118.38 107.38C118.307 107.399 118.229 107.396 118.152 107.366C117.962 107.291 117.869 107.076 117.944 106.887C118.126 106.428 118.299 105.956 118.461 105.485C118.528 105.292 118.738 105.189 118.931 105.255C119.124 105.321 119.228 105.531 119.161 105.724C118.995 106.206 118.817 106.688 118.632 107.158C118.588 107.272 118.491 107.352 118.38 107.38ZM158.019 96.1332C157.881 96.1685 157.73 96.1234 157.637 96.0048C157.511 95.8452 157.537 95.612 157.698 95.4857C158.093 95.1733 158.486 94.8601 158.88 94.5456C159.04 94.4182 159.273 94.4435 159.4 94.6029C159.528 94.7622 159.502 94.9951 159.342 95.1226C158.948 95.4385 158.553 95.7521 158.156 96.0651C158.115 96.0985 158.068 96.1207 158.019 96.1332ZM75.9635 116.539C75.8738 116.562 75.7756 116.552 75.6891 116.503C75.2507 116.254 74.8126 116.006 74.3733 115.759C74.1947 115.659 74.1318 115.433 74.2329 115.256C74.3337 115.077 74.5599 115.016 74.7371 115.115C75.1764 115.362 75.616 115.611 76.0544 115.86C76.2318 115.96 76.2947 116.186 76.1936 116.363C76.1417 116.454 76.058 116.515 75.9635 116.539ZM25.7686 129.336C25.6897 129.356 25.604 129.35 25.5236 129.315C25.3376 129.23 25.2547 129.011 25.3396 128.825C25.5499 128.363 25.7712 127.9 25.9972 127.449C26.0893 127.266 26.311 127.192 26.4938 127.283C26.6763 127.374 26.7511 127.596 26.659 127.779C26.4372 128.221 26.22 128.676 26.0138 129.129C25.9662 129.237 25.8738 129.309 25.7686 129.336ZM106.767 108.563C106.672 108.587 106.569 108.574 106.48 108.519C106.046 108.252 105.615 107.969 105.199 107.682C105.032 107.566 104.989 107.335 105.105 107.168C105.222 107.001 105.453 106.958 105.62 107.074C106.026 107.355 106.447 107.63 106.869 107.891C107.043 107.997 107.097 108.225 106.99 108.399C106.936 108.484 106.855 108.54 106.767 108.563ZM162.139 92.8059C162.004 92.8406 161.857 92.797 161.762 92.6841C161.631 92.5268 161.654 92.2933 161.812 92.1638C162.2 91.8431 162.587 91.5212 162.974 91.1984C163.131 91.0665 163.364 91.088 163.495 91.2441C163.625 91.4001 163.605 91.6342 163.449 91.7646C163.062 92.0888 162.673 92.4111 162.284 92.7333C162.239 92.7676 162.19 92.793 162.139 92.8059ZM119.929 102.329C119.874 102.343 119.816 102.345 119.757 102.331C119.557 102.287 119.431 102.09 119.476 101.891C119.583 101.407 119.683 100.915 119.769 100.426C119.804 100.225 119.997 100.09 120.198 100.126C120.4 100.161 120.534 100.353 120.498 100.554C120.409 101.054 120.308 101.558 120.197 102.052C120.168 102.191 120.06 102.296 119.929 102.329ZM71.3307 113.981C71.2446 114.003 71.1506 113.994 71.0665 113.949C70.6084 113.708 70.1581 113.477 69.7271 113.262C69.5443 113.171 69.4709 112.949 69.5618 112.767C69.6539 112.584 69.8759 112.511 70.0584 112.601C70.4925 112.818 70.9484 113.051 71.4111 113.295C71.5921 113.39 71.661 113.614 71.5659 113.794C71.5155 113.891 71.4275 113.956 71.3307 113.981ZM166.185 89.3898C166.053 89.4235 165.908 89.3832 165.812 89.2741C165.679 89.1202 165.697 88.8867 165.851 88.7531C166.232 88.4241 166.612 88.0938 166.991 87.7627C167.145 87.6279 167.378 87.6431 167.513 87.7967C167.648 87.9503 167.632 88.1835 167.479 88.318C167.099 88.6506 166.717 88.9812 166.334 89.312C166.289 89.3502 166.239 89.376 166.185 89.3898ZM28.2792 124.684C28.1835 124.709 28.0781 124.695 27.9886 124.639C27.8153 124.53 27.7643 124.301 27.8744 124.129C28.1478 123.7 28.4319 123.272 28.7209 122.858C28.8373 122.691 29.0688 122.65 29.2362 122.766C29.4035 122.882 29.4449 123.113 29.3285 123.28C29.046 123.684 28.7675 124.104 28.4995 124.525C28.4467 124.607 28.3677 124.662 28.2792 124.684ZM102.546 105.385C102.429 105.415 102.299 105.387 102.204 105.3C101.827 104.955 101.456 104.598 101.102 104.236C100.959 104.089 100.961 103.856 101.108 103.713C101.254 103.57 101.489 103.573 101.632 103.718C101.977 104.07 102.338 104.419 102.704 104.753C102.855 104.891 102.865 105.125 102.727 105.275C102.676 105.331 102.613 105.368 102.546 105.385ZM170.156 85.8871C170.027 85.9202 169.885 85.8829 169.789 85.7766C169.652 85.6248 169.663 85.3916 169.815 85.2547C170.189 84.9173 170.562 84.5788 170.934 84.2393C171.086 84.1012 171.319 84.1126 171.457 84.2629C171.595 84.4132 171.585 84.6472 171.433 84.7853C171.061 85.1262 170.686 85.4651 170.311 85.8028C170.265 85.8452 170.212 85.8727 170.156 85.8871ZM66.5489 111.716C66.4736 111.735 66.3922 111.73 66.3154 111.699C65.8464 111.505 65.3764 111.322 64.9201 111.153C64.7288 111.082 64.6309 110.87 64.7029 110.678C64.7737 110.487 64.9869 110.389 65.1786 110.461C65.6432 110.633 66.1208 110.821 66.5993 111.017C66.7886 111.095 66.8775 111.312 66.7995 111.5C66.7525 111.61 66.6577 111.688 66.5489 111.716ZM31.4437 120.451C31.3289 120.481 31.2025 120.455 31.1074 120.372C30.9531 120.238 30.9381 120.005 31.0731 119.851C31.4096 119.468 31.7572 119.089 32.1072 118.725C32.2492 118.578 32.4835 118.572 32.6307 118.714C32.7778 118.856 32.783 119.089 32.641 119.236C32.299 119.592 31.958 119.962 31.6299 120.337C31.5796 120.395 31.5143 120.433 31.4437 120.451ZM120.682 97.0991C120.645 97.1086 120.606 97.1125 120.565 97.11C120.362 97.0961 120.207 96.9208 120.221 96.7164C120.255 96.2219 120.278 95.7201 120.29 95.2238C120.295 95.0203 120.464 94.8587 120.669 94.8634C120.873 94.8683 121.035 95.0379 121.029 95.2414C121.017 95.7482 120.994 96.2614 120.959 96.7663C120.95 96.9289 120.834 97.0602 120.682 97.0991ZM174.049 82.2989C173.922 82.3314 173.783 82.2959 173.687 82.1946C173.547 82.0461 173.553 81.8118 173.702 81.6719C174.069 81.3262 174.434 80.9809 174.798 80.6331C174.945 80.4912 175.18 80.4971 175.321 80.6453C175.462 80.7935 175.457 81.0263 175.308 81.1674C174.943 81.5154 174.577 81.8635 174.21 82.2095C174.164 82.2543 174.108 82.2839 174.049 82.2989ZM99.0161 101.458C98.8738 101.494 98.717 101.444 98.6247 101.318C98.3231 100.907 98.0311 100.483 97.7548 100.057C97.6435 99.8857 97.6931 99.6568 97.8646 99.5454C98.0373 99.4338 98.2654 99.4834 98.3768 99.6545C98.646 100.069 98.9303 100.482 99.2237 100.881C99.3449 101.045 99.3088 101.277 99.1433 101.397C99.1037 101.426 99.0604 101.446 99.0161 101.458ZM61.5163 110.098C61.4625 110.111 61.4056 110.113 61.3478 110.101C60.8683 110.001 60.3739 109.911 59.8796 109.837C59.6767 109.806 59.538 109.618 59.5692 109.417C59.6005 109.215 59.7889 109.076 59.9905 109.107C60.4995 109.183 61.0071 109.274 61.5004 109.379C61.7009 109.421 61.8277 109.617 61.7859 109.817C61.7568 109.957 61.649 110.064 61.5163 110.098ZM35.2426 116.774C35.1075 116.809 34.9588 116.765 34.8645 116.651C34.7349 116.494 34.7578 116.26 34.9158 116.131C35.3086 115.809 35.7142 115.492 36.1221 115.189C36.2857 115.067 36.5188 115.102 36.6397 115.265C36.7607 115.429 36.7272 115.661 36.5632 115.782C36.1649 116.077 35.7691 116.387 35.3847 116.702C35.3427 116.737 35.294 116.761 35.2426 116.774ZM177.863 78.6267C177.74 78.6583 177.603 78.626 177.508 78.5283C177.365 78.3831 177.366 78.1489 177.512 78.006C177.871 77.6532 178.229 77.2983 178.585 76.9437C178.73 76.7997 178.965 76.7994 179.109 76.9443C179.253 77.0891 179.253 77.3231 179.108 77.4671C178.751 77.8232 178.392 78.1784 178.031 78.5327C177.982 78.5784 177.924 78.6111 177.863 78.6267ZM56.2606 109.513C56.2283 109.522 56.1948 109.525 56.1603 109.525C55.6661 109.516 55.1632 109.517 54.6649 109.532C54.4599 109.537 54.2902 109.378 54.2849 109.173C54.2795 108.968 54.44 108.799 54.645 108.793C55.1547 108.778 55.6701 108.776 56.1761 108.786C56.3808 108.789 56.5428 108.959 56.5388 109.162C56.5353 109.332 56.4172 109.473 56.2606 109.513ZM39.5975 113.775C39.4396 113.815 39.2695 113.748 39.1846 113.601C39.0831 113.423 39.145 113.198 39.3217 113.096C39.7618 112.845 40.2137 112.599 40.668 112.368C40.8495 112.276 41.0729 112.347 41.1667 112.529C41.2593 112.712 41.1874 112.933 41.0051 113.027C40.5624 113.254 40.1192 113.493 39.6901 113.738C39.6611 113.754 39.6297 113.766 39.5975 113.775ZM50.9806 109.853C50.9674 109.857 50.9555 109.86 50.9417 109.861C50.4506 109.933 49.955 110.018 49.467 110.113C49.2667 110.152 49.0714 110.021 49.0329 109.821C48.9944 109.621 49.1259 109.428 49.3257 109.387C49.8244 109.29 50.3322 109.203 50.8344 109.129C51.0369 109.099 51.2245 109.239 51.2546 109.441C51.2826 109.63 51.1611 109.807 50.9806 109.853ZM44.3923 111.537C44.2106 111.584 44.02 111.486 43.9537 111.307C43.8829 111.116 43.9815 110.904 44.1724 110.833C44.6494 110.656 45.1355 110.49 45.6196 110.335C45.8145 110.275 46.0225 110.38 46.0849 110.574C46.1473 110.768 46.0389 110.976 45.8447 111.039C45.3723 111.189 44.8957 111.353 44.43 111.525C44.4171 111.529 44.4043 111.534 44.3923 111.537ZM120.642 91.8171C120.622 91.8223 120.602 91.826 120.581 91.8276C120.378 91.8442 120.199 91.6929 120.181 91.4902C120.14 90.9959 120.088 90.4967 120.026 90.0041C120.001 89.802 120.145 89.6176 120.347 89.5912C120.549 89.566 120.735 89.7091 120.76 89.9112C120.824 90.4137 120.877 90.9252 120.919 91.4295C120.934 91.6114 120.813 91.7732 120.642 91.8171ZM96.3242 96.9165C96.1556 96.9597 95.9744 96.879 95.898 96.7154C95.6821 96.2558 95.4757 95.7835 95.2851 95.3136C95.2086 95.1246 95.3 94.9092 95.4893 94.8327C95.6802 94.7571 95.8944 94.8471 95.9709 95.0361C96.156 95.4947 96.3567 95.9544 96.5668 96.4016C96.6538 96.5866 96.5738 96.8067 96.3884 96.8936C96.3678 96.9027 96.3457 96.9109 96.3242 96.9165ZM119.809 86.6023C119.806 86.6029 119.804 86.6035 119.803 86.6038C119.603 86.6511 119.404 86.5293 119.357 86.3303C119.312 86.142 119.265 85.9532 119.217 85.7659C119.142 85.4723 119.062 85.1762 118.979 84.8848C118.923 84.6879 119.036 84.4834 119.234 84.4278C119.432 84.3679 119.634 84.4853 119.691 84.6818C119.776 84.9791 119.858 85.2813 119.935 85.582C119.984 85.7741 120.032 85.9665 120.078 86.1595C120.124 86.3549 120.004 86.5523 119.809 86.6023ZM94.5408 91.9477C94.3423 91.9986 94.1411 91.8798 94.0903 91.6817C93.9643 91.1901 93.8496 90.688 93.7499 90.1896C93.7099 89.9888 93.8436 89.7943 94.0409 89.7539C94.2409 89.7141 94.4359 89.8434 94.4771 90.0439C94.5747 90.5288 94.686 91.0178 94.8089 91.4975C94.8585 91.6959 94.7393 91.8968 94.5408 91.9477ZM118.192 81.5742C118.017 81.6192 117.829 81.5287 117.758 81.3562C117.569 80.8961 117.368 80.4351 117.161 79.9871C117.075 79.8018 117.157 79.5825 117.342 79.4956C117.527 79.4101 117.747 79.4897 117.835 79.6759C118.046 80.134 118.252 80.6039 118.446 81.0756C118.523 81.2643 118.432 81.4809 118.243 81.5574C118.226 81.5644 118.209 81.5699 118.192 81.5742ZM93.7152 86.7335C93.6924 86.7393 93.6703 86.7424 93.6467 86.7447C93.4423 86.7576 93.2663 86.6031 93.2536 86.3991C93.2214 85.8911 93.2031 85.377 93.1979 84.8696C93.1965 84.6653 93.3599 84.4975 93.5646 84.4959C93.7694 84.4943 93.9361 84.6575 93.9387 84.8616C93.9429 85.3552 93.9618 85.8564 93.993 86.3507C94.0038 86.5323 93.8837 86.6902 93.7152 86.7335ZM115.807 76.8615C115.654 76.9007 115.486 76.8381 115.399 76.6965C115.139 76.2724 114.866 75.8502 114.589 75.4417C114.475 75.2727 114.519 75.0427 114.688 74.928C114.858 74.8134 115.088 74.8573 115.203 75.0263C115.487 75.4431 115.766 75.8751 116.031 76.3106C116.138 76.4841 116.083 76.7118 115.908 76.819C115.876 76.8386 115.842 76.8526 115.807 76.8615ZM93.8842 81.4575C93.8399 81.4688 93.7924 81.4721 93.745 81.4665C93.5423 81.4409 93.3991 81.2551 93.4249 81.0526C93.4904 80.5475 93.5702 80.0388 93.6642 79.5404C93.702 79.34 93.8949 79.2078 94.0966 79.2439C94.2974 79.2814 94.4295 79.4739 94.3932 79.6752C94.3022 80.1601 94.2241 80.6558 94.16 81.1465C94.1396 81.3005 94.0277 81.4207 93.8842 81.4575ZM112.661 72.621C112.533 72.6538 112.392 72.6174 112.297 72.5146C111.955 72.1457 111.602 71.7924 111.249 71.4672C111.099 71.329 111.088 71.0951 111.227 70.9451C111.366 70.7951 111.6 70.7846 111.75 70.9229C112.119 71.262 112.485 71.6284 112.841 72.0115C112.98 72.1615 112.97 72.3955 112.821 72.5342C112.773 72.5782 112.718 72.6063 112.661 72.621ZM95.1008 76.3212C95.0302 76.3393 94.9545 76.3371 94.8801 76.3104C94.6887 76.2399 94.5909 76.0272 94.6617 75.8361C94.8419 75.3512 95.0429 74.8725 95.258 74.4142C95.3444 74.2293 95.5649 74.1499 95.75 74.236C95.9352 74.322 96.0145 74.542 95.9281 74.7269C95.721 75.1666 95.528 75.6268 95.3555 76.0919C95.313 76.2096 95.2156 76.2918 95.1008 76.3212ZM108.523 69.3646C108.438 69.3863 108.346 69.3783 108.261 69.3352C107.817 69.1068 107.368 68.9131 106.923 68.76C106.73 68.6937 106.627 68.4837 106.694 68.2897C106.761 68.0971 106.971 67.9936 107.166 68.0607C107.644 68.2256 108.128 68.4334 108.604 68.6789C108.785 68.7722 108.856 68.9958 108.762 69.1775C108.71 69.2734 108.621 69.3394 108.523 69.3646ZM97.688 71.73C97.5768 71.7586 97.4549 71.7351 97.3595 71.6566C97.2026 71.5264 97.1797 71.2932 97.3115 71.1361C97.6523 70.7257 98.0121 70.3449 98.3829 70.0018C98.5333 69.8628 98.7675 69.8715 98.9066 70.0215C99.0457 70.1715 99.0368 70.4052 98.8864 70.5442C98.5391 70.8646 98.2016 71.2233 97.8822 71.6078C97.8296 71.6709 97.761 71.7113 97.688 71.73ZM103.411 68.3557C103.395 68.3596 103.381 68.3621 103.365 68.3649C103.329 68.369 103.295 68.374 103.259 68.3793C102.819 68.4413 102.382 68.5431 101.962 68.6826C101.766 68.7454 101.559 68.6422 101.494 68.4478C101.43 68.2543 101.535 68.0456 101.73 67.9805C102.192 67.8275 102.673 67.7144 103.156 67.6465C103.196 67.6414 103.234 67.6355 103.273 67.6305C103.476 67.6053 103.662 67.7484 103.687 67.9505C103.709 68.138 103.589 68.31 103.411 68.3557Z"/>
</mask>
<path d="M21.8093 144.243C21.7662 144.254 21.7214 144.258 21.6752 144.252C21.4719 144.229 21.3266 144.045 21.3497 143.842C21.3931 143.465 21.442 143.084 21.4923 142.708C21.5193 142.505 21.7062 142.365 21.909 142.39C22.1121 142.417 22.2541 142.603 22.2271 142.806C22.1767 143.176 22.1294 143.553 22.0859 143.926C22.068 144.084 21.954 144.206 21.8093 144.243ZM100.852 123.69C100.844 123.692 100.837 123.694 100.829 123.695C100.33 123.791 99.8166 123.868 99.3039 123.926C99.1007 123.948 98.9179 123.802 98.8953 123.599C98.8726 123.397 99.0183 123.214 99.2226 123.191C99.7156 123.136 100.21 123.061 100.69 122.969C100.89 122.93 101.084 123.062 101.123 123.262C101.16 123.456 101.039 123.642 100.852 123.69ZM104.471 122.609C104.295 122.654 104.108 122.564 104.037 122.392C103.959 122.203 104.049 121.987 104.238 121.909C104.69 121.723 105.144 121.516 105.588 121.292C105.771 121.201 105.993 121.274 106.084 121.456C106.176 121.639 106.103 121.861 105.92 121.952C105.459 122.184 104.988 122.4 104.518 122.593C104.504 122.599 104.488 122.604 104.471 122.609ZM95.5784 123.997C95.5413 124.006 95.5027 124.01 95.4626 124.007C94.9598 123.975 94.445 123.925 93.934 123.86C93.7312 123.835 93.588 123.649 93.6138 123.446C93.6396 123.244 93.8247 123.101 94.0287 123.126C94.5254 123.19 95.0243 123.237 95.5115 123.269C95.7152 123.283 95.8697 123.458 95.8567 123.661C95.8453 123.825 95.729 123.958 95.5784 123.997ZM109.057 119.987C108.916 120.024 108.76 119.974 108.669 119.85C108.546 119.687 108.58 119.455 108.744 119.333C109.136 119.04 109.529 118.727 109.909 118.405C110.065 118.273 110.299 118.291 110.43 118.446C110.563 118.602 110.544 118.836 110.388 118.967C109.997 119.3 109.593 119.622 109.186 119.925C109.147 119.955 109.102 119.976 109.057 119.987ZM90.3636 123.12C90.3038 123.135 90.2403 123.136 90.1774 123.119C89.6924 122.992 89.1983 122.849 88.7077 122.695C88.5125 122.634 88.4045 122.427 88.4654 122.232C88.5263 122.037 88.7343 121.929 88.9295 121.989C89.409 122.14 89.8932 122.279 90.3674 122.404C90.5656 122.456 90.6826 122.659 90.6297 122.856C90.5943 122.991 90.4891 123.088 90.3636 123.12ZM130.797 112.089C130.599 112.139 130.397 112.021 130.346 111.823C130.296 111.625 130.415 111.424 130.613 111.373C131.091 111.249 131.576 111.113 132.055 110.969C132.249 110.91 132.457 111.02 132.516 111.216C132.575 111.412 132.465 111.618 132.269 111.677C131.78 111.824 131.285 111.964 130.797 112.089ZM127.089 112.831C127.076 112.834 127.062 112.836 127.049 112.838C126.75 112.881 126.445 112.919 126.144 112.953C125.939 112.977 125.733 112.998 125.527 113.016C125.323 113.035 125.143 112.884 125.125 112.682C125.106 112.478 125.257 112.298 125.461 112.28C125.661 112.262 125.861 112.241 126.062 112.219C126.357 112.186 126.653 112.149 126.946 112.107C127.148 112.078 127.335 112.22 127.364 112.421C127.39 112.61 127.27 112.784 127.089 112.831ZM112.931 116.391C112.816 116.421 112.69 116.395 112.595 116.311C112.441 116.176 112.426 115.942 112.561 115.789C112.886 115.42 113.208 115.035 113.518 114.643C113.645 114.482 113.877 114.454 114.038 114.58C114.199 114.707 114.227 114.939 114.1 115.1C113.782 115.502 113.452 115.898 113.119 116.277C113.067 116.335 113.002 116.373 112.931 116.391ZM135.818 110.415C135.641 110.461 135.454 110.37 135.383 110.197C135.307 110.008 135.398 109.793 135.587 109.715C136.043 109.53 136.507 109.332 136.968 109.127C137.156 109.045 137.374 109.127 137.457 109.315C137.541 109.501 137.456 109.719 137.27 109.803C136.801 110.012 136.329 110.213 135.866 110.4C135.85 110.406 135.834 110.411 135.818 110.415ZM22.5769 139.394C22.5243 139.407 22.4687 139.409 22.4123 139.398C22.2121 139.357 22.0821 139.163 22.1223 138.962C22.2228 138.465 22.3318 137.965 22.4446 137.476C22.4905 137.277 22.6892 137.152 22.8885 137.199C23.0875 137.245 23.2122 137.443 23.1651 137.642C23.0531 138.125 22.9463 138.617 22.8478 139.108C22.8183 139.252 22.7097 139.36 22.5769 139.394ZM121.805 113.109C121.771 113.118 121.735 113.122 121.699 113.121C121.193 113.102 120.678 113.072 120.171 113.027C119.967 113.01 119.816 112.831 119.834 112.628C119.852 112.425 120.031 112.274 120.234 112.291C120.729 112.334 121.232 112.365 121.727 112.382C121.931 112.389 122.091 112.561 122.083 112.765C122.077 112.932 121.96 113.07 121.805 113.109ZM140.607 108.156C140.446 108.198 140.27 108.126 140.189 107.972C140.093 107.792 140.161 107.569 140.341 107.472C140.773 107.241 141.216 106.998 141.659 106.747C141.837 106.647 142.063 106.708 142.164 106.886C142.264 107.064 142.202 107.29 142.024 107.39C141.575 107.644 141.126 107.891 140.689 108.124C140.664 108.138 140.636 108.149 140.607 108.156ZM85.3615 121.397C85.2861 121.416 85.2035 121.412 85.1264 121.38C84.6683 121.188 84.1987 120.982 83.7296 120.768C83.5436 120.683 83.4618 120.464 83.5467 120.278C83.6316 120.092 83.8515 120.01 84.0376 120.095C84.4994 120.306 84.9615 120.508 85.4127 120.697C85.6011 120.776 85.6897 120.993 85.6105 121.181C85.5642 121.293 85.4703 121.369 85.3615 121.397ZM145.175 105.476C145.024 105.514 144.859 105.455 144.771 105.316C144.662 105.143 144.712 104.916 144.885 104.806C145.297 104.544 145.722 104.269 146.149 103.986C146.32 103.874 146.55 103.92 146.662 104.09C146.775 104.26 146.728 104.489 146.558 104.603C146.128 104.887 145.698 105.165 145.283 105.429C145.249 105.451 145.212 105.466 145.175 105.476ZM116.555 112.463C116.501 112.476 116.444 112.478 116.386 112.466C115.889 112.361 115.387 112.243 114.897 112.113C114.698 112.061 114.581 111.86 114.633 111.662C114.686 111.464 114.887 111.346 115.085 111.399C115.274 111.448 115.465 111.496 115.655 111.543C115.904 111.127 116.146 110.701 116.376 110.273C116.472 110.093 116.697 110.025 116.877 110.122C117.057 110.218 117.125 110.442 117.028 110.622C116.832 110.989 116.625 111.356 116.413 111.716C116.455 111.725 116.498 111.733 116.54 111.743C116.741 111.786 116.867 111.982 116.825 112.181C116.794 112.324 116.686 112.429 116.555 112.463ZM149.563 102.51C149.418 102.547 149.261 102.494 149.169 102.367C149.05 102.2 149.089 101.97 149.256 101.851C149.667 101.559 150.076 101.264 150.482 100.97C150.647 100.848 150.878 100.886 150.999 101.051C151.119 101.216 151.083 101.446 150.918 101.567C150.51 101.864 150.099 102.16 149.686 102.454C149.648 102.479 149.606 102.499 149.563 102.51ZM23.887 134.274C23.8224 134.291 23.7536 134.29 23.6843 134.269C23.4891 134.208 23.3811 134.001 23.442 133.806C23.595 133.319 23.7561 132.834 23.9229 132.361C23.9907 132.168 24.2018 132.067 24.395 132.135C24.5881 132.202 24.6892 132.413 24.6214 132.606C24.4579 133.071 24.2988 133.549 24.1488 134.028C24.1097 134.153 24.0078 134.243 23.887 134.274ZM80.5909 119.107C80.5049 119.129 80.4096 119.12 80.3253 119.074C79.9005 118.849 79.4639 118.612 78.9911 118.353C78.8118 118.255 78.7465 118.031 78.8458 117.851C78.9439 117.672 79.1693 117.607 79.3488 117.706C79.819 117.964 80.2522 118.198 80.6743 118.423C80.8544 118.519 80.923 118.742 80.8267 118.923C80.7746 119.018 80.6878 119.082 80.5909 119.107ZM111.491 110.935C111.418 110.954 111.338 110.95 111.261 110.92C110.789 110.733 110.315 110.531 109.853 110.32C109.667 110.235 109.586 110.016 109.67 109.83C109.755 109.644 109.975 109.563 110.161 109.647C110.613 109.853 111.075 110.05 111.536 110.233C111.726 110.309 111.818 110.523 111.743 110.713C111.697 110.828 111.602 110.907 111.491 110.935ZM153.828 99.3705C153.688 99.4063 153.533 99.3583 153.441 99.2358C153.317 99.0729 153.35 98.8408 153.513 98.7175C153.914 98.4138 154.316 98.11 154.716 97.8039C154.879 97.6794 155.111 97.7102 155.236 97.8716C155.36 98.0331 155.329 98.266 155.167 98.3902C154.767 98.6975 154.364 99.0031 153.961 99.3072C153.919 99.337 153.875 99.3585 153.828 99.3705ZM118.38 107.38C118.307 107.399 118.229 107.396 118.152 107.366C117.962 107.291 117.869 107.076 117.944 106.887C118.126 106.428 118.299 105.956 118.461 105.485C118.528 105.292 118.738 105.189 118.931 105.255C119.124 105.321 119.228 105.531 119.161 105.724C118.995 106.206 118.817 106.688 118.632 107.158C118.588 107.272 118.491 107.352 118.38 107.38ZM158.019 96.1332C157.881 96.1685 157.73 96.1234 157.637 96.0048C157.511 95.8452 157.537 95.612 157.698 95.4857C158.093 95.1733 158.486 94.8601 158.88 94.5456C159.04 94.4182 159.273 94.4435 159.4 94.6029C159.528 94.7622 159.502 94.9951 159.342 95.1226C158.948 95.4385 158.553 95.7521 158.156 96.0651C158.115 96.0985 158.068 96.1207 158.019 96.1332ZM75.9635 116.539C75.8738 116.562 75.7756 116.552 75.6891 116.503C75.2507 116.254 74.8126 116.006 74.3733 115.759C74.1947 115.659 74.1318 115.433 74.2329 115.256C74.3337 115.077 74.5599 115.016 74.7371 115.115C75.1764 115.362 75.616 115.611 76.0544 115.86C76.2318 115.96 76.2947 116.186 76.1936 116.363C76.1417 116.454 76.058 116.515 75.9635 116.539ZM25.7686 129.336C25.6897 129.356 25.604 129.35 25.5236 129.315C25.3376 129.23 25.2547 129.011 25.3396 128.825C25.5499 128.363 25.7712 127.9 25.9972 127.449C26.0893 127.266 26.311 127.192 26.4938 127.283C26.6763 127.374 26.7511 127.596 26.659 127.779C26.4372 128.221 26.22 128.676 26.0138 129.129C25.9662 129.237 25.8738 129.309 25.7686 129.336ZM106.767 108.563C106.672 108.587 106.569 108.574 106.48 108.519C106.046 108.252 105.615 107.969 105.199 107.682C105.032 107.566 104.989 107.335 105.105 107.168C105.222 107.001 105.453 106.958 105.62 107.074C106.026 107.355 106.447 107.63 106.869 107.891C107.043 107.997 107.097 108.225 106.99 108.399C106.936 108.484 106.855 108.54 106.767 108.563ZM162.139 92.8059C162.004 92.8406 161.857 92.797 161.762 92.6841C161.631 92.5268 161.654 92.2933 161.812 92.1638C162.2 91.8431 162.587 91.5212 162.974 91.1984C163.131 91.0665 163.364 91.088 163.495 91.2441C163.625 91.4001 163.605 91.6342 163.449 91.7646C163.062 92.0888 162.673 92.4111 162.284 92.7333C162.239 92.7676 162.19 92.793 162.139 92.8059ZM119.929 102.329C119.874 102.343 119.816 102.345 119.757 102.331C119.557 102.287 119.431 102.09 119.476 101.891C119.583 101.407 119.683 100.915 119.769 100.426C119.804 100.225 119.997 100.09 120.198 100.126C120.4 100.161 120.534 100.353 120.498 100.554C120.409 101.054 120.308 101.558 120.197 102.052C120.168 102.191 120.06 102.296 119.929 102.329ZM71.3307 113.981C71.2446 114.003 71.1506 113.994 71.0665 113.949C70.6084 113.708 70.1581 113.477 69.7271 113.262C69.5443 113.171 69.4709 112.949 69.5618 112.767C69.6539 112.584 69.8759 112.511 70.0584 112.601C70.4925 112.818 70.9484 113.051 71.4111 113.295C71.5921 113.39 71.661 113.614 71.5659 113.794C71.5155 113.891 71.4275 113.956 71.3307 113.981ZM166.185 89.3898C166.053 89.4235 165.908 89.3832 165.812 89.2741C165.679 89.1202 165.697 88.8867 165.851 88.7531C166.232 88.4241 166.612 88.0938 166.991 87.7627C167.145 87.6279 167.378 87.6431 167.513 87.7967C167.648 87.9503 167.632 88.1835 167.479 88.318C167.099 88.6506 166.717 88.9812 166.334 89.312C166.289 89.3502 166.239 89.376 166.185 89.3898ZM28.2792 124.684C28.1835 124.709 28.0781 124.695 27.9886 124.639C27.8153 124.53 27.7643 124.301 27.8744 124.129C28.1478 123.7 28.4319 123.272 28.7209 122.858C28.8373 122.691 29.0688 122.65 29.2362 122.766C29.4035 122.882 29.4449 123.113 29.3285 123.28C29.046 123.684 28.7675 124.104 28.4995 124.525C28.4467 124.607 28.3677 124.662 28.2792 124.684ZM102.546 105.385C102.429 105.415 102.299 105.387 102.204 105.3C101.827 104.955 101.456 104.598 101.102 104.236C100.959 104.089 100.961 103.856 101.108 103.713C101.254 103.57 101.489 103.573 101.632 103.718C101.977 104.07 102.338 104.419 102.704 104.753C102.855 104.891 102.865 105.125 102.727 105.275C102.676 105.331 102.613 105.368 102.546 105.385ZM170.156 85.8871C170.027 85.9202 169.885 85.8829 169.789 85.7766C169.652 85.6248 169.663 85.3916 169.815 85.2547C170.189 84.9173 170.562 84.5788 170.934 84.2393C171.086 84.1012 171.319 84.1126 171.457 84.2629C171.595 84.4132 171.585 84.6472 171.433 84.7853C171.061 85.1262 170.686 85.4651 170.311 85.8028C170.265 85.8452 170.212 85.8727 170.156 85.8871ZM66.5489 111.716C66.4736 111.735 66.3922 111.73 66.3154 111.699C65.8464 111.505 65.3764 111.322 64.9201 111.153C64.7288 111.082 64.6309 110.87 64.7029 110.678C64.7737 110.487 64.9869 110.389 65.1786 110.461C65.6432 110.633 66.1208 110.821 66.5993 111.017C66.7886 111.095 66.8775 111.312 66.7995 111.5C66.7525 111.61 66.6577 111.688 66.5489 111.716ZM31.4437 120.451C31.3289 120.481 31.2025 120.455 31.1074 120.372C30.9531 120.238 30.9381 120.005 31.0731 119.851C31.4096 119.468 31.7572 119.089 32.1072 118.725C32.2492 118.578 32.4835 118.572 32.6307 118.714C32.7778 118.856 32.783 119.089 32.641 119.236C32.299 119.592 31.958 119.962 31.6299 120.337C31.5796 120.395 31.5143 120.433 31.4437 120.451ZM120.682 97.0991C120.645 97.1086 120.606 97.1125 120.565 97.11C120.362 97.0961 120.207 96.9208 120.221 96.7164C120.255 96.2219 120.278 95.7201 120.29 95.2238C120.295 95.0203 120.464 94.8587 120.669 94.8634C120.873 94.8683 121.035 95.0379 121.029 95.2414C121.017 95.7482 120.994 96.2614 120.959 96.7663C120.95 96.9289 120.834 97.0602 120.682 97.0991ZM174.049 82.2989C173.922 82.3314 173.783 82.2959 173.687 82.1946C173.547 82.0461 173.553 81.8118 173.702 81.6719C174.069 81.3262 174.434 80.9809 174.798 80.6331C174.945 80.4912 175.18 80.4971 175.321 80.6453C175.462 80.7935 175.457 81.0263 175.308 81.1674C174.943 81.5154 174.577 81.8635 174.21 82.2095C174.164 82.2543 174.108 82.2839 174.049 82.2989ZM99.0161 101.458C98.8738 101.494 98.717 101.444 98.6247 101.318C98.3231 100.907 98.0311 100.483 97.7548 100.057C97.6435 99.8857 97.6931 99.6568 97.8646 99.5454C98.0373 99.4338 98.2654 99.4834 98.3768 99.6545C98.646 100.069 98.9303 100.482 99.2237 100.881C99.3449 101.045 99.3088 101.277 99.1433 101.397C99.1037 101.426 99.0604 101.446 99.0161 101.458ZM61.5163 110.098C61.4625 110.111 61.4056 110.113 61.3478 110.101C60.8683 110.001 60.3739 109.911 59.8796 109.837C59.6767 109.806 59.538 109.618 59.5692 109.417C59.6005 109.215 59.7889 109.076 59.9905 109.107C60.4995 109.183 61.0071 109.274 61.5004 109.379C61.7009 109.421 61.8277 109.617 61.7859 109.817C61.7568 109.957 61.649 110.064 61.5163 110.098ZM35.2426 116.774C35.1075 116.809 34.9588 116.765 34.8645 116.651C34.7349 116.494 34.7578 116.26 34.9158 116.131C35.3086 115.809 35.7142 115.492 36.1221 115.189C36.2857 115.067 36.5188 115.102 36.6397 115.265C36.7607 115.429 36.7272 115.661 36.5632 115.782C36.1649 116.077 35.7691 116.387 35.3847 116.702C35.3427 116.737 35.294 116.761 35.2426 116.774ZM177.863 78.6267C177.74 78.6583 177.603 78.626 177.508 78.5283C177.365 78.3831 177.366 78.1489 177.512 78.006C177.871 77.6532 178.229 77.2983 178.585 76.9437C178.73 76.7997 178.965 76.7994 179.109 76.9443C179.253 77.0891 179.253 77.3231 179.108 77.4671C178.751 77.8232 178.392 78.1784 178.031 78.5327C177.982 78.5784 177.924 78.6111 177.863 78.6267ZM56.2606 109.513C56.2283 109.522 56.1948 109.525 56.1603 109.525C55.6661 109.516 55.1632 109.517 54.6649 109.532C54.4599 109.537 54.2902 109.378 54.2849 109.173C54.2795 108.968 54.44 108.799 54.645 108.793C55.1547 108.778 55.6701 108.776 56.1761 108.786C56.3808 108.789 56.5428 108.959 56.5388 109.162C56.5353 109.332 56.4172 109.473 56.2606 109.513ZM39.5975 113.775C39.4396 113.815 39.2695 113.748 39.1846 113.601C39.0831 113.423 39.145 113.198 39.3217 113.096C39.7618 112.845 40.2137 112.599 40.668 112.368C40.8495 112.276 41.0729 112.347 41.1667 112.529C41.2593 112.712 41.1874 112.933 41.0051 113.027C40.5624 113.254 40.1192 113.493 39.6901 113.738C39.6611 113.754 39.6297 113.766 39.5975 113.775ZM50.9806 109.853C50.9674 109.857 50.9555 109.86 50.9417 109.861C50.4506 109.933 49.955 110.018 49.467 110.113C49.2667 110.152 49.0714 110.021 49.0329 109.821C48.9944 109.621 49.1259 109.428 49.3257 109.387C49.8244 109.29 50.3322 109.203 50.8344 109.129C51.0369 109.099 51.2245 109.239 51.2546 109.441C51.2826 109.63 51.1611 109.807 50.9806 109.853ZM44.3923 111.537C44.2106 111.584 44.02 111.486 43.9537 111.307C43.8829 111.116 43.9815 110.904 44.1724 110.833C44.6494 110.656 45.1355 110.49 45.6196 110.335C45.8145 110.275 46.0225 110.38 46.0849 110.574C46.1473 110.768 46.0389 110.976 45.8447 111.039C45.3723 111.189 44.8957 111.353 44.43 111.525C44.4171 111.529 44.4043 111.534 44.3923 111.537ZM120.642 91.8171C120.622 91.8223 120.602 91.826 120.581 91.8276C120.378 91.8442 120.199 91.6929 120.181 91.4902C120.14 90.9959 120.088 90.4967 120.026 90.0041C120.001 89.802 120.145 89.6176 120.347 89.5912C120.549 89.566 120.735 89.7091 120.76 89.9112C120.824 90.4137 120.877 90.9252 120.919 91.4295C120.934 91.6114 120.813 91.7732 120.642 91.8171ZM96.3242 96.9165C96.1556 96.9597 95.9744 96.879 95.898 96.7154C95.6821 96.2558 95.4757 95.7835 95.2851 95.3136C95.2086 95.1246 95.3 94.9092 95.4893 94.8327C95.6802 94.7571 95.8944 94.8471 95.9709 95.0361C96.156 95.4947 96.3567 95.9544 96.5668 96.4016C96.6538 96.5866 96.5738 96.8067 96.3884 96.8936C96.3678 96.9027 96.3457 96.9109 96.3242 96.9165ZM119.809 86.6023C119.806 86.6029 119.804 86.6035 119.803 86.6038C119.603 86.6511 119.404 86.5293 119.357 86.3303C119.312 86.142 119.265 85.9532 119.217 85.7659C119.142 85.4723 119.062 85.1762 118.979 84.8848C118.923 84.6879 119.036 84.4834 119.234 84.4278C119.432 84.3679 119.634 84.4853 119.691 84.6818C119.776 84.9791 119.858 85.2813 119.935 85.582C119.984 85.7741 120.032 85.9665 120.078 86.1595C120.124 86.3549 120.004 86.5523 119.809 86.6023ZM94.5408 91.9477C94.3423 91.9986 94.1411 91.8798 94.0903 91.6817C93.9643 91.1901 93.8496 90.688 93.7499 90.1896C93.7099 89.9888 93.8436 89.7943 94.0409 89.7539C94.2409 89.7141 94.4359 89.8434 94.4771 90.0439C94.5747 90.5288 94.686 91.0178 94.8089 91.4975C94.8585 91.6959 94.7393 91.8968 94.5408 91.9477ZM118.192 81.5742C118.017 81.6192 117.829 81.5287 117.758 81.3562C117.569 80.8961 117.368 80.4351 117.161 79.9871C117.075 79.8018 117.157 79.5825 117.342 79.4956C117.527 79.4101 117.747 79.4897 117.835 79.6759C118.046 80.134 118.252 80.6039 118.446 81.0756C118.523 81.2643 118.432 81.4809 118.243 81.5574C118.226 81.5644 118.209 81.5699 118.192 81.5742ZM93.7152 86.7335C93.6924 86.7393 93.6703 86.7424 93.6467 86.7447C93.4423 86.7576 93.2663 86.6031 93.2536 86.3991C93.2214 85.8911 93.2031 85.377 93.1979 84.8696C93.1965 84.6653 93.3599 84.4975 93.5646 84.4959C93.7694 84.4943 93.9361 84.6575 93.9387 84.8616C93.9429 85.3552 93.9618 85.8564 93.993 86.3507C94.0038 86.5323 93.8837 86.6902 93.7152 86.7335ZM115.807 76.8615C115.654 76.9007 115.486 76.8381 115.399 76.6965C115.139 76.2724 114.866 75.8502 114.589 75.4417C114.475 75.2727 114.519 75.0427 114.688 74.928C114.858 74.8134 115.088 74.8573 115.203 75.0263C115.487 75.4431 115.766 75.8751 116.031 76.3106C116.138 76.4841 116.083 76.7118 115.908 76.819C115.876 76.8386 115.842 76.8526 115.807 76.8615ZM93.8842 81.4575C93.8399 81.4688 93.7924 81.4721 93.745 81.4665C93.5423 81.4409 93.3991 81.2551 93.4249 81.0526C93.4904 80.5475 93.5702 80.0388 93.6642 79.5404C93.702 79.34 93.8949 79.2078 94.0966 79.2439C94.2974 79.2814 94.4295 79.4739 94.3932 79.6752C94.3022 80.1601 94.2241 80.6558 94.16 81.1465C94.1396 81.3005 94.0277 81.4207 93.8842 81.4575ZM112.661 72.621C112.533 72.6538 112.392 72.6174 112.297 72.5146C111.955 72.1457 111.602 71.7924 111.249 71.4672C111.099 71.329 111.088 71.0951 111.227 70.9451C111.366 70.7951 111.6 70.7846 111.75 70.9229C112.119 71.262 112.485 71.6284 112.841 72.0115C112.98 72.1615 112.97 72.3955 112.821 72.5342C112.773 72.5782 112.718 72.6063 112.661 72.621ZM95.1008 76.3212C95.0302 76.3393 94.9545 76.3371 94.8801 76.3104C94.6887 76.2399 94.5909 76.0272 94.6617 75.8361C94.8419 75.3512 95.0429 74.8725 95.258 74.4142C95.3444 74.2293 95.5649 74.1499 95.75 74.236C95.9352 74.322 96.0145 74.542 95.9281 74.7269C95.721 75.1666 95.528 75.6268 95.3555 76.0919C95.313 76.2096 95.2156 76.2918 95.1008 76.3212ZM108.523 69.3646C108.438 69.3863 108.346 69.3783 108.261 69.3352C107.817 69.1068 107.368 68.9131 106.923 68.76C106.73 68.6937 106.627 68.4837 106.694 68.2897C106.761 68.0971 106.971 67.9936 107.166 68.0607C107.644 68.2256 108.128 68.4334 108.604 68.6789C108.785 68.7722 108.856 68.9958 108.762 69.1775C108.71 69.2734 108.621 69.3394 108.523 69.3646ZM97.688 71.73C97.5768 71.7586 97.4549 71.7351 97.3595 71.6566C97.2026 71.5264 97.1797 71.2932 97.3115 71.1361C97.6523 70.7257 98.0121 70.3449 98.3829 70.0018C98.5333 69.8628 98.7675 69.8715 98.9066 70.0215C99.0457 70.1715 99.0368 70.4052 98.8864 70.5442C98.5391 70.8646 98.2016 71.2233 97.8822 71.6078C97.8296 71.6709 97.761 71.7113 97.688 71.73ZM103.411 68.3557C103.395 68.3596 103.381 68.3621 103.365 68.3649C103.329 68.369 103.295 68.374 103.259 68.3793C102.819 68.4413 102.382 68.5431 101.962 68.6826C101.766 68.7454 101.559 68.6422 101.494 68.4478C101.43 68.2543 101.535 68.0456 101.73 67.9805C102.192 67.8275 102.673 67.7144 103.156 67.6465C103.196 67.6414 103.234 67.6355 103.273 67.6305C103.476 67.6053 103.662 67.7484 103.687 67.9505C103.709 68.138 103.589 68.31 103.411 68.3557Z" fill="#1E3F5F"/>
<path d="M21.8093 144.243C21.7662 144.254 21.7214 144.258 21.6752 144.252C21.4719 144.229 21.3266 144.045 21.3497 143.842C21.3931 143.465 21.442 143.084 21.4923 142.708C21.5193 142.505 21.7062 142.365 21.909 142.39C22.1121 142.417 22.2541 142.603 22.2271 142.806C22.1767 143.176 22.1294 143.553 22.0859 143.926C22.068 144.084 21.954 144.206 21.8093 144.243ZM100.852 123.69C100.844 123.692 100.837 123.694 100.829 123.695C100.33 123.791 99.8166 123.868 99.3039 123.926C99.1007 123.948 98.9179 123.802 98.8953 123.599C98.8726 123.397 99.0183 123.214 99.2226 123.191C99.7156 123.136 100.21 123.061 100.69 122.969C100.89 122.93 101.084 123.062 101.123 123.262C101.16 123.456 101.039 123.642 100.852 123.69ZM104.471 122.609C104.295 122.654 104.108 122.564 104.037 122.392C103.959 122.203 104.049 121.987 104.238 121.909C104.69 121.723 105.144 121.516 105.588 121.292C105.771 121.201 105.993 121.274 106.084 121.456C106.176 121.639 106.103 121.861 105.92 121.952C105.459 122.184 104.988 122.4 104.518 122.593C104.504 122.599 104.488 122.604 104.471 122.609ZM95.5784 123.997C95.5413 124.006 95.5027 124.01 95.4626 124.007C94.9598 123.975 94.445 123.925 93.934 123.86C93.7312 123.835 93.588 123.649 93.6138 123.446C93.6396 123.244 93.8247 123.101 94.0287 123.126C94.5254 123.19 95.0243 123.237 95.5115 123.269C95.7152 123.283 95.8697 123.458 95.8567 123.661C95.8453 123.825 95.729 123.958 95.5784 123.997ZM109.057 119.987C108.916 120.024 108.76 119.974 108.669 119.85C108.546 119.687 108.58 119.455 108.744 119.333C109.136 119.04 109.529 118.727 109.909 118.405C110.065 118.273 110.299 118.291 110.43 118.446C110.563 118.602 110.544 118.836 110.388 118.967C109.997 119.3 109.593 119.622 109.186 119.925C109.147 119.955 109.102 119.976 109.057 119.987ZM90.3636 123.12C90.3038 123.135 90.2403 123.136 90.1774 123.119C89.6924 122.992 89.1983 122.849 88.7077 122.695C88.5125 122.634 88.4045 122.427 88.4654 122.232C88.5263 122.037 88.7343 121.929 88.9295 121.989C89.409 122.14 89.8932 122.279 90.3674 122.404C90.5656 122.456 90.6826 122.659 90.6297 122.856C90.5943 122.991 90.4891 123.088 90.3636 123.12ZM130.797 112.089C130.599 112.139 130.397 112.021 130.346 111.823C130.296 111.625 130.415 111.424 130.613 111.373C131.091 111.249 131.576 111.113 132.055 110.969C132.249 110.91 132.457 111.02 132.516 111.216C132.575 111.412 132.465 111.618 132.269 111.677C131.78 111.824 131.285 111.964 130.797 112.089ZM127.089 112.831C127.076 112.834 127.062 112.836 127.049 112.838C126.75 112.881 126.445 112.919 126.144 112.953C125.939 112.977 125.733 112.998 125.527 113.016C125.323 113.035 125.143 112.884 125.125 112.682C125.106 112.478 125.257 112.298 125.461 112.28C125.661 112.262 125.861 112.241 126.062 112.219C126.357 112.186 126.653 112.149 126.946 112.107C127.148 112.078 127.335 112.22 127.364 112.421C127.39 112.61 127.27 112.784 127.089 112.831ZM112.931 116.391C112.816 116.421 112.69 116.395 112.595 116.311C112.441 116.176 112.426 115.942 112.561 115.789C112.886 115.42 113.208 115.035 113.518 114.643C113.645 114.482 113.877 114.454 114.038 114.58C114.199 114.707 114.227 114.939 114.1 115.1C113.782 115.502 113.452 115.898 113.119 116.277C113.067 116.335 113.002 116.373 112.931 116.391ZM135.818 110.415C135.641 110.461 135.454 110.37 135.383 110.197C135.307 110.008 135.398 109.793 135.587 109.715C136.043 109.53 136.507 109.332 136.968 109.127C137.156 109.045 137.374 109.127 137.457 109.315C137.541 109.501 137.456 109.719 137.27 109.803C136.801 110.012 136.329 110.213 135.866 110.4C135.85 110.406 135.834 110.411 135.818 110.415ZM22.5769 139.394C22.5243 139.407 22.4687 139.409 22.4123 139.398C22.2121 139.357 22.0821 139.163 22.1223 138.962C22.2228 138.465 22.3318 137.965 22.4446 137.476C22.4905 137.277 22.6892 137.152 22.8885 137.199C23.0875 137.245 23.2122 137.443 23.1651 137.642C23.0531 138.125 22.9463 138.617 22.8478 139.108C22.8183 139.252 22.7097 139.36 22.5769 139.394ZM121.805 113.109C121.771 113.118 121.735 113.122 121.699 113.121C121.193 113.102 120.678 113.072 120.171 113.027C119.967 113.01 119.816 112.831 119.834 112.628C119.852 112.425 120.031 112.274 120.234 112.291C120.729 112.334 121.232 112.365 121.727 112.382C121.931 112.389 122.091 112.561 122.083 112.765C122.077 112.932 121.96 113.07 121.805 113.109ZM140.607 108.156C140.446 108.198 140.27 108.126 140.189 107.972C140.093 107.792 140.161 107.569 140.341 107.472C140.773 107.241 141.216 106.998 141.659 106.747C141.837 106.647 142.063 106.708 142.164 106.886C142.264 107.064 142.202 107.29 142.024 107.39C141.575 107.644 141.126 107.891 140.689 108.124C140.664 108.138 140.636 108.149 140.607 108.156ZM85.3615 121.397C85.2861 121.416 85.2035 121.412 85.1264 121.38C84.6683 121.188 84.1987 120.982 83.7296 120.768C83.5436 120.683 83.4618 120.464 83.5467 120.278C83.6316 120.092 83.8515 120.01 84.0376 120.095C84.4994 120.306 84.9615 120.508 85.4127 120.697C85.6011 120.776 85.6897 120.993 85.6105 121.181C85.5642 121.293 85.4703 121.369 85.3615 121.397ZM145.175 105.476C145.024 105.514 144.859 105.455 144.771 105.316C144.662 105.143 144.712 104.916 144.885 104.806C145.297 104.544 145.722 104.269 146.149 103.986C146.32 103.874 146.55 103.92 146.662 104.09C146.775 104.26 146.728 104.489 146.558 104.603C146.128 104.887 145.698 105.165 145.283 105.429C145.249 105.451 145.212 105.466 145.175 105.476ZM116.555 112.463C116.501 112.476 116.444 112.478 116.386 112.466C115.889 112.361 115.387 112.243 114.897 112.113C114.698 112.061 114.581 111.86 114.633 111.662C114.686 111.464 114.887 111.346 115.085 111.399C115.274 111.448 115.465 111.496 115.655 111.543C115.904 111.127 116.146 110.701 116.376 110.273C116.472 110.093 116.697 110.025 116.877 110.122C117.057 110.218 117.125 110.442 117.028 110.622C116.832 110.989 116.625 111.356 116.413 111.716C116.455 111.725 116.498 111.733 116.54 111.743C116.741 111.786 116.867 111.982 116.825 112.181C116.794 112.324 116.686 112.429 116.555 112.463ZM149.563 102.51C149.418 102.547 149.261 102.494 149.169 102.367C149.05 102.2 149.089 101.97 149.256 101.851C149.667 101.559 150.076 101.264 150.482 100.97C150.647 100.848 150.878 100.886 150.999 101.051C151.119 101.216 151.083 101.446 150.918 101.567C150.51 101.864 150.099 102.16 149.686 102.454C149.648 102.479 149.606 102.499 149.563 102.51ZM23.887 134.274C23.8224 134.291 23.7536 134.29 23.6843 134.269C23.4891 134.208 23.3811 134.001 23.442 133.806C23.595 133.319 23.7561 132.834 23.9229 132.361C23.9907 132.168 24.2018 132.067 24.395 132.135C24.5881 132.202 24.6892 132.413 24.6214 132.606C24.4579 133.071 24.2988 133.549 24.1488 134.028C24.1097 134.153 24.0078 134.243 23.887 134.274ZM80.5909 119.107C80.5049 119.129 80.4096 119.12 80.3253 119.074C79.9005 118.849 79.4639 118.612 78.9911 118.353C78.8118 118.255 78.7465 118.031 78.8458 117.851C78.9439 117.672 79.1693 117.607 79.3488 117.706C79.819 117.964 80.2522 118.198 80.6743 118.423C80.8544 118.519 80.923 118.742 80.8267 118.923C80.7746 119.018 80.6878 119.082 80.5909 119.107ZM111.491 110.935C111.418 110.954 111.338 110.95 111.261 110.92C110.789 110.733 110.315 110.531 109.853 110.32C109.667 110.235 109.586 110.016 109.67 109.83C109.755 109.644 109.975 109.563 110.161 109.647C110.613 109.853 111.075 110.05 111.536 110.233C111.726 110.309 111.818 110.523 111.743 110.713C111.697 110.828 111.602 110.907 111.491 110.935ZM153.828 99.3705C153.688 99.4063 153.533 99.3583 153.441 99.2358C153.317 99.0729 153.35 98.8408 153.513 98.7175C153.914 98.4138 154.316 98.11 154.716 97.8039C154.879 97.6794 155.111 97.7102 155.236 97.8716C155.36 98.0331 155.329 98.266 155.167 98.3902C154.767 98.6975 154.364 99.0031 153.961 99.3072C153.919 99.337 153.875 99.3585 153.828 99.3705ZM118.38 107.38C118.307 107.399 118.229 107.396 118.152 107.366C117.962 107.291 117.869 107.076 117.944 106.887C118.126 106.428 118.299 105.956 118.461 105.485C118.528 105.292 118.738 105.189 118.931 105.255C119.124 105.321 119.228 105.531 119.161 105.724C118.995 106.206 118.817 106.688 118.632 107.158C118.588 107.272 118.491 107.352 118.38 107.38ZM158.019 96.1332C157.881 96.1685 157.73 96.1234 157.637 96.0048C157.511 95.8452 157.537 95.612 157.698 95.4857C158.093 95.1733 158.486 94.8601 158.88 94.5456C159.04 94.4182 159.273 94.4435 159.4 94.6029C159.528 94.7622 159.502 94.9951 159.342 95.1226C158.948 95.4385 158.553 95.7521 158.156 96.0651C158.115 96.0985 158.068 96.1207 158.019 96.1332ZM75.9635 116.539C75.8738 116.562 75.7756 116.552 75.6891 116.503C75.2507 116.254 74.8126 116.006 74.3733 115.759C74.1947 115.659 74.1318 115.433 74.2329 115.256C74.3337 115.077 74.5599 115.016 74.7371 115.115C75.1764 115.362 75.616 115.611 76.0544 115.86C76.2318 115.96 76.2947 116.186 76.1936 116.363C76.1417 116.454 76.058 116.515 75.9635 116.539ZM25.7686 129.336C25.6897 129.356 25.604 129.35 25.5236 129.315C25.3376 129.23 25.2547 129.011 25.3396 128.825C25.5499 128.363 25.7712 127.9 25.9972 127.449C26.0893 127.266 26.311 127.192 26.4938 127.283C26.6763 127.374 26.7511 127.596 26.659 127.779C26.4372 128.221 26.22 128.676 26.0138 129.129C25.9662 129.237 25.8738 129.309 25.7686 129.336ZM106.767 108.563C106.672 108.587 106.569 108.574 106.48 108.519C106.046 108.252 105.615 107.969 105.199 107.682C105.032 107.566 104.989 107.335 105.105 107.168C105.222 107.001 105.453 106.958 105.62 107.074C106.026 107.355 106.447 107.63 106.869 107.891C107.043 107.997 107.097 108.225 106.99 108.399C106.936 108.484 106.855 108.54 106.767 108.563ZM162.139 92.8059C162.004 92.8406 161.857 92.797 161.762 92.6841C161.631 92.5268 161.654 92.2933 161.812 92.1638C162.2 91.8431 162.587 91.5212 162.974 91.1984C163.131 91.0665 163.364 91.088 163.495 91.2441C163.625 91.4001 163.605 91.6342 163.449 91.7646C163.062 92.0888 162.673 92.4111 162.284 92.7333C162.239 92.7676 162.19 92.793 162.139 92.8059ZM119.929 102.329C119.874 102.343 119.816 102.345 119.757 102.331C119.557 102.287 119.431 102.09 119.476 101.891C119.583 101.407 119.683 100.915 119.769 100.426C119.804 100.225 119.997 100.09 120.198 100.126C120.4 100.161 120.534 100.353 120.498 100.554C120.409 101.054 120.308 101.558 120.197 102.052C120.168 102.191 120.06 102.296 119.929 102.329ZM71.3307 113.981C71.2446 114.003 71.1506 113.994 71.0665 113.949C70.6084 113.708 70.1581 113.477 69.7271 113.262C69.5443 113.171 69.4709 112.949 69.5618 112.767C69.6539 112.584 69.8759 112.511 70.0584 112.601C70.4925 112.818 70.9484 113.051 71.4111 113.295C71.5921 113.39 71.661 113.614 71.5659 113.794C71.5155 113.891 71.4275 113.956 71.3307 113.981ZM166.185 89.3898C166.053 89.4235 165.908 89.3832 165.812 89.2741C165.679 89.1202 165.697 88.8867 165.851 88.7531C166.232 88.4241 166.612 88.0938 166.991 87.7627C167.145 87.6279 167.378 87.6431 167.513 87.7967C167.648 87.9503 167.632 88.1835 167.479 88.318C167.099 88.6506 166.717 88.9812 166.334 89.312C166.289 89.3502 166.239 89.376 166.185 89.3898ZM28.2792 124.684C28.1835 124.709 28.0781 124.695 27.9886 124.639C27.8153 124.53 27.7643 124.301 27.8744 124.129C28.1478 123.7 28.4319 123.272 28.7209 122.858C28.8373 122.691 29.0688 122.65 29.2362 122.766C29.4035 122.882 29.4449 123.113 29.3285 123.28C29.046 123.684 28.7675 124.104 28.4995 124.525C28.4467 124.607 28.3677 124.662 28.2792 124.684ZM102.546 105.385C102.429 105.415 102.299 105.387 102.204 105.3C101.827 104.955 101.456 104.598 101.102 104.236C100.959 104.089 100.961 103.856 101.108 103.713C101.254 103.57 101.489 103.573 101.632 103.718C101.977 104.07 102.338 104.419 102.704 104.753C102.855 104.891 102.865 105.125 102.727 105.275C102.676 105.331 102.613 105.368 102.546 105.385ZM170.156 85.8871C170.027 85.9202 169.885 85.8829 169.789 85.7766C169.652 85.6248 169.663 85.3916 169.815 85.2547C170.189 84.9173 170.562 84.5788 170.934 84.2393C171.086 84.1012 171.319 84.1126 171.457 84.2629C171.595 84.4132 171.585 84.6472 171.433 84.7853C171.061 85.1262 170.686 85.4651 170.311 85.8028C170.265 85.8452 170.212 85.8727 170.156 85.8871ZM66.5489 111.716C66.4736 111.735 66.3922 111.73 66.3154 111.699C65.8464 111.505 65.3764 111.322 64.9201 111.153C64.7288 111.082 64.6309 110.87 64.7029 110.678C64.7737 110.487 64.9869 110.389 65.1786 110.461C65.6432 110.633 66.1208 110.821 66.5993 111.017C66.7886 111.095 66.8775 111.312 66.7995 111.5C66.7525 111.61 66.6577 111.688 66.5489 111.716ZM31.4437 120.451C31.3289 120.481 31.2025 120.455 31.1074 120.372C30.9531 120.238 30.9381 120.005 31.0731 119.851C31.4096 119.468 31.7572 119.089 32.1072 118.725C32.2492 118.578 32.4835 118.572 32.6307 118.714C32.7778 118.856 32.783 119.089 32.641 119.236C32.299 119.592 31.958 119.962 31.6299 120.337C31.5796 120.395 31.5143 120.433 31.4437 120.451ZM120.682 97.0991C120.645 97.1086 120.606 97.1125 120.565 97.11C120.362 97.0961 120.207 96.9208 120.221 96.7164C120.255 96.2219 120.278 95.7201 120.29 95.2238C120.295 95.0203 120.464 94.8587 120.669 94.8634C120.873 94.8683 121.035 95.0379 121.029 95.2414C121.017 95.7482 120.994 96.2614 120.959 96.7663C120.95 96.9289 120.834 97.0602 120.682 97.0991ZM174.049 82.2989C173.922 82.3314 173.783 82.2959 173.687 82.1946C173.547 82.0461 173.553 81.8118 173.702 81.6719C174.069 81.3262 174.434 80.9809 174.798 80.6331C174.945 80.4912 175.18 80.4971 175.321 80.6453C175.462 80.7935 175.457 81.0263 175.308 81.1674C174.943 81.5154 174.577 81.8635 174.21 82.2095C174.164 82.2543 174.108 82.2839 174.049 82.2989ZM99.0161 101.458C98.8738 101.494 98.717 101.444 98.6247 101.318C98.3231 100.907 98.0311 100.483 97.7548 100.057C97.6435 99.8857 97.6931 99.6568 97.8646 99.5454C98.0373 99.4338 98.2654 99.4834 98.3768 99.6545C98.646 100.069 98.9303 100.482 99.2237 100.881C99.3449 101.045 99.3088 101.277 99.1433 101.397C99.1037 101.426 99.0604 101.446 99.0161 101.458ZM61.5163 110.098C61.4625 110.111 61.4056 110.113 61.3478 110.101C60.8683 110.001 60.3739 109.911 59.8796 109.837C59.6767 109.806 59.538 109.618 59.5692 109.417C59.6005 109.215 59.7889 109.076 59.9905 109.107C60.4995 109.183 61.0071 109.274 61.5004 109.379C61.7009 109.421 61.8277 109.617 61.7859 109.817C61.7568 109.957 61.649 110.064 61.5163 110.098ZM35.2426 116.774C35.1075 116.809 34.9588 116.765 34.8645 116.651C34.7349 116.494 34.7578 116.26 34.9158 116.131C35.3086 115.809 35.7142 115.492 36.1221 115.189C36.2857 115.067 36.5188 115.102 36.6397 115.265C36.7607 115.429 36.7272 115.661 36.5632 115.782C36.1649 116.077 35.7691 116.387 35.3847 116.702C35.3427 116.737 35.294 116.761 35.2426 116.774ZM177.863 78.6267C177.74 78.6583 177.603 78.626 177.508 78.5283C177.365 78.3831 177.366 78.1489 177.512 78.006C177.871 77.6532 178.229 77.2983 178.585 76.9437C178.73 76.7997 178.965 76.7994 179.109 76.9443C179.253 77.0891 179.253 77.3231 179.108 77.4671C178.751 77.8232 178.392 78.1784 178.031 78.5327C177.982 78.5784 177.924 78.6111 177.863 78.6267ZM56.2606 109.513C56.2283 109.522 56.1948 109.525 56.1603 109.525C55.6661 109.516 55.1632 109.517 54.6649 109.532C54.4599 109.537 54.2902 109.378 54.2849 109.173C54.2795 108.968 54.44 108.799 54.645 108.793C55.1547 108.778 55.6701 108.776 56.1761 108.786C56.3808 108.789 56.5428 108.959 56.5388 109.162C56.5353 109.332 56.4172 109.473 56.2606 109.513ZM39.5975 113.775C39.4396 113.815 39.2695 113.748 39.1846 113.601C39.0831 113.423 39.145 113.198 39.3217 113.096C39.7618 112.845 40.2137 112.599 40.668 112.368C40.8495 112.276 41.0729 112.347 41.1667 112.529C41.2593 112.712 41.1874 112.933 41.0051 113.027C40.5624 113.254 40.1192 113.493 39.6901 113.738C39.6611 113.754 39.6297 113.766 39.5975 113.775ZM50.9806 109.853C50.9674 109.857 50.9555 109.86 50.9417 109.861C50.4506 109.933 49.955 110.018 49.467 110.113C49.2667 110.152 49.0714 110.021 49.0329 109.821C48.9944 109.621 49.1259 109.428 49.3257 109.387C49.8244 109.29 50.3322 109.203 50.8344 109.129C51.0369 109.099 51.2245 109.239 51.2546 109.441C51.2826 109.63 51.1611 109.807 50.9806 109.853ZM44.3923 111.537C44.2106 111.584 44.02 111.486 43.9537 111.307C43.8829 111.116 43.9815 110.904 44.1724 110.833C44.6494 110.656 45.1355 110.49 45.6196 110.335C45.8145 110.275 46.0225 110.38 46.0849 110.574C46.1473 110.768 46.0389 110.976 45.8447 111.039C45.3723 111.189 44.8957 111.353 44.43 111.525C44.4171 111.529 44.4043 111.534 44.3923 111.537ZM120.642 91.8171C120.622 91.8223 120.602 91.826 120.581 91.8276C120.378 91.8442 120.199 91.6929 120.181 91.4902C120.14 90.9959 120.088 90.4967 120.026 90.0041C120.001 89.802 120.145 89.6176 120.347 89.5912C120.549 89.566 120.735 89.7091 120.76 89.9112C120.824 90.4137 120.877 90.9252 120.919 91.4295C120.934 91.6114 120.813 91.7732 120.642 91.8171ZM96.3242 96.9165C96.1556 96.9597 95.9744 96.879 95.898 96.7154C95.6821 96.2558 95.4757 95.7835 95.2851 95.3136C95.2086 95.1246 95.3 94.9092 95.4893 94.8327C95.6802 94.7571 95.8944 94.8471 95.9709 95.0361C96.156 95.4947 96.3567 95.9544 96.5668 96.4016C96.6538 96.5866 96.5738 96.8067 96.3884 96.8936C96.3678 96.9027 96.3457 96.9109 96.3242 96.9165ZM119.809 86.6023C119.806 86.6029 119.804 86.6035 119.803 86.6038C119.603 86.6511 119.404 86.5293 119.357 86.3303C119.312 86.142 119.265 85.9532 119.217 85.7659C119.142 85.4723 119.062 85.1762 118.979 84.8848C118.923 84.6879 119.036 84.4834 119.234 84.4278C119.432 84.3679 119.634 84.4853 119.691 84.6818C119.776 84.9791 119.858 85.2813 119.935 85.582C119.984 85.7741 120.032 85.9665 120.078 86.1595C120.124 86.3549 120.004 86.5523 119.809 86.6023ZM94.5408 91.9477C94.3423 91.9986 94.1411 91.8798 94.0903 91.6817C93.9643 91.1901 93.8496 90.688 93.7499 90.1896C93.7099 89.9888 93.8436 89.7943 94.0409 89.7539C94.2409 89.7141 94.4359 89.8434 94.4771 90.0439C94.5747 90.5288 94.686 91.0178 94.8089 91.4975C94.8585 91.6959 94.7393 91.8968 94.5408 91.9477ZM118.192 81.5742C118.017 81.6192 117.829 81.5287 117.758 81.3562C117.569 80.8961 117.368 80.4351 117.161 79.9871C117.075 79.8018 117.157 79.5825 117.342 79.4956C117.527 79.4101 117.747 79.4897 117.835 79.6759C118.046 80.134 118.252 80.6039 118.446 81.0756C118.523 81.2643 118.432 81.4809 118.243 81.5574C118.226 81.5644 118.209 81.5699 118.192 81.5742ZM93.7152 86.7335C93.6924 86.7393 93.6703 86.7424 93.6467 86.7447C93.4423 86.7576 93.2663 86.6031 93.2536 86.3991C93.2214 85.8911 93.2031 85.377 93.1979 84.8696C93.1965 84.6653 93.3599 84.4975 93.5646 84.4959C93.7694 84.4943 93.9361 84.6575 93.9387 84.8616C93.9429 85.3552 93.9618 85.8564 93.993 86.3507C94.0038 86.5323 93.8837 86.6902 93.7152 86.7335ZM115.807 76.8615C115.654 76.9007 115.486 76.8381 115.399 76.6965C115.139 76.2724 114.866 75.8502 114.589 75.4417C114.475 75.2727 114.519 75.0427 114.688 74.928C114.858 74.8134 115.088 74.8573 115.203 75.0263C115.487 75.4431 115.766 75.8751 116.031 76.3106C116.138 76.4841 116.083 76.7118 115.908 76.819C115.876 76.8386 115.842 76.8526 115.807 76.8615ZM93.8842 81.4575C93.8399 81.4688 93.7924 81.4721 93.745 81.4665C93.5423 81.4409 93.3991 81.2551 93.4249 81.0526C93.4904 80.5475 93.5702 80.0388 93.6642 79.5404C93.702 79.34 93.8949 79.2078 94.0966 79.2439C94.2974 79.2814 94.4295 79.4739 94.3932 79.6752C94.3022 80.1601 94.2241 80.6558 94.16 81.1465C94.1396 81.3005 94.0277 81.4207 93.8842 81.4575ZM112.661 72.621C112.533 72.6538 112.392 72.6174 112.297 72.5146C111.955 72.1457 111.602 71.7924 111.249 71.4672C111.099 71.329 111.088 71.0951 111.227 70.9451C111.366 70.7951 111.6 70.7846 111.75 70.9229C112.119 71.262 112.485 71.6284 112.841 72.0115C112.98 72.1615 112.97 72.3955 112.821 72.5342C112.773 72.5782 112.718 72.6063 112.661 72.621ZM95.1008 76.3212C95.0302 76.3393 94.9545 76.3371 94.8801 76.3104C94.6887 76.2399 94.5909 76.0272 94.6617 75.8361C94.8419 75.3512 95.0429 74.8725 95.258 74.4142C95.3444 74.2293 95.5649 74.1499 95.75 74.236C95.9352 74.322 96.0145 74.542 95.9281 74.7269C95.721 75.1666 95.528 75.6268 95.3555 76.0919C95.313 76.2096 95.2156 76.2918 95.1008 76.3212ZM108.523 69.3646C108.438 69.3863 108.346 69.3783 108.261 69.3352C107.817 69.1068 107.368 68.9131 106.923 68.76C106.73 68.6937 106.627 68.4837 106.694 68.2897C106.761 68.0971 106.971 67.9936 107.166 68.0607C107.644 68.2256 108.128 68.4334 108.604 68.6789C108.785 68.7722 108.856 68.9958 108.762 69.1775C108.71 69.2734 108.621 69.3394 108.523 69.3646ZM97.688 71.73C97.5768 71.7586 97.4549 71.7351 97.3595 71.6566C97.2026 71.5264 97.1797 71.2932 97.3115 71.1361C97.6523 70.7257 98.0121 70.3449 98.3829 70.0018C98.5333 69.8628 98.7675 69.8715 98.9066 70.0215C99.0457 70.1715 99.0368 70.4052 98.8864 70.5442C98.5391 70.8646 98.2016 71.2233 97.8822 71.6078C97.8296 71.6709 97.761 71.7113 97.688 71.73ZM103.411 68.3557C103.395 68.3596 103.381 68.3621 103.365 68.3649C103.329 68.369 103.295 68.374 103.259 68.3793C102.819 68.4413 102.382 68.5431 101.962 68.6826C101.766 68.7454 101.559 68.6422 101.494 68.4478C101.43 68.2543 101.535 68.0456 101.73 67.9805C102.192 67.8275 102.673 67.7144 103.156 67.6465C103.196 67.6414 103.234 67.6355 103.273 67.6305C103.476 67.6053 103.662 67.7484 103.687 67.9505C103.709 68.138 103.589 68.31 103.411 68.3557Z" stroke="white" mask="url(#path-1-outside-1_4025_100738)"/>
</g>
<path id="Vector_2" d="M221.052 2.91191L221.053 2.91189C222.236 2.25015 223.626 2.29284 224.765 3.02525C225.903 3.75779 226.516 5.00547 226.399 6.35687L220.293 76.9236L220.293 76.9237C220.188 78.1373 219.484 79.206 218.409 79.7838L221.052 2.91191ZM221.052 2.91191L154.038 40.4126M221.052 2.91191L154.038 40.4126M154.038 40.4126C152.877 41.0618 152.187 42.2451 152.195 43.5731L154.038 40.4126ZM175.979 58.6018L154.074 46.7098L154.073 46.7097C152.907 46.0754 152.202 44.9017 152.195 43.5731L175.979 58.6018ZM175.979 58.6018L177.767 76.4776C177.845 77.2673 178.403 77.8914 179.179 78.0607L179.179 78.0607C179.465 78.1232 179.755 78.1179 180.025 78.0487C180.323 77.9723 180.592 77.8191 180.814 77.6066C180.82 77.6012 180.827 77.5952 180.834 77.5882L192.45 67.5444L214.982 79.7778C215.792 80.2176 216.723 80.3259 217.594 80.1028C217.875 80.0308 218.148 79.9246 218.409 79.7841L175.979 58.6018ZM188.376 63.7032L215.667 78.519C216.313 78.8696 217.086 78.8708 217.734 78.5224C218.382 78.1743 218.805 77.5301 218.869 76.798L224.974 6.2314C225.045 5.41643 224.678 4.6694 223.99 4.22734L223.99 4.22719C223.3 3.78348 222.466 3.75856 221.751 4.15881L221.629 3.94076L221.751 4.15882L154.736 41.6596L154.614 41.4414L154.736 41.6596C154.035 42.0518 153.621 42.761 153.626 43.5637C153.63 44.366 154.052 45.0694 154.758 45.4529C154.758 45.4529 154.758 45.4529 154.758 45.4529L176.503 57.2581L216.954 13.8428L188.376 63.7032ZM188.376 63.7032L218.09 14.698L218.09 14.6979C218.28 14.3835 218.201 13.9785 217.91 13.7581L217.909 13.7574C217.618 13.5383 217.206 13.5719 216.955 13.8423L188.376 63.7032ZM179.485 76.6642C179.348 76.6335 179.211 76.5333 179.191 76.3343C179.191 76.3342 179.191 76.3341 179.191 76.3341L177.499 59.4263L186.41 64.2638L179.884 76.4977C179.783 76.6604 179.621 76.6934 179.485 76.6642ZM177.799 57.9614L213.262 19.9002L187.116 63.0208L177.799 57.9614ZM191.107 66.8132L182.876 73.9311L187.668 64.9463L191.107 66.8132Z" fill="#1E3F5F" stroke="white" stroke-width="0.5"/>
</g>
</svg>
