<svg width="20" height="20" viewBox="0 0 20 20" fill="none" xmlns="http://www.w3.org/2000/svg">
<g id="Repeat">
<path id="Vector" d="M1.87549 10.0003C1.87715 8.50901 2.47031 7.07923 3.52484 6.0247C4.57938 4.97017 6.00916 4.377 7.50049 4.37535H15.9919L15.1833 3.56753C15.066 3.45026 15.0001 3.2912 15.0001 3.12535C15.0001 2.9595 15.066 2.80044 15.1833 2.68316C15.3006 2.56588 15.4596 2.5 15.6255 2.5C15.7913 2.5 15.9504 2.56588 16.0677 2.68316L17.9427 4.55816C18.0008 4.61621 18.0469 4.68514 18.0783 4.76101C18.1098 4.83688 18.126 4.91821 18.126 5.00035C18.126 5.08248 18.1098 5.16381 18.0783 5.23969C18.0469 5.31556 18.0008 5.38449 17.9427 5.44254L16.0677 7.31754C15.9504 7.43481 15.7913 7.50069 15.6255 7.50069C15.4596 7.50069 15.3006 7.43481 15.1833 7.31754C15.066 7.20026 15.0001 7.0412 15.0001 6.87535C15.0001 6.7095 15.066 6.55044 15.1833 6.43316L15.9919 5.62535H7.50049C6.34055 5.62659 5.22847 6.08792 4.40827 6.90813C3.58807 7.72833 3.12673 8.84041 3.12549 10.0003C3.12549 10.1661 3.05964 10.3251 2.94243 10.4423C2.82522 10.5595 2.66625 10.6253 2.50049 10.6253C2.33473 10.6253 2.17576 10.5595 2.05855 10.4423C1.94134 10.3251 1.87549 10.1661 1.87549 10.0003ZM17.5005 9.37535C17.3347 9.37535 17.1758 9.4412 17.0585 9.55841C16.9413 9.67562 16.8755 9.83459 16.8755 10.0003C16.8743 11.1603 16.4129 12.2724 15.5927 13.0926C14.7725 13.9128 13.6604 14.3741 12.5005 14.3753H4.00909L4.81768 13.5675C4.87575 13.5095 4.92181 13.4405 4.95324 13.3647C4.98466 13.2888 5.00084 13.2075 5.00084 13.1253C5.00084 13.0432 4.98466 12.9619 4.95324 12.886C4.92181 12.8102 4.87575 12.7412 4.81768 12.6832C4.75961 12.6251 4.69067 12.579 4.6148 12.5476C4.53893 12.5162 4.45761 12.5 4.37549 12.5C4.29337 12.5 4.21205 12.5162 4.13618 12.5476C4.06031 12.579 3.99137 12.6251 3.9333 12.6832L2.0583 14.5582C2.00019 14.6162 1.95409 14.6851 1.92264 14.761C1.89119 14.8369 1.875 14.9182 1.875 15.0003C1.875 15.0825 1.89119 15.1638 1.92264 15.2397C1.95409 15.3156 2.00019 15.3845 2.0583 15.4425L3.9333 17.3175C3.99137 17.3756 4.06031 17.4217 4.13618 17.4531C4.21205 17.4845 4.29337 17.5007 4.37549 17.5007C4.45761 17.5007 4.53893 17.4845 4.6148 17.4531C4.69067 17.4217 4.75961 17.3756 4.81768 17.3175C4.87575 17.2595 4.92181 17.1905 4.95324 17.1147C4.98466 17.0388 5.00084 16.9575 5.00084 16.8753C5.00084 16.7932 4.98466 16.7119 4.95324 16.636C4.92181 16.5602 4.87575 16.4912 4.81768 16.4332L4.00909 15.6253H12.5005C13.9918 15.6237 15.4216 15.0305 16.4761 13.976C17.5307 12.9215 18.1238 11.4917 18.1255 10.0003C18.1255 9.83459 18.0596 9.67562 17.9424 9.55841C17.8252 9.4412 17.6663 9.37535 17.5005 9.37535Z" fill="white"/>
</g>
</svg>
