<svg width="16" height="16" viewBox="0 0 16 16" fill="none" xmlns="http://www.w3.org/2000/svg">
<g id="UserList">
<path id="Vector" d="M9.50006 5.00037C9.50006 4.80146 9.57908 4.61069 9.71974 4.47004C9.86039 4.32939 10.0512 4.25037 10.2501 4.25037H15.2501C15.449 4.25037 15.6397 4.32939 15.7804 4.47004C15.921 4.61069 16.0001 4.80146 16.0001 5.00037C16.0001 5.19928 15.921 5.39005 15.7804 5.5307C15.6397 5.67135 15.449 5.75037 15.2501 5.75037H10.2501C10.0512 5.75037 9.86039 5.67135 9.71974 5.5307C9.57908 5.39005 9.50006 5.19928 9.50006 5.00037ZM15.2501 7.25037H10.2501C10.0512 7.25037 9.86039 7.32939 9.71974 7.47004C9.57908 7.61069 9.50006 7.80146 9.50006 8.00037C9.50006 8.19928 9.57908 8.39005 9.71974 8.5307C9.86039 8.67135 10.0512 8.75037 10.2501 8.75037H15.2501C15.449 8.75037 15.6397 8.67135 15.7804 8.5307C15.921 8.39005 16.0001 8.19928 16.0001 8.00037C16.0001 7.80146 15.921 7.61069 15.7804 7.47004C15.6397 7.32939 15.449 7.25037 15.2501 7.25037ZM15.2501 10.2504H11.7501C11.5512 10.2504 11.3604 10.3294 11.2197 10.47C11.0791 10.6107 11.0001 10.8015 11.0001 11.0004C11.0001 11.1993 11.0791 11.39 11.2197 11.5307C11.3604 11.6714 11.5512 11.7504 11.7501 11.7504H15.2501C15.449 11.7504 15.6397 11.6714 15.7804 11.5307C15.921 11.39 16.0001 11.1993 16.0001 11.0004C16.0001 10.8015 15.921 10.6107 15.7804 10.47C15.6397 10.3294 15.449 10.2504 15.2501 10.2504ZM9.72631 11.8129C9.75094 11.9082 9.75653 12.0075 9.74279 12.1051C9.72904 12.2026 9.69621 12.2965 9.64618 12.3813C9.59616 12.4662 9.52991 12.5403 9.45122 12.5996C9.37253 12.6588 9.28294 12.702 9.18756 12.7266C9.09219 12.7512 8.9929 12.7568 8.89537 12.7431C8.79783 12.7293 8.70396 12.6965 8.61911 12.6465C8.53426 12.5965 8.4601 12.5302 8.40085 12.4515C8.3416 12.3728 8.29844 12.2832 8.27382 12.1879C7.91632 10.7985 6.50881 9.75037 5.00006 9.75037C3.49131 9.75037 2.08381 10.7979 1.72631 12.1879C1.70169 12.2832 1.65852 12.3728 1.59928 12.4515C1.54003 12.5302 1.46587 12.5965 1.38102 12.6465C1.29617 12.6965 1.2023 12.7293 1.10476 12.7431C1.00722 12.7568 0.907936 12.7512 0.812564 12.7266C0.717191 12.702 0.627602 12.6588 0.548912 12.5996C0.470222 12.5403 0.403972 12.4662 0.353945 12.3813C0.303917 12.2965 0.271092 12.2026 0.257343 12.1051C0.243594 12.0075 0.249191 11.9082 0.273814 11.8129C0.610064 10.5066 1.52944 9.42787 2.71819 8.81287C2.25892 8.36026 1.94467 7.78127 1.81541 7.14954C1.68615 6.51782 1.74773 5.86193 1.99231 5.2653C2.23689 4.66867 2.65342 4.15829 3.1889 3.79907C3.72439 3.43986 4.35463 3.24805 4.99944 3.24805C5.64425 3.24805 6.27449 3.43986 6.80997 3.79907C7.34546 4.15829 7.76199 4.66867 8.00657 5.2653C8.25115 5.86193 8.31273 6.51782 8.18347 7.14954C8.05421 7.78127 7.73996 8.36026 7.28069 8.81287C8.47069 9.42849 9.39006 10.5072 9.72631 11.8129ZM5.00006 8.25037C5.34618 8.25037 5.68453 8.14773 5.97231 7.95544C6.2601 7.76315 6.4844 7.48983 6.61685 7.17006C6.74931 6.85029 6.78396 6.49843 6.71644 6.15896C6.64891 5.81949 6.48224 5.50767 6.2375 5.26293C5.99276 5.01819 5.68094 4.85152 5.34147 4.78399C5.00201 4.71647 4.65014 4.75113 4.33037 4.88358C4.0106 5.01603 3.73728 5.24033 3.54499 5.52812C3.3527 5.81591 3.25006 6.15425 3.25006 6.50037C3.25006 6.73018 3.29533 6.95774 3.38327 7.17006C3.47122 7.38238 3.60012 7.5753 3.76263 7.73781C4.09082 8.06599 4.53594 8.25037 5.00006 8.25037Z" fill="#717D8C"/>
</g>
</svg>
