<svg width="20" height="21" viewBox="0 0 20 21" fill="none" xmlns="http://www.w3.org/2000/svg">
<g id="ShootingStar">
<path id="Vector" d="M18.7011 5.97707C18.639 5.78314 18.5206 5.61205 18.3611 5.48548C18.2015 5.35891 18.008 5.28256 17.805 5.26613L14.8972 5.02004L13.7628 2.37551C13.6828 2.19011 13.5502 2.03221 13.3815 1.92127C13.2127 1.81033 13.0152 1.75122 12.8132 1.75122C12.6113 1.75122 12.4138 1.81033 12.245 1.92127C12.0763 2.03221 11.9437 2.19011 11.8636 2.37551L10.7293 5.02082L7.82066 5.26613C7.61869 5.28235 7.42606 5.35803 7.26704 5.4836C7.10803 5.60918 6.98977 5.77903 6.92718 5.97174C6.86459 6.16444 6.86047 6.37137 6.91534 6.56642C6.97021 6.76146 7.08162 6.93589 7.2355 7.06769L9.4355 8.94269L8.77691 11.7341C8.73061 11.9298 8.74296 12.1347 8.81243 12.3234C8.8819 12.5121 9.00541 12.6761 9.16753 12.795C9.33157 12.9155 9.52749 12.9849 9.73078 12.9947C9.93407 13.0044 10.1357 12.954 10.3105 12.8497L12.8105 11.3654L15.3105 12.8497C15.4853 12.954 15.6869 13.0044 15.8902 12.9947C16.0935 12.9849 16.2894 12.9155 16.4535 12.795C16.6157 12.6762 16.7392 12.5122 16.8087 12.3235C16.8782 12.1348 16.8905 11.9298 16.8441 11.7341L16.1855 8.94269L18.3847 7.06769C18.5395 6.93765 18.6522 6.76458 18.7085 6.57042C18.7649 6.37627 18.7623 6.16976 18.7011 5.97707ZM15.2746 8.08644C15.1306 8.20841 15.0233 8.3679 14.9645 8.54719C14.9058 8.72649 14.8979 8.91856 14.9418 9.10207L15.5128 11.5239L13.3425 10.2341C13.1824 10.1386 12.9993 10.0882 12.8128 10.0882C12.6264 10.0882 12.4433 10.1386 12.2832 10.2341L10.1128 11.5161L10.6839 9.09426C10.7284 8.91084 10.7209 8.71865 10.6623 8.53925C10.6036 8.35985 10.4962 8.20035 10.3519 8.07863L8.4566 6.46769L10.9636 6.25519C11.1497 6.23958 11.328 6.17359 11.4794 6.06431C11.6308 5.95502 11.7496 5.80657 11.823 5.63488L12.8128 3.33176L13.8003 5.63488C13.8739 5.80647 13.9927 5.95483 14.1441 6.0641C14.2955 6.17336 14.4737 6.23942 14.6597 6.25519L17.1668 6.46769L15.2746 8.08644ZM6.69254 10.3177L2.31754 14.6927C2.20026 14.81 2.0412 14.8759 1.87535 14.8759C1.7095 14.8759 1.55044 14.81 1.43316 14.6927C1.31588 14.5754 1.25 14.4164 1.25 14.2505C1.25 14.0847 1.31588 13.9256 1.43316 13.8083L5.80816 9.43332C5.92544 9.31604 6.0845 9.25016 6.25035 9.25016C6.4162 9.25016 6.57526 9.31604 6.69254 9.43332C6.80981 9.55059 6.87569 9.70965 6.87569 9.87551C6.87569 10.0414 6.80981 10.2004 6.69254 10.3177ZM7.94254 14.6927L3.56753 19.0677C3.50947 19.1258 3.44053 19.1718 3.36466 19.2033C3.28879 19.2347 3.20747 19.2509 3.12535 19.2509C3.04323 19.2509 2.96191 19.2347 2.88604 19.2033C2.81017 19.1718 2.74123 19.1258 2.68316 19.0677C2.62509 19.0096 2.57903 18.9407 2.5476 18.8648C2.51618 18.7889 2.5 18.7076 2.5 18.6255C2.5 18.5434 2.51618 18.4621 2.5476 18.3862C2.57903 18.3103 2.62509 18.2414 2.68316 18.1833L7.05816 13.8083C7.17544 13.691 7.3345 13.6252 7.50035 13.6252C7.6662 13.6252 7.82526 13.691 7.94254 13.8083C8.05981 13.9256 8.12569 14.0847 8.12569 14.2505C8.12569 14.4164 8.05981 14.5754 7.94254 14.6927ZM13.5675 13.8083C13.6256 13.8664 13.6717 13.9353 13.7032 14.0112C13.7347 14.087 13.7508 14.1684 13.7508 14.2505C13.7508 14.3326 13.7347 14.414 13.7032 14.4898C13.6717 14.5657 13.6256 14.6346 13.5675 14.6927L9.19254 19.0677C9.13447 19.1258 9.06553 19.1718 8.98966 19.2033C8.91379 19.2347 8.83247 19.2509 8.75035 19.2509C8.66823 19.2509 8.58691 19.2347 8.51104 19.2033C8.43517 19.1718 8.36623 19.1258 8.30816 19.0677C8.25009 19.0096 8.20403 18.9407 8.1726 18.8648C8.14117 18.7889 8.125 18.7076 8.125 18.6255C8.125 18.5434 8.14117 18.4621 8.1726 18.3862C8.20403 18.3103 8.25009 18.2414 8.30816 18.1833L12.6832 13.8083C12.7412 13.7502 12.8101 13.7041 12.886 13.6727C12.9619 13.6412 13.0432 13.625 13.1253 13.625C13.2075 13.625 13.2888 13.6412 13.3647 13.6727C13.4406 13.7041 13.5095 13.7502 13.5675 13.8083Z" fill="#38B6FF"/>
</g>
</svg>
