<svg width="20" height="21" viewBox="0 0 20 21" fill="none" xmlns="http://www.w3.org/2000/svg">
<g id="Tag">
<path id="Vector" d="M19.0086 11.125L11.25 3.36641C11.1344 3.24983 10.9967 3.15741 10.845 3.09451C10.6933 3.0316 10.5306 2.99948 10.3664 3.00001H3.12501C2.95925 3.00001 2.80027 3.06585 2.68306 3.18306C2.56585 3.30027 2.50001 3.45925 2.50001 3.62501V10.8664C2.49948 11.0306 2.5316 11.1933 2.59451 11.345C2.65741 11.4967 2.74983 11.6344 2.86641 11.75L10.625 19.5086C10.7411 19.6247 10.8789 19.7168 11.0306 19.7796C11.1822 19.8425 11.3448 19.8748 11.509 19.8748C11.6732 19.8748 11.8357 19.8425 11.9874 19.7796C12.1391 19.7168 12.2769 19.6247 12.393 19.5086L19.0086 12.893C19.1247 12.7769 19.2168 12.6391 19.2796 12.4874C19.3425 12.3357 19.3748 12.1732 19.3748 12.009C19.3748 11.8448 19.3425 11.6822 19.2796 11.5306C19.2168 11.3789 19.1247 11.2411 19.0086 11.125ZM11.5086 18.625L3.75001 10.8664V4.25001H10.3664L18.125 12.0086L11.5086 18.625ZM7.50001 7.06251C7.50001 7.24793 7.44502 7.42918 7.34201 7.58335C7.239 7.73752 7.09258 7.85769 6.92127 7.92864C6.74997 7.9996 6.56147 8.01817 6.37961 7.98199C6.19775 7.94582 6.03071 7.85653 5.89959 7.72542C5.76848 7.59431 5.67919 7.42726 5.64302 7.2454C5.60685 7.06355 5.62541 6.87505 5.69637 6.70374C5.76733 6.53243 5.88749 6.38602 6.04166 6.283C6.19583 6.17999 6.37709 6.12501 6.56251 6.12501C6.81115 6.12501 7.0496 6.22378 7.22542 6.39959C7.40123 6.57541 7.50001 6.81387 7.50001 7.06251Z" fill="#38B6FF"/>
</g>
</svg>
