<svg width="20" height="21" viewBox="0 0 20 21" fill="none" xmlns="http://www.w3.org/2000/svg">
<g id="Trophy">
<path id="Vector" d="M18.125 5.5H16.25V4.875C16.25 4.54348 16.1183 4.22554 15.8839 3.99112C15.6495 3.7567 15.3315 3.625 15 3.625H5C4.66848 3.625 4.35054 3.7567 4.11612 3.99112C3.8817 4.22554 3.75 4.54348 3.75 4.875V5.5H1.875C1.54348 5.5 1.22554 5.6317 0.991117 5.86612C0.756696 6.10054 0.625 6.41848 0.625 6.75V8C0.625 8.8288 0.95424 9.62366 1.54029 10.2097C1.83047 10.4999 2.17497 10.7301 2.55411 10.8871C2.93326 11.0442 3.33962 11.125 3.75 11.125H4.03516C4.40332 12.2917 5.10529 13.325 6.0543 14.0971C7.00331 14.8693 8.15777 15.3464 9.375 15.4695V17.375H7.5C7.33424 17.375 7.17527 17.4408 7.05806 17.5581C6.94085 17.6753 6.875 17.8342 6.875 18C6.875 18.1658 6.94085 18.3247 7.05806 18.4419C7.17527 18.5592 7.33424 18.625 7.5 18.625H12.5C12.6658 18.625 12.8247 18.5592 12.9419 18.4419C13.0592 18.3247 13.125 18.1658 13.125 18C13.125 17.8342 13.0592 17.6753 12.9419 17.5581C12.8247 17.4408 12.6658 17.375 12.5 17.375H10.625V15.4672C13.1203 15.2148 15.1906 13.4641 15.9438 11.125H16.25C17.0788 11.125 17.8737 10.7958 18.4597 10.2097C19.0458 9.62366 19.375 8.8288 19.375 8V6.75C19.375 6.41848 19.2433 6.10054 19.0089 5.86612C18.7745 5.6317 18.4565 5.5 18.125 5.5ZM3.75 9.875C3.25272 9.875 2.77581 9.67746 2.42417 9.32583C2.07254 8.97419 1.875 8.49728 1.875 8V6.75H3.75V9.25C3.75 9.45833 3.76016 9.66667 3.78047 9.875H3.75ZM15 9.17969C15 11.9547 12.7742 14.2297 10.0383 14.25H10C8.67392 14.25 7.40215 13.7232 6.46447 12.7855C5.52678 11.8479 5 10.5761 5 9.25V4.875H15V9.17969ZM18.125 8C18.125 8.49728 17.9275 8.97419 17.5758 9.32583C17.2242 9.67746 16.7473 9.875 16.25 9.875H16.2109C16.2366 9.64411 16.2496 9.412 16.25 9.17969V6.75H18.125V8Z" fill="#38B6FF"/>
</g>
</svg>
