<svg width="20" height="21" viewBox="0 0 20 21" fill="none" xmlns="http://www.w3.org/2000/svg">
<g id="Star">
<path id="Vector" d="M18.6875 8.10063C18.6118 7.86733 18.4692 7.66146 18.2773 7.50865C18.0855 7.35584 17.8529 7.26285 17.6086 7.24125L12.9688 6.84125L11.15 2.51625C11.0553 2.28931 10.8956 2.09546 10.691 1.95911C10.4863 1.82276 10.2459 1.75 10 1.75C9.75411 1.75 9.51371 1.82276 9.30907 1.95911C9.10443 2.09546 8.94471 2.28931 8.85002 2.51625L7.03674 6.84125L2.39142 7.24359C2.14614 7.26421 1.9124 7.35678 1.71952 7.5097C1.52663 7.66262 1.38319 7.86909 1.30718 8.10321C1.23117 8.33733 1.22598 8.58868 1.29225 8.82574C1.35852 9.0628 1.49331 9.27502 1.6797 9.43578L5.20392 12.5155L4.14767 17.0889C4.09182 17.3282 4.10776 17.5787 4.19349 17.809C4.27923 18.0394 4.43095 18.2393 4.6297 18.3839C4.82845 18.5284 5.0654 18.6112 5.31093 18.6218C5.55647 18.6324 5.79968 18.5704 6.01017 18.4436L9.99455 16.0217L13.9875 18.4436C14.198 18.5704 14.4412 18.6324 14.6868 18.6218C14.9323 18.6112 15.1692 18.5284 15.368 18.3839C15.5667 18.2393 15.7185 18.0394 15.8042 17.809C15.8899 17.5787 15.9059 17.3282 15.85 17.0889L14.7945 12.5108L18.318 9.43578C18.5044 9.27446 18.6389 9.06164 18.7046 8.82408C18.7704 8.58651 18.7644 8.33481 18.6875 8.10063ZM17.4985 8.49125L13.975 11.5662C13.8035 11.7154 13.676 11.9085 13.606 12.1248C13.5361 12.341 13.5265 12.5723 13.5781 12.7936L14.6367 17.3748L10.6469 14.953C10.4522 14.8344 10.2287 14.7717 10.0008 14.7717C9.77289 14.7717 9.54936 14.8344 9.35471 14.953L5.37033 17.3748L6.42189 12.7967C6.47357 12.5754 6.46393 12.3442 6.394 12.1279C6.32407 11.9116 6.1965 11.7185 6.02502 11.5694L2.50002 8.49594C2.49973 8.4936 2.49973 8.49124 2.50002 8.48891L7.14377 8.08734C7.37049 8.06736 7.58745 7.98585 7.77125 7.85162C7.95505 7.71738 8.09871 7.53551 8.18674 7.32563L10 3.00609L11.8125 7.32563C11.9005 7.53551 12.0442 7.71738 12.228 7.85162C12.4118 7.98585 12.6288 8.06736 12.8555 8.08734L17.5 8.48891C17.5 8.48891 17.5 8.49359 17.5 8.49438L17.4985 8.49125Z" fill="#38B6FF"/>
</g>
</svg>
