<svg width="26" height="26" viewBox="0 0 26 26" fill="none" xmlns="http://www.w3.org/2000/svg">
<g id="FilePdf">
<path id="Vector" d="M22.75 15.4375C22.75 15.653 22.6644 15.8597 22.512 16.012C22.3597 16.1644 22.153 16.25 21.9375 16.25H19.5V17.875H21.125C21.3405 17.875 21.5472 17.9606 21.6995 18.113C21.8519 18.2653 21.9375 18.472 21.9375 18.6875C21.9375 18.903 21.8519 19.1097 21.6995 19.262C21.5472 19.4144 21.3405 19.5 21.125 19.5H19.5V21.125C19.5 21.3405 19.4144 21.5472 19.262 21.6995C19.1097 21.8519 18.903 21.9375 18.6875 21.9375C18.472 21.9375 18.2653 21.8519 18.113 21.6995C17.9606 21.5472 17.875 21.3405 17.875 21.125V15.4375C17.875 15.222 17.9606 15.0153 18.113 14.863C18.2653 14.7106 18.472 14.625 18.6875 14.625H21.9375C22.153 14.625 22.3597 14.7106 22.512 14.863C22.6644 15.0153 22.75 15.222 22.75 15.4375ZM9.34375 17.4688C9.34375 18.223 9.04414 18.9463 8.51083 19.4796C7.97753 20.0129 7.25421 20.3125 6.5 20.3125H5.6875V21.125C5.6875 21.3405 5.6019 21.5472 5.44952 21.6995C5.29715 21.8519 5.09049 21.9375 4.875 21.9375C4.65951 21.9375 4.45285 21.8519 4.30048 21.6995C4.1481 21.5472 4.0625 21.3405 4.0625 21.125V15.4375C4.0625 15.222 4.1481 15.0153 4.30048 14.863C4.45285 14.7106 4.65951 14.625 4.875 14.625H6.5C7.25421 14.625 7.97753 14.9246 8.51083 15.4579C9.04414 15.9912 9.34375 16.7145 9.34375 17.4688ZM7.71875 17.4688C7.71875 17.1455 7.59035 16.8355 7.36179 16.607C7.13323 16.3784 6.82323 16.25 6.5 16.25H5.6875V18.6875H6.5C6.82323 18.6875 7.13323 18.5591 7.36179 18.3305C7.59035 18.102 7.71875 17.792 7.71875 17.4688ZM16.6562 18.2812C16.6562 19.2509 16.271 20.1809 15.5854 20.8666C14.8997 21.5523 13.9697 21.9375 13 21.9375H11.375C11.1595 21.9375 10.9528 21.8519 10.8005 21.6995C10.6481 21.5472 10.5625 21.3405 10.5625 21.125V15.4375C10.5625 15.222 10.6481 15.0153 10.8005 14.863C10.9528 14.7106 11.1595 14.625 11.375 14.625H13C13.9697 14.625 14.8997 15.0102 15.5854 15.6959C16.271 16.3816 16.6562 17.3116 16.6562 18.2812ZM15.0312 18.2812C15.0312 17.7425 14.8172 17.2259 14.4363 16.8449C14.0554 16.464 13.5387 16.25 13 16.25H12.1875V20.3125H13C13.5387 20.3125 14.0554 20.0985 14.4363 19.7176C14.8172 19.3366 15.0312 18.82 15.0312 18.2812ZM4.0625 11.375V4.0625C4.0625 3.63152 4.2337 3.2182 4.53845 2.91345C4.8432 2.60871 5.25652 2.4375 5.6875 2.4375H15.4375C15.5442 2.43742 15.6499 2.45836 15.7486 2.49914C15.8472 2.53992 15.9368 2.59973 16.0123 2.67516L21.6998 8.36266C21.7753 8.43817 21.8351 8.5278 21.8759 8.62643C21.9166 8.72507 21.9376 8.83077 21.9375 8.9375V11.375C21.9375 11.5905 21.8519 11.7972 21.6995 11.9495C21.5472 12.1019 21.3405 12.1875 21.125 12.1875C20.9095 12.1875 20.7028 12.1019 20.5505 11.9495C20.3981 11.7972 20.3125 11.5905 20.3125 11.375V9.75H15.4375C15.222 9.75 15.0153 9.6644 14.863 9.51202C14.7106 9.35965 14.625 9.15299 14.625 8.9375V4.0625H5.6875V11.375C5.6875 11.5905 5.6019 11.7972 5.44952 11.9495C5.29715 12.1019 5.09049 12.1875 4.875 12.1875C4.65951 12.1875 4.45285 12.1019 4.30048 11.9495C4.1481 11.7972 4.0625 11.5905 4.0625 11.375ZM16.25 8.125H19.1638L16.25 5.21117V8.125Z" fill="#38B6FF"/>
</g>
</svg>
