<svg width="20" height="20" viewBox="0 0 20 20" fill="none" xmlns="http://www.w3.org/2000/svg">
<g id="Bell">
<path id="Vector" d="M17.3284 13.7453C16.8948 12.9984 16.2503 10.8852 16.2503 8.125C16.2503 6.4674 15.5918 4.87769 14.4197 3.70558C13.2476 2.53348 11.6579 1.875 10.0003 1.875C8.34271 1.875 6.753 2.53348 5.5809 3.70558C4.4088 4.87769 3.75032 6.4674 3.75032 8.125C3.75032 10.8859 3.105 12.9984 2.67141 13.7453C2.56068 13.9352 2.50198 14.1509 2.50123 14.3707C2.50047 14.5905 2.55769 14.8066 2.66711 14.9973C2.77653 15.1879 2.93428 15.3463 3.12446 15.4565C3.31464 15.5667 3.53051 15.6248 3.75032 15.625H6.9386C7.08279 16.3306 7.46627 16.9647 8.02417 17.4201C8.58207 17.8756 9.28014 18.1243 10.0003 18.1243C10.7205 18.1243 11.4186 17.8756 11.9765 17.4201C12.5344 16.9647 12.9178 16.3306 13.062 15.625H16.2503C16.4701 15.6247 16.6858 15.5665 16.8759 15.4562C17.066 15.346 17.2236 15.1875 17.3329 14.9969C17.4423 14.8063 17.4994 14.5903 17.4986 14.3705C17.4978 14.1508 17.4391 13.9351 17.3284 13.7453ZM10.0003 16.875C9.61267 16.8749 9.2346 16.7546 8.91813 16.5308C8.60165 16.3069 8.36234 15.9905 8.23313 15.625H11.7675C11.6383 15.9905 11.399 16.3069 11.0825 16.5308C10.766 16.7546 10.388 16.8749 10.0003 16.875ZM3.75032 14.375C4.35188 13.3406 5.00032 10.9438 5.00032 8.125C5.00032 6.79892 5.5271 5.52715 6.46478 4.58947C7.40246 3.65178 8.67423 3.125 10.0003 3.125C11.3264 3.125 12.5982 3.65178 13.5358 4.58947C14.4735 5.52715 15.0003 6.79892 15.0003 8.125C15.0003 10.9414 15.6472 13.3383 16.2503 14.375H3.75032Z" fill="white"/>
</g>
</svg>
