<svg width="20" height="20" viewBox="0 0 20 20" fill="none" xmlns="http://www.w3.org/2000/svg">
<g id="Bell">
<path id="Vector" d="M17.3292 13.7453C16.8956 12.9984 16.251 10.8852 16.251 8.125C16.251 6.4674 15.5926 4.87769 14.4205 3.70558C13.2484 2.53348 11.6587 1.875 10.001 1.875C8.34344 1.875 6.75373 2.53348 5.58163 3.70558C4.40953 4.87769 3.75105 6.4674 3.75105 8.125C3.75105 10.8859 3.10574 12.9984 2.67214 13.7453C2.56142 13.9352 2.50272 14.1509 2.50196 14.3707C2.50121 14.5905 2.55842 14.8066 2.66784 14.9973C2.77726 15.1879 2.93502 15.3463 3.12519 15.4565C3.31537 15.5667 3.53124 15.6248 3.75105 15.625H6.93933C7.08353 16.3306 7.467 16.9647 8.0249 17.4201C8.5828 17.8756 9.28087 18.1243 10.001 18.1243C10.7212 18.1243 11.4193 17.8756 11.9772 17.4201C12.5351 16.9647 12.9186 16.3306 13.0628 15.625H16.251C16.4708 15.6247 16.6866 15.5665 16.8766 15.4562C17.0667 15.346 17.2243 15.1875 17.3337 14.9969C17.443 14.8063 17.5001 14.5903 17.4994 14.3705C17.4986 14.1508 17.4399 13.9351 17.3292 13.7453ZM10.001 16.875C9.61341 16.8749 9.23533 16.7546 8.91886 16.5308C8.60239 16.3069 8.36307 15.9905 8.23386 15.625H11.7682C11.639 15.9905 11.3997 16.3069 11.0832 16.5308C10.7668 16.7546 10.3887 16.8749 10.001 16.875ZM3.75105 14.375C4.35261 13.3406 5.00105 10.9438 5.00105 8.125C5.00105 6.79892 5.52783 5.52715 6.46551 4.58947C7.4032 3.65178 8.67497 3.125 10.001 3.125C11.3271 3.125 12.5989 3.65178 13.5366 4.58947C14.4743 5.52715 15.001 6.79892 15.001 8.125C15.001 10.9414 15.6479 13.3383 16.251 14.375H3.75105Z" fill="#1E3F5F"/>
</g>
</svg>
