<svg width="188" height="151" viewBox="0 0 188 151" fill="none" xmlns="http://www.w3.org/2000/svg">
<g id="Group 26808">
<path id="Ellipse 653" d="M75.5 150.5C116.921 150.5 150.5 116.921 150.5 75.5C150.5 34.0786 116.921 0.5 75.5 0.5C34.0786 0.5 0.5 34.0786 0.5 75.5C0.5 116.921 34.0786 150.5 75.5 150.5Z" fill="#173755"/>
<g id="Mask Group 3">
<g id="Group 26805">
<g id="Group" filter="url(#filter0_d_4969_251919)">
<path id="Path 25918" d="M41.5 34.5H176.5C177.826 34.5 179.098 35.0268 180.036 35.9645C180.973 36.9021 181.5 38.1739 181.5 39.5V64.5C181.5 65.8261 180.973 67.0979 180.036 68.0355C179.098 68.9732 177.826 69.5 176.5 69.5H41.5C40.1739 69.5 38.9021 68.9732 37.9645 68.0355C37.0268 67.0979 36.5 65.8261 36.5 64.5V39.5C36.5 38.1739 37.0268 36.9021 37.9645 35.9645C38.9021 35.0268 40.1739 34.5 41.5 34.5V34.5Z" fill="white"/>
</g>
<g id="Group 26775">
<path id="Rectangle 5617" d="M105.5 42.5H79.5C77.8431 42.5 76.5 43.8431 76.5 45.5C76.5 47.1569 77.8431 48.5 79.5 48.5H105.5C107.157 48.5 108.5 47.1569 108.5 45.5C108.5 43.8431 107.157 42.5 105.5 42.5Z" fill="#D2ECFD"/>
<path id="Rectangle 5618" d="M123.5 55.5H79.5C77.8431 55.5 76.5 56.8431 76.5 58.5C76.5 60.1569 77.8431 61.5 79.5 61.5H123.5C125.157 61.5 126.5 60.1569 126.5 58.5C126.5 56.8431 125.157 55.5 123.5 55.5Z" fill="#DEE9FC"/>
</g>
<g id="Group 26804">
<path id="Rectangle 5624" d="M68.5 52C68.5 43.9919 62.0081 37.5 54 37.5C45.9919 37.5 39.5 43.9919 39.5 52C39.5 60.0081 45.9919 66.5 54 66.5C62.0081 66.5 68.5 60.0081 68.5 52Z" fill="#38B6FF"/>
<g id="bx-search">
<path id="Path 25920" d="M53.1 56.6939C54.3413 56.6937 55.5469 56.2784 56.525 55.5139L59.6 58.5889L60.589 57.5999L57.513 54.5239C58.2858 53.5247 58.6974 52.2932 58.6807 51.0302C58.6641 49.7671 58.2201 48.5469 57.4212 47.5684C56.6223 46.59 55.5155 45.911 54.2813 45.6421C53.047 45.3731 51.7581 45.5302 50.6245 46.0876C49.491 46.645 48.5796 47.5699 48.039 48.7115C47.4984 49.8532 47.3604 51.1443 47.6475 52.3744C47.9346 53.6046 48.6299 54.7012 49.62 55.4856C50.6102 56.27 51.8368 56.6959 53.1 56.6939ZM53.1 46.8999C53.9306 46.8999 54.7427 47.1462 55.4334 47.6077C56.124 48.0692 56.6624 48.7252 56.9803 49.4926C57.2981 50.2601 57.3813 51.1046 57.2193 51.9193C57.0572 52.734 56.6572 53.4824 56.0698 54.0698C55.4824 54.6571 54.7341 55.0572 53.9193 55.2192C53.1046 55.3813 52.2601 55.2981 51.4927 54.9802C50.7252 54.6623 50.0693 54.124 49.6078 53.4333C49.1463 52.7426 48.9 51.9306 48.9 51.0999C48.9 49.986 49.3425 48.9177 50.1301 48.1301C50.9178 47.3424 51.9861 46.8999 53.1 46.8999Z" fill="white"/>
</g>
</g>
</g>
<g id="Group 26784">
<g id="Group_2" filter="url(#filter1_d_4969_251919)">
<path id="Rectangle 5623" d="M161.5 79.5H26.5C23.7386 79.5 21.5 81.7386 21.5 84.5V109.5C21.5 112.261 23.7386 114.5 26.5 114.5H161.5C164.261 114.5 166.5 112.261 166.5 109.5V84.5C166.5 81.7386 164.261 79.5 161.5 79.5Z" fill="white"/>
</g>
<g id="Group 26775_2">
<path id="Rectangle 5617_2" d="M90.5 87.5H64.5C62.8431 87.5 61.5 88.8431 61.5 90.5C61.5 92.1569 62.8431 93.5 64.5 93.5H90.5C92.1569 93.5 93.5 92.1569 93.5 90.5C93.5 88.8431 92.1569 87.5 90.5 87.5Z" fill="#D2ECFD"/>
<path id="Rectangle 5618_2" d="M108.5 100.5H64.5C62.8431 100.5 61.5 101.843 61.5 103.5C61.5 105.157 62.8431 106.5 64.5 106.5H108.5C110.157 106.5 111.5 105.157 111.5 103.5C111.5 101.843 110.157 100.5 108.5 100.5Z" fill="#DEE9FC"/>
</g>
<g id="Group 26807">
<path id="Rectangle 5624_2" d="M53.5 97C53.5 88.9919 47.0081 82.5 39 82.5C30.9919 82.5 24.5 88.9919 24.5 97C24.5 105.008 30.9919 111.5 39 111.5C47.0081 111.5 53.5 105.008 53.5 97Z" fill="#38B6FF"/>
<g id="bx-search_2">
<path id="Path 25920_2" d="M38.1 101.694C39.3413 101.694 40.5469 101.278 41.525 100.514L44.6 103.589L45.589 102.6L42.513 99.5239C43.2858 98.5247 43.6974 97.2932 43.6807 96.0302C43.6641 94.7671 43.2201 93.5469 42.4212 92.5684C41.6223 91.59 40.5155 90.911 39.2813 90.6421C38.047 90.3731 36.7581 90.5302 35.6245 91.0876C34.491 91.645 33.5796 92.5699 33.039 93.7115C32.4984 94.8532 32.3604 96.1443 32.6475 97.3744C32.9346 98.6046 33.6299 99.7012 34.62 100.486C35.6102 101.27 36.8368 101.696 38.1 101.694ZM38.1 91.8999C38.9306 91.8999 39.7427 92.1462 40.4334 92.6077C41.124 93.0692 41.6624 93.7252 41.9803 94.4926C42.2981 95.2601 42.3813 96.1046 42.2193 96.9193C42.0572 97.734 41.6572 98.4824 41.0698 99.0698C40.4824 99.6571 39.7341 100.057 38.9193 100.219C38.1046 100.381 37.2601 100.298 36.4927 99.9802C35.7252 99.6623 35.0693 99.124 34.6078 98.4333C34.1463 97.7426 33.9 96.9306 33.9 96.0999C33.9 94.986 34.3425 93.9177 35.1301 93.1301C35.9178 92.3424 36.9861 91.8999 38.1 91.8999Z" fill="white"/>
</g>
</g>
</g>
</g>
</g>
<defs>
<filter id="filter0_d_4969_251919" x="30.5" y="31.5" width="157" height="47" filterUnits="userSpaceOnUse" color-interpolation-filters="sRGB">
<feFlood flood-opacity="0" result="BackgroundImageFix"/>
<feColorMatrix in="SourceAlpha" type="matrix" values="0 0 0 0 0 0 0 0 0 0 0 0 0 0 0 0 0 0 127 0" result="hardAlpha"/>
<feOffset dy="3"/>
<feGaussianBlur stdDeviation="3"/>
<feColorMatrix type="matrix" values="0 0 0 0 0 0 0 0 0 0 0 0 0 0 0 0 0 0 0.161 0"/>
<feBlend mode="normal" in2="BackgroundImageFix" result="effect1_dropShadow_4969_251919"/>
<feBlend mode="normal" in="SourceGraphic" in2="effect1_dropShadow_4969_251919" result="shape"/>
</filter>
<filter id="filter1_d_4969_251919" x="15.5" y="76.5" width="157" height="47" filterUnits="userSpaceOnUse" color-interpolation-filters="sRGB">
<feFlood flood-opacity="0" result="BackgroundImageFix"/>
<feColorMatrix in="SourceAlpha" type="matrix" values="0 0 0 0 0 0 0 0 0 0 0 0 0 0 0 0 0 0 127 0" result="hardAlpha"/>
<feOffset dy="3"/>
<feGaussianBlur stdDeviation="3"/>
<feColorMatrix type="matrix" values="0 0 0 0 0 0 0 0 0 0 0 0 0 0 0 0 0 0 0.161 0"/>
<feBlend mode="normal" in2="BackgroundImageFix" result="effect1_dropShadow_4969_251919"/>
<feBlend mode="normal" in="SourceGraphic" in2="effect1_dropShadow_4969_251919" result="shape"/>
</filter>
</defs>
</svg>
