<svg width="150" height="179" viewBox="0 0 150 179" fill="none" xmlns="http://www.w3.org/2000/svg">
<g id="Mask Group 6">
<path id="Ellipse 653" d="M75 167C116.421 167 150 133.421 150 92C150 50.5786 116.421 17 75 17C33.5786 17 0 50.5786 0 92C0 133.421 33.5786 167 75 167Z" fill="#173755"/>
<path id="Subtraction 1" d="M120 167H30V70C34.242 69.9952 38.3089 68.308 41.3084 65.3085C44.308 62.3089 45.9952 58.242 46 54H104C103.996 56.1014 104.408 58.1828 105.213 60.1238C106.018 62.0648 107.2 63.8268 108.691 65.308C110.172 66.7991 111.934 67.9816 113.875 68.787C115.817 69.5924 117.898 70.0047 120 70V167Z" fill="white"/>
<path id="Ellipse 665" d="M75 119C88.2548 119 99 108.255 99 95C99 81.7452 88.2548 71 75 71C61.7452 71 51 81.7452 51 95C51 108.255 61.7452 119 75 119Z" fill="#38B6FF"/>
<g id="ic_add_48px">
<path id="Path 25936" d="M83.4853 106.314L75 97.8286L66.5147 106.314L63.6863 103.485L72.1716 95.0001L63.6863 86.5148L66.5147 83.6864L75 92.1717L83.4853 83.6864L86.3137 86.5148L77.8284 95.0001L86.3137 103.485L83.4853 106.314Z" fill="white"/>
</g>
<path id="Rectangle 5617" d="M88 125H62C60.3431 125 59 126.343 59 128C59 129.657 60.3431 131 62 131H88C89.6569 131 91 129.657 91 128C91 126.343 89.6569 125 88 125Z" fill="#D2ECFD"/>
<path id="Rectangle 5618" d="M97 137H53C51.3431 137 50 138.343 50 140C50 141.657 51.3431 143 53 143H97C98.6569 143 100 141.657 100 140C100 138.343 98.6569 137 97 137Z" fill="#D2ECFD"/>
<g id="Group 26780">
<g id="Mask Group 1">
<path id="Ellipse 652" d="M75 167.5C116.421 167.5 150 133.921 150 92.5C150 51.0786 116.421 17.5 75 17.5C33.5786 17.5 0 51.0786 0 92.5C0 133.921 33.5786 167.5 75 167.5Z" fill="#173755"/>
<g id="Group" filter="url(#filter0_d_4969_251594)">
<path id="Rectangle 5615" d="M118 60.5H32C29.2386 60.5 27 62.7386 27 65.5V170.5C27 173.261 29.2386 175.5 32 175.5H118C120.761 175.5 123 173.261 123 170.5V65.5C123 62.7386 120.761 60.5 118 60.5Z" fill="white"/>
</g>
<g id="Group 26776">
<path id="Rectangle 5617_2" d="M65 75.5H39C37.3431 75.5 36 76.8431 36 78.5C36 80.1569 37.3431 81.5 39 81.5H65C66.6569 81.5 68 80.1569 68 78.5C68 76.8431 66.6569 75.5 65 75.5Z" fill="#D2ECFD"/>
<path id="Rectangle 5618_2" d="M83 88.5H39C37.3431 88.5 36 89.8431 36 91.5C36 93.1569 37.3431 94.5 39 94.5H83C84.6569 94.5 86 93.1569 86 91.5C86 89.8431 84.6569 88.5 83 88.5Z" fill="#F8FAFC"/>
</g>
<g id="Group 26777">
<path id="Rectangle 5617_3" d="M65 102.5H39C37.3431 102.5 36 103.843 36 105.5C36 107.157 37.3431 108.5 39 108.5H65C66.6569 108.5 68 107.157 68 105.5C68 103.843 66.6569 102.5 65 102.5Z" fill="#D2ECFD"/>
<path id="Rectangle 5618_3" d="M83 115.5H39C37.3431 115.5 36 116.843 36 118.5C36 120.157 37.3431 121.5 39 121.5H83C84.6569 121.5 86 120.157 86 118.5C86 116.843 84.6569 115.5 83 115.5Z" fill="#F8FAFC"/>
</g>
<g id="Group 26778">
<path id="Rectangle 5617_4" d="M65 129.5H39C37.3431 129.5 36 130.843 36 132.5C36 134.157 37.3431 135.5 39 135.5H65C66.6569 135.5 68 134.157 68 132.5C68 130.843 66.6569 129.5 65 129.5Z" fill="#D2ECFD"/>
<path id="Rectangle 5618_4" d="M83 142.5H39C37.3431 142.5 36 143.843 36 145.5C36 147.157 37.3431 148.5 39 148.5H83C84.6569 148.5 86 147.157 86 145.5C86 143.843 84.6569 142.5 83 142.5Z" fill="#F8FAFC"/>
</g>
</g>
<g id="Group 26779">
<g id="Group_2" filter="url(#filter1_d_4969_251594)">
<path id="Rectangle 5616" d="M118 9.5H32C29.2386 9.5 27 11.7386 27 14.5V44.5C27 47.2614 29.2386 49.5 32 49.5H118C120.761 49.5 123 47.2614 123 44.5V14.5C123 11.7386 120.761 9.5 118 9.5Z" fill="#38B6FF"/>
</g>
<g id="Group 26775">
<path id="Rectangle 5617_5" d="M65 20.5H39C37.3431 20.5 36 21.8431 36 23.5C36 25.1569 37.3431 26.5 39 26.5H65C66.6569 26.5 68 25.1569 68 23.5C68 21.8431 66.6569 20.5 65 20.5Z" fill="#D2ECFD"/>
<path id="Rectangle 5618_5" d="M83 33.5H39C37.3431 33.5 36 34.8431 36 36.5C36 38.1569 37.3431 39.5 39 39.5H83C84.6569 39.5 86 38.1569 86 36.5C86 34.8431 84.6569 33.5 83 33.5Z" fill="#F8FAFC"/>
</g>
</g>
</g>
</g>
<defs>
<filter id="filter0_d_4969_251594" x="21" y="51.5" width="108" height="127" filterUnits="userSpaceOnUse" color-interpolation-filters="sRGB">
<feFlood flood-opacity="0" result="BackgroundImageFix"/>
<feColorMatrix in="SourceAlpha" type="matrix" values="0 0 0 0 0 0 0 0 0 0 0 0 0 0 0 0 0 0 127 0" result="hardAlpha"/>
<feOffset dy="-3"/>
<feGaussianBlur stdDeviation="3"/>
<feColorMatrix type="matrix" values="0 0 0 0 0.788235 0 0 0 0 0.803922 0 0 0 0 0.85098 0 0 0 0.349 0"/>
<feBlend mode="normal" in2="BackgroundImageFix" result="effect1_dropShadow_4969_251594"/>
<feBlend mode="normal" in="SourceGraphic" in2="effect1_dropShadow_4969_251594" result="shape"/>
</filter>
<filter id="filter1_d_4969_251594" x="21" y="0.5" width="108" height="52" filterUnits="userSpaceOnUse" color-interpolation-filters="sRGB">
<feFlood flood-opacity="0" result="BackgroundImageFix"/>
<feColorMatrix in="SourceAlpha" type="matrix" values="0 0 0 0 0 0 0 0 0 0 0 0 0 0 0 0 0 0 127 0" result="hardAlpha"/>
<feOffset dy="-3"/>
<feGaussianBlur stdDeviation="3"/>
<feColorMatrix type="matrix" values="0 0 0 0 0.788235 0 0 0 0 0.803922 0 0 0 0 0.85098 0 0 0 0.349 0"/>
<feBlend mode="normal" in2="BackgroundImageFix" result="effect1_dropShadow_4969_251594"/>
<feBlend mode="normal" in="SourceGraphic" in2="effect1_dropShadow_4969_251594" result="shape"/>
</filter>
</defs>
</svg>
