<svg width="16" height="16" viewBox="0 0 16 16" fill="none" xmlns="http://www.w3.org/2000/svg">
<g id="Bold">
<path id="Vector" fill-rule="evenodd" clip-rule="evenodd" d="M3 2C3 1.72386 3.22386 1.5 3.5 1.5H9.16667C10.0865 1.5 10.9737 1.8459 11.6319 2.46946C12.291 3.09388 12.6667 3.94673 12.6667 4.84211C12.6667 5.73748 12.291 6.59033 11.6319 7.21475C11.5676 7.27564 11.5011 7.33388 11.4327 7.38941C11.9659 7.56739 12.4574 7.85762 12.8676 8.24616C13.5892 8.9298 14 9.86298 14 10.8421C14 11.8212 13.5892 12.7544 12.8676 13.4381C12.1469 14.1208 11.1749 14.5 10.1667 14.5H3.5C3.22386 14.5 3 14.2761 3 14V2ZM4 8.18421V13.5H10.1667C10.9266 13.5 11.6503 13.2138 12.1798 12.7121C12.7084 12.2113 13 11.538 13 10.8421C13 10.1462 12.7084 9.47291 12.1798 8.97211C11.6503 8.47045 10.9266 8.18421 10.1667 8.18421H4ZM9.16667 7.18421H4V2.5H9.16667C9.83817 2.5 10.4771 2.75297 10.9441 3.19541C11.4102 3.63698 11.6667 4.22993 11.6667 4.84211C11.6667 5.45428 11.4102 6.04723 10.9441 6.4888C10.4771 6.93124 9.83817 7.18421 9.16667 7.18421Z" fill="#38B6FF"/>
</g>
</svg>
