<svg width="16" height="16" viewBox="0 0 16 16" fill="none" xmlns="http://www.w3.org/2000/svg">
<g id="Italic">
<path id="Vector" fill-rule="evenodd" clip-rule="evenodd" d="M10.0508 1.50001H6.625C6.34886 1.50001 6.125 1.72387 6.125 2.00001C6.125 2.27616 6.34886 2.50001 6.625 2.50001H9.36191L5.58066 13.5H2.5C2.22386 13.5 2 13.7239 2 14C2 14.2762 2.22386 14.5 2.5 14.5H5.92589C5.93367 14.5002 5.94143 14.5002 5.94917 14.5H9.375C9.65114 14.5 9.875 14.2762 9.875 14C9.875 13.7239 9.65114 13.5 9.375 13.5H6.63809L10.4193 2.50001H13.5C13.7761 2.50001 14 2.27616 14 2.00001C14 1.72387 13.7761 1.50001 13.5 1.50001H10.0741C10.0663 1.49983 10.0586 1.49983 10.0508 1.50001Z" fill="#717D8C"/>
</g>
</svg>
