<svg width="16" height="16" viewBox="0 0 16 16" fill="none" xmlns="http://www.w3.org/2000/svg">
<g id="Strikethrough">
<path id="Vector" fill-rule="evenodd" clip-rule="evenodd" d="M8 2.5C5.87509 2.5 4.59335 3.72529 4.59335 5V5.0033H4.59334C4.59234 5.15492 4.615 5.30565 4.66039 5.44987C4.74331 5.71327 4.597 5.99401 4.3336 6.07693C4.0702 6.15984 3.78945 6.01353 3.70654 5.75013C3.63002 5.50705 3.59184 5.25335 3.59335 4.99839C3.59439 2.96044 5.56226 1.5 8 1.5C9.84006 1.5 11.3062 2.30672 11.9852 3.56213C12.1166 3.80502 12.0262 4.10842 11.7833 4.23979C11.5404 4.37117 11.237 4.28076 11.1057 4.03787C10.6383 3.17378 9.55766 2.5 8 2.5ZM11.2339 8.5H14.5C14.7761 8.5 15 8.27614 15 8C15 7.72386 14.7761 7.5 14.5 7.5H8.77937C8.77175 7.49983 8.76415 7.49983 8.75658 7.5H1.5C1.22386 7.5 1 7.72386 1 8C1 8.27614 1.22386 8.5 1.5 8.5H8.69523C9.54813 8.75581 10.2887 9.03588 10.8181 9.42957C11.3339 9.81311 11.6364 10.2923 11.6364 11C11.6364 11.6284 11.2861 12.2416 10.6313 12.7165C9.97709 13.1911 9.04841 13.5 8 13.5C6.95159 13.5 6.02291 13.1911 5.36866 12.7165C4.71385 12.2416 4.36364 11.6284 4.36364 11C4.36364 10.7239 4.13978 10.5 3.86364 10.5C3.58749 10.5 3.36364 10.7239 3.36364 11C3.36364 12.0284 3.9393 12.9152 4.78153 13.526C5.62431 14.1373 6.76381 14.5 8 14.5C9.23619 14.5 10.3757 14.1373 11.2185 13.526C12.0607 12.9152 12.6364 12.0284 12.6364 11C12.6364 9.92499 12.1404 9.16664 11.4149 8.62712C11.356 8.58339 11.2957 8.54104 11.2339 8.5Z" fill="#99A7B9"/>
</g>
</svg>
