<svg width="20" height="20" viewBox="0 0 20 20" fill="none" xmlns="http://www.w3.org/2000/svg">
<g id="Buildings">
<path id="Vector" d="M18.75 16.2496H17.5V7.49959C17.5 7.16807 17.3683 6.85013 17.1339 6.61571C16.8995 6.38129 16.5815 6.24959 16.25 6.24959H11.25V2.49959C11.2501 2.27324 11.1888 2.05109 11.0726 1.85686C10.9563 1.66263 10.7895 1.50361 10.59 1.39677C10.3904 1.28993 10.1656 1.23929 9.93951 1.25024C9.71342 1.2612 9.49455 1.33334 9.30625 1.45897L3.05625 5.62459C2.8848 5.73898 2.74429 5.894 2.64724 6.07583C2.55019 6.25766 2.49961 6.46067 2.5 6.66678V16.2496H1.25C1.08424 16.2496 0.925268 16.3154 0.808058 16.4327C0.690848 16.5499 0.625 16.7088 0.625 16.8746C0.625 17.0404 0.690848 17.1993 0.808058 17.3165C0.925268 17.4337 1.08424 17.4996 1.25 17.4996H18.75C18.9158 17.4996 19.0747 17.4337 19.1919 17.3165C19.3092 17.1993 19.375 17.0404 19.375 16.8746C19.375 16.7088 19.3092 16.5499 19.1919 16.4327C19.0747 16.3154 18.9158 16.2496 18.75 16.2496ZM16.25 7.49959V16.2496H11.25V7.49959H16.25ZM3.75 6.66678L10 2.49959V16.2496H3.75V6.66678ZM8.75 8.74959V9.99959C8.75 10.1654 8.68415 10.3243 8.56694 10.4415C8.44973 10.5587 8.29076 10.6246 8.125 10.6246C7.95924 10.6246 7.80027 10.5587 7.68306 10.4415C7.56585 10.3243 7.5 10.1654 7.5 9.99959V8.74959C7.5 8.58383 7.56585 8.42486 7.68306 8.30765C7.80027 8.19044 7.95924 8.12459 8.125 8.12459C8.29076 8.12459 8.44973 8.19044 8.56694 8.30765C8.68415 8.42486 8.75 8.58383 8.75 8.74959ZM6.25 8.74959V9.99959C6.25 10.1654 6.18415 10.3243 6.06694 10.4415C5.94973 10.5587 5.79076 10.6246 5.625 10.6246C5.45924 10.6246 5.30027 10.5587 5.18306 10.4415C5.06585 10.3243 5 10.1654 5 9.99959V8.74959C5 8.58383 5.06585 8.42486 5.18306 8.30765C5.30027 8.19044 5.45924 8.12459 5.625 8.12459C5.79076 8.12459 5.94973 8.19044 6.06694 8.30765C6.18415 8.42486 6.25 8.58383 6.25 8.74959ZM6.25 13.1246V14.3746C6.25 14.5404 6.18415 14.6993 6.06694 14.8165C5.94973 14.9337 5.79076 14.9996 5.625 14.9996C5.45924 14.9996 5.30027 14.9337 5.18306 14.8165C5.06585 14.6993 5 14.5404 5 14.3746V13.1246C5 12.9588 5.06585 12.7999 5.18306 12.6827C5.30027 12.5654 5.45924 12.4996 5.625 12.4996C5.79076 12.4996 5.94973 12.5654 6.06694 12.6827C6.18415 12.7999 6.25 12.9588 6.25 13.1246ZM8.75 13.1246V14.3746C8.75 14.5404 8.68415 14.6993 8.56694 14.8165C8.44973 14.9337 8.29076 14.9996 8.125 14.9996C7.95924 14.9996 7.80027 14.9337 7.68306 14.8165C7.56585 14.6993 7.5 14.5404 7.5 14.3746V13.1246C7.5 12.9588 7.56585 12.7999 7.68306 12.6827C7.80027 12.5654 7.95924 12.4996 8.125 12.4996C8.29076 12.4996 8.44973 12.5654 8.56694 12.6827C8.68415 12.7999 8.75 12.9588 8.75 13.1246Z" fill="#38B6FF"/>
</g>
</svg>
