<svg width="20" height="20" viewBox="0 0 20 20" fill="none" xmlns="http://www.w3.org/2000/svg">
<g id="PhoneCall">
<path id="Vector" d="M11.8961 2.96312C11.9173 2.8838 11.954 2.80944 12.0039 2.74429C12.0539 2.67913 12.1162 2.62446 12.1873 2.5834C12.2584 2.54233 12.3369 2.51568 12.4183 2.50496C12.4997 2.49425 12.5824 2.49967 12.6617 2.52094C13.8204 2.82324 14.8775 3.42894 15.7242 4.27565C16.5709 5.12236 17.1766 6.17948 17.4789 7.33812C17.5002 7.41743 17.5056 7.50015 17.4949 7.58155C17.4842 7.66296 17.4575 7.74145 17.4165 7.81255C17.3754 7.88366 17.3207 7.94597 17.2556 7.99593C17.1904 8.0459 17.116 8.08253 17.0367 8.10375C16.9839 8.11762 16.9296 8.1247 16.875 8.12484C16.7373 8.12484 16.6034 8.07934 16.4942 7.99542C16.385 7.9115 16.3066 7.79386 16.2711 7.66078C16.0245 6.71494 15.5302 5.85196 14.8391 5.1608C14.1479 4.46964 13.2849 3.9753 12.3391 3.72875C12.2597 3.70762 12.1852 3.67104 12.12 3.62111C12.0548 3.57118 12 3.50888 11.9589 3.43777C11.9177 3.36666 11.891 3.28814 11.8802 3.2067C11.8695 3.12525 11.8749 3.04248 11.8961 2.96312ZM11.7141 6.22875C12.7914 6.51625 13.4836 7.20844 13.7711 8.28578C13.8066 8.41886 13.885 8.5365 13.9942 8.62042C14.1034 8.70434 14.2373 8.74984 14.375 8.74984C14.4296 8.7497 14.4839 8.74262 14.5367 8.72875C14.616 8.70753 14.6904 8.6709 14.7556 8.62093C14.8207 8.57097 14.8754 8.50866 14.9165 8.43755C14.9575 8.36645 14.9842 8.28796 14.9949 8.20655C15.0056 8.12515 15.0002 8.04243 14.9789 7.96312C14.5789 6.46625 13.5336 5.42094 12.0367 5.02094C11.9574 4.99975 11.8747 4.99439 11.7933 5.00517C11.712 5.01594 11.6335 5.04264 11.5624 5.08374C11.4914 5.12484 11.4291 5.17953 11.3792 5.24469C11.3293 5.30985 11.2927 5.38421 11.2715 5.46351C11.2503 5.54282 11.2449 5.62552 11.2557 5.7069C11.2665 5.78828 11.2932 5.86673 11.3343 5.93779C11.3754 6.00885 11.4301 6.07112 11.4952 6.12104C11.5604 6.17096 11.6348 6.20756 11.7141 6.22875ZM18.1156 13.678C17.9763 14.7366 17.4564 15.7083 16.6531 16.4116C15.8497 17.1149 14.8177 17.5018 13.75 17.4998C7.54688 17.4998 2.50001 12.453 2.50001 6.24984C2.49809 5.1821 2.88492 4.15017 3.58824 3.34679C4.29155 2.54341 5.26326 2.02352 6.32188 1.88422C6.58958 1.85153 6.86067 1.9063 7.09468 2.04034C7.3287 2.17438 7.51309 2.38052 7.62032 2.62797L9.27032 6.31156V6.32094C9.35242 6.51035 9.38633 6.71715 9.36901 6.92287C9.3517 7.12859 9.2837 7.32681 9.1711 7.49984C9.15704 7.52094 9.14219 7.54047 9.12657 7.56L7.50001 9.48812C8.08516 10.6772 9.32891 11.91 10.5336 12.4967L12.4352 10.8787C12.4538 10.8631 12.4734 10.8484 12.4938 10.835C12.6666 10.7197 12.8655 10.6493 13.0725 10.6302C13.2794 10.6111 13.4878 10.6439 13.6789 10.7256L13.6891 10.7303L17.3695 12.3795C17.6174 12.4864 17.8241 12.6706 17.9585 12.9047C18.093 13.1387 18.1481 13.41 18.1156 13.678ZM16.875 13.5217C16.875 13.5217 16.8695 13.5217 16.8664 13.5217L13.1945 11.8772L11.2922 13.4952C11.2737 13.5108 11.2544 13.5254 11.2344 13.5389C11.0545 13.6589 10.8466 13.7302 10.6309 13.7458C10.4152 13.7614 10.1992 13.7208 10.0039 13.628C8.54063 12.9209 7.08204 11.4733 6.37423 10.0256C6.2805 9.83176 6.23844 9.61697 6.25213 9.40208C6.26582 9.18718 6.33478 8.97947 6.45235 8.79906C6.4656 8.77788 6.48049 8.75776 6.49688 8.7389L8.12501 6.80844L6.48438 3.13656C6.48407 3.13344 6.48407 3.1303 6.48438 3.12719C5.72677 3.22601 5.03116 3.59763 4.52783 4.17243C4.0245 4.74724 3.74796 5.48581 3.75001 6.24984C3.7529 8.90112 4.8074 11.443 6.68214 13.3177C8.55687 15.1924 11.0987 16.2469 13.75 16.2498C14.5136 16.2525 15.2519 15.9769 15.8271 15.4747C16.4022 14.9724 16.7747 14.2779 16.875 13.5209V13.5217Z" fill="#38B6FF"/>
</g>
</svg>
