<svg width="20" height="20" viewBox="0 0 20 20" fill="none" xmlns="http://www.w3.org/2000/svg">
<g id="UserPlus">
<path id="Vector" d="M19.9998 10.6242C19.9998 10.79 19.934 10.9489 19.8167 11.0662C19.6995 11.1834 19.5406 11.2492 19.3748 11.2492H18.1248V12.4992C18.1248 12.665 18.059 12.8239 17.9417 12.9412C17.8245 13.0584 17.6656 13.1242 17.4998 13.1242C17.334 13.1242 17.1751 13.0584 17.0579 12.9412C16.9406 12.8239 16.8748 12.665 16.8748 12.4992V11.2492H15.6248C15.459 11.2492 15.3001 11.1834 15.1829 11.0662C15.0656 10.9489 14.9998 10.79 14.9998 10.6242C14.9998 10.4585 15.0656 10.2995 15.1829 10.1823C15.3001 10.0651 15.459 9.99922 15.6248 9.99922H16.8748V8.74922C16.8748 8.58346 16.9406 8.42449 17.0579 8.30728C17.1751 8.19007 17.334 8.12422 17.4998 8.12422C17.6656 8.12422 17.8245 8.19007 17.9417 8.30728C18.059 8.42449 18.1248 8.58346 18.1248 8.74922V9.99922H19.3748C19.5406 9.99922 19.6995 10.0651 19.8167 10.1823C19.934 10.2995 19.9998 10.4585 19.9998 10.6242ZM15.4787 15.2219C15.5854 15.3489 15.6373 15.5131 15.6229 15.6784C15.6086 15.8436 15.5292 15.9964 15.4021 16.1031C15.2751 16.2098 15.1109 16.2617 14.9457 16.2474C14.7804 16.233 14.6276 16.1536 14.5209 16.0266C12.949 14.1547 10.7881 13.1242 8.4373 13.1242C6.08652 13.1242 3.92558 14.1547 2.3537 16.0266C2.247 16.1535 2.09424 16.2328 1.92905 16.2471C1.76386 16.2614 1.59975 16.2094 1.47284 16.1027C1.34593 15.996 1.26661 15.8433 1.25233 15.6781C1.23804 15.5129 1.28996 15.3488 1.39667 15.2219C2.56386 13.8328 4.01542 12.8461 5.6287 12.318C4.64894 11.7077 3.89458 10.795 3.47975 9.71787C3.06491 8.64073 3.01218 7.45779 3.32952 6.34801C3.64687 5.23823 4.31702 4.262 5.2386 3.56701C6.16018 2.87203 7.28304 2.49609 8.4373 2.49609C9.59156 2.49609 10.7144 2.87203 11.636 3.56701C12.5576 4.262 13.2277 5.23823 13.5451 6.34801C13.8624 7.45779 13.8097 8.64073 13.3948 9.71787C12.98 10.795 12.2257 11.7077 11.2459 12.318C12.8592 12.8461 14.3107 13.8328 15.4787 15.2219ZM8.4373 11.8742C9.24078 11.8742 10.0262 11.636 10.6943 11.1896C11.3624 10.7432 11.8831 10.1087 12.1906 9.36637C12.498 8.62404 12.5785 7.80721 12.4217 7.01916C12.265 6.23112 11.8781 5.50725 11.3099 4.9391C10.7418 4.37095 10.0179 3.98403 9.22985 3.82728C8.4418 3.67053 7.62497 3.75098 6.88265 4.05846C6.14032 4.36594 5.50585 4.88664 5.05945 5.55471C4.61306 6.22279 4.3748 7.00823 4.3748 7.81172C4.37604 8.88878 4.80445 9.92137 5.56605 10.683C6.32764 11.4446 7.36024 11.873 8.4373 11.8742Z" fill="white"/>
</g>
</svg>
