<svg width="20" height="12" viewBox="0 0 20 12" fill="none" xmlns="http://www.w3.org/2000/svg">
<path id="Vector" d="M11.2491 2.24971C11.2491 2.08395 11.315 1.92498 11.4322 1.80777C11.5494 1.69056 11.7084 1.62471 11.8741 1.62471H19.3741C19.5399 1.62471 19.6989 1.69056 19.8161 1.80777C19.9333 1.92498 19.9991 2.08395 19.9991 2.24971C19.9991 2.41547 19.9333 2.57444 19.8161 2.69165C19.6989 2.80886 19.5399 2.87471 19.3741 2.87471H11.8741C11.7084 2.87471 11.5494 2.80886 11.4322 2.69165C11.315 2.57444 11.2491 2.41547 11.2491 2.24971ZM19.3741 5.37471H11.8741C11.7084 5.37471 11.5494 5.44056 11.4322 5.55777C11.315 5.67498 11.2491 5.83395 11.2491 5.99971C11.2491 6.16547 11.315 6.32444 11.4322 6.44165C11.5494 6.55887 11.7084 6.62471 11.8741 6.62471H19.3741C19.5399 6.62471 19.6989 6.55887 19.8161 6.44165C19.9333 6.32444 19.9991 6.16547 19.9991 5.99971C19.9991 5.83395 19.9333 5.67498 19.8161 5.55777C19.6989 5.44056 19.5399 5.37471 19.3741 5.37471ZM19.3741 9.12471H13.7491C13.5834 9.12471 13.4244 9.19056 13.3072 9.30777C13.19 9.42498 13.1241 9.58395 13.1241 9.74971C13.1241 9.91547 13.19 10.0744 13.3072 10.1917C13.4244 10.3089 13.5834 10.3747 13.7491 10.3747H19.3741C19.5399 10.3747 19.6989 10.3089 19.8161 10.1917C19.9333 10.0744 19.9991 9.91547 19.9991 9.74971C19.9991 9.58395 19.9333 9.42498 19.8161 9.30777C19.6989 9.19056 19.5399 9.12471 19.3741 9.12471ZM11.8546 10.8435C11.875 10.923 11.8796 11.0057 11.868 11.087C11.8565 11.1683 11.829 11.2465 11.7872 11.3172C11.7455 11.3878 11.6902 11.4496 11.6245 11.4988C11.5588 11.5481 11.4841 11.584 11.4046 11.6044C11.3537 11.6181 11.3011 11.625 11.2484 11.6247C11.1097 11.6248 10.975 11.5788 10.8654 11.4939C10.7558 11.4091 10.6775 11.2902 10.6429 11.156C10.1616 9.28565 8.27257 7.87471 6.24835 7.87471C4.22414 7.87471 2.33507 9.28487 1.85382 11.156C1.81238 11.3165 1.70885 11.4541 1.566 11.5383C1.42315 11.6226 1.25268 11.6466 1.0921 11.6052C0.931523 11.5637 0.793982 11.4602 0.709737 11.3174C0.625492 11.1745 0.601445 11.004 0.642885 10.8435C1.0796 9.14737 2.34913 7.77393 3.96007 7.09346C3.33978 6.6157 2.88459 5.95576 2.65834 5.20621C2.43209 4.45666 2.44612 3.65509 2.69847 2.91392C2.95082 2.17275 3.42882 1.52915 4.06545 1.07339C4.70208 0.617625 5.4654 0.372559 6.24835 0.372559C7.03131 0.372559 7.79462 0.617625 8.43125 1.07339C9.06788 1.52915 9.54589 2.17275 9.79824 2.91392C10.0506 3.65509 10.0646 4.45666 9.83837 5.20621C9.61211 5.95576 9.15692 6.6157 8.53664 7.09346C10.1484 7.77393 11.4179 9.14737 11.8546 10.8435ZM6.24914 6.62471C6.74359 6.62471 7.22694 6.47809 7.63806 6.20339C8.04918 5.92868 8.36962 5.53824 8.55883 5.08142C8.74805 4.62461 8.79756 4.12194 8.7011 3.63699C8.60464 3.15203 8.36653 2.70658 8.0169 2.35695C7.66727 2.00731 7.22181 1.76921 6.73686 1.67275C6.25191 1.57629 5.74924 1.62579 5.29243 1.81501C4.83561 2.00423 4.44516 2.32466 4.17046 2.73579C3.89576 3.14691 3.74913 3.63026 3.74913 4.12471C3.74913 4.78775 4.01253 5.42364 4.48137 5.89248C4.95021 6.36132 5.58609 6.62471 6.24914 6.62471Z" fill="#38B6FF"/>
</svg>
