<svg width="20" height="20" viewBox="0 0 20 20" fill="none" xmlns="http://www.w3.org/2000/svg">
<g id="User">
<path id="Vector" d="M18.0411 16.5622C16.8513 14.5052 15.0177 13.0302 12.8779 12.3309C13.9363 11.7008 14.7587 10.7407 15.2187 9.59796C15.6786 8.45524 15.7508 7.19312 15.424 6.00543C15.0972 4.81774 14.3896 3.77015 13.4099 3.02353C12.4301 2.27692 11.2323 1.87256 10.0005 1.87256C8.7687 1.87256 7.57093 2.27692 6.59116 3.02353C5.61139 3.77015 4.90379 4.81774 4.57703 6.00543C4.25027 7.19312 4.32241 8.45524 4.78238 9.59796C5.24235 10.7407 6.06471 11.7008 7.12317 12.3309C4.98333 13.0294 3.14974 14.5044 1.95989 16.5622C1.91626 16.6333 1.88732 16.7125 1.87477 16.795C1.86223 16.8775 1.86634 16.9617 1.88686 17.0426C1.90739 17.1235 1.9439 17.1995 1.99426 17.266C2.04462 17.3326 2.1078 17.3884 2.18007 17.4301C2.25234 17.4719 2.33224 17.4987 2.41505 17.5091C2.49787 17.5195 2.58192 17.5131 2.66225 17.4905C2.74258 17.4678 2.81756 17.4293 2.88277 17.3772C2.94798 17.3252 3.0021 17.2605 3.04192 17.1872C4.5138 14.6434 7.11536 13.1247 10.0005 13.1247C12.8857 13.1247 15.4872 14.6434 16.9591 17.1872C16.9989 17.2605 17.0531 17.3252 17.1183 17.3772C17.1835 17.4293 17.2584 17.4678 17.3388 17.4905C17.4191 17.5131 17.5032 17.5195 17.586 17.5091C17.6688 17.4987 17.7487 17.4719 17.821 17.4301C17.8932 17.3884 17.9564 17.3326 18.0068 17.266C18.0571 17.1995 18.0936 17.1235 18.1142 17.0426C18.1347 16.9617 18.1388 16.8775 18.1263 16.795C18.1137 16.7125 18.0848 16.6333 18.0411 16.5622ZM5.62552 7.49968C5.62552 6.63439 5.88211 5.78853 6.36284 5.06906C6.84357 4.3496 7.52685 3.78884 8.32628 3.45771C9.1257 3.12658 10.0054 3.03994 10.854 3.20875C11.7027 3.37756 12.4823 3.79424 13.0941 4.40609C13.706 5.01795 14.1226 5.7975 14.2915 6.64616C14.4603 7.49483 14.3736 8.3745 14.0425 9.17392C13.7114 9.97335 13.1506 10.6566 12.4311 11.1374C11.7117 11.6181 10.8658 11.8747 10.0005 11.8747C8.84058 11.8734 7.7285 11.4121 6.9083 10.5919C6.08809 9.7717 5.62676 8.65963 5.62552 7.49968Z" fill="#38B6FF"/>
</g>
</svg>
