<svg width="48" height="49" viewBox="0 0 48 49" fill="none" xmlns="http://www.w3.org/2000/svg">
<g id="Envelope">
<path id="Vector" d="M42 9.5H6C5.60218 9.5 5.22064 9.65804 4.93934 9.93934C4.65804 10.2206 4.5 10.6022 4.5 11V36.5C4.5 37.2956 4.81607 38.0587 5.37868 38.6213C5.94129 39.1839 6.70435 39.5 7.5 39.5H40.5C41.2956 39.5 42.0587 39.1839 42.6213 38.6213C43.1839 38.0587 43.5 37.2956 43.5 36.5V11C43.5 10.6022 43.342 10.2206 43.0607 9.93934C42.7794 9.65804 42.3978 9.5 42 9.5ZM24 25.4656L9.85687 12.5H38.1431L24 25.4656ZM18.5081 24.5L7.5 34.5894V14.4106L18.5081 24.5ZM20.7281 26.5344L22.9781 28.6062C23.2549 28.8603 23.6168 29.0012 23.9925 29.0012C24.3682 29.0012 24.7301 28.8603 25.0069 28.6062L27.2569 26.5344L38.1319 36.5H9.85687L20.7281 26.5344ZM29.4919 24.5L40.5 14.4088V34.5913L29.4919 24.5Z" fill="#717D8C"/>
</g>
</svg>
