<svg width="28" height="43" viewBox="0 0 28 43" fill="none" xmlns="http://www.w3.org/2000/svg">
<path id="Vector" d="M23 0.5H5C3.80653 0.5 2.66193 0.974106 1.81802 1.81802C0.974106 2.66193 0.5 3.80653 0.5 5V38C0.5 39.1935 0.974106 40.3381 1.81802 41.182C2.66193 42.0259 3.80653 42.5 5 42.5H23C24.1935 42.5 25.3381 42.0259 26.182 41.182C27.0259 40.3381 27.5 39.1935 27.5 38V5C27.5 3.80653 27.0259 2.66193 26.182 1.81802C25.3381 0.974106 24.1935 0.5 23 0.5ZM3.5 9.5H24.5V33.5H3.5V9.5ZM5 3.5H23C23.3978 3.5 23.7794 3.65804 24.0607 3.93934C24.342 4.22064 24.5 4.60218 24.5 5V6.5H3.5V5C3.5 4.60218 3.65804 4.22064 3.93934 3.93934C4.22064 3.65804 4.60218 3.5 5 3.5ZM23 39.5H5C4.60218 39.5 4.22064 39.342 3.93934 39.0607C3.65804 38.7794 3.5 38.3978 3.5 38V36.5H24.5V38C24.5 38.3978 24.342 38.7794 24.0607 39.0607C23.7794 39.342 23.3978 39.5 23 39.5Z" fill="#38B6FF"/>
</svg>
