<svg width="48" height="49" viewBox="0 0 48 49" fill="none" xmlns="http://www.w3.org/2000/svg">
<g id="ChatDots">
<path id="Vector" d="M40.5001 9.5H7.50005C6.7044 9.5 5.94134 9.81607 5.37873 10.3787C4.81612 10.9413 4.50005 11.7044 4.50005 12.5V42.5C4.49666 43.0718 4.65831 43.6325 4.96562 44.1147C5.27292 44.5969 5.71282 44.9803 6.23255 45.2188C6.62971 45.4032 7.06217 45.4991 7.50005 45.5C8.20431 45.4983 8.8852 45.2472 9.42193 44.7913C9.43087 44.7854 9.43906 44.7785 9.4463 44.7706L15.4688 39.5H40.5001C41.2957 39.5 42.0588 39.1839 42.6214 38.6213C43.184 38.0587 43.5001 37.2956 43.5001 36.5V12.5C43.5001 11.7044 43.184 10.9413 42.6214 10.3787C42.0588 9.81607 41.2957 9.5 40.5001 9.5ZM40.5001 36.5H15.4688C14.7623 36.4997 14.0784 36.7487 13.5376 37.2031L13.5151 37.2238L7.50005 42.5V12.5H40.5001V36.5ZM21.7501 24.5C21.7501 24.055 21.882 23.62 22.1292 23.25C22.3765 22.88 22.7279 22.5916 23.139 22.4213C23.5501 22.251 24.0026 22.2064 24.439 22.2932C24.8755 22.38 25.2764 22.5943 25.591 22.909C25.9057 23.2237 26.12 23.6246 26.2068 24.061C26.2936 24.4975 26.2491 24.9499 26.0788 25.361C25.9085 25.7722 25.6201 26.1236 25.2501 26.3708C24.8801 26.618 24.4451 26.75 24.0001 26.75C23.4033 26.75 22.831 26.5129 22.4091 26.091C21.9871 25.669 21.7501 25.0967 21.7501 24.5ZM13.5001 24.5C13.5001 24.055 13.632 23.62 13.8792 23.25C14.1265 22.88 14.4779 22.5916 14.889 22.4213C15.3001 22.251 15.7526 22.2064 16.189 22.2932C16.6255 22.38 17.0264 22.5943 17.341 22.909C17.6557 23.2237 17.87 23.6246 17.9568 24.061C18.0436 24.4975 17.9991 24.9499 17.8288 25.361C17.6585 25.7722 17.3701 26.1236 17.0001 26.3708C16.6301 26.618 16.1951 26.75 15.7501 26.75C15.1533 26.75 14.581 26.5129 14.1591 26.091C13.7371 25.669 13.5001 25.0967 13.5001 24.5ZM30.0001 24.5C30.0001 24.055 30.132 23.62 30.3792 23.25C30.6265 22.88 30.9779 22.5916 31.389 22.4213C31.8002 22.251 32.2525 22.2064 32.689 22.2932C33.1255 22.38 33.5264 22.5943 33.841 22.909C34.1557 23.2237 34.37 23.6246 34.4568 24.061C34.5436 24.4975 34.4991 24.9499 34.3288 25.361C34.1585 25.7722 33.8701 26.1236 33.5001 26.3708C33.1301 26.618 32.6951 26.75 32.2501 26.75C31.6533 26.75 31.081 26.5129 30.6591 26.091C30.2371 25.669 30.0001 25.0967 30.0001 24.5Z" fill="#717D8C"/>
</g>
</svg>
