<svg width="16" height="17" viewBox="0 0 16 17" fill="none" xmlns="http://www.w3.org/2000/svg">
<path d="M15.7456 10.1119C15.6655 10.0316 15.5649 9.97458 15.4548 9.94705C15.3447 9.91952 15.2292 9.92249 15.1206 9.95566C13.9289 10.3159 12.6617 10.3461 11.4542 10.0431C10.2466 9.73997 9.14392 9.11496 8.26356 8.2346C7.38321 7.35425 6.75819 6.25154 6.4551 5.04399C6.15202 3.83643 6.18223 2.56927 6.54251 1.37753C6.57595 1.26894 6.57915 1.15328 6.55177 1.04301C6.52439 0.932732 6.46747 0.832006 6.38713 0.751662C6.30678 0.671318 6.20606 0.614396 6.09578 0.587018C5.9855 0.55964 5.86985 0.562842 5.76126 0.596279C4.11362 1.101 2.66715 2.11252 1.62766 3.4869C0.718612 4.69382 0.164113 6.13032 0.0264649 7.63501C-0.111183 9.1397 0.173473 10.653 0.848452 12.0048C1.52343 13.3566 2.56199 14.4934 3.84746 15.2876C5.13292 16.0817 6.61435 16.5016 8.12532 16.5002C9.88809 16.5056 11.604 15.9326 13.0097 14.8689C14.3841 13.8295 15.3956 12.383 15.9003 10.7353C15.9334 10.6272 15.9364 10.512 15.9092 10.4022C15.882 10.2924 15.8254 10.1921 15.7456 10.1119ZM12.2581 13.8705C10.9343 14.8676 9.29493 15.3529 7.64169 15.2371C5.98845 15.1214 4.43267 14.4123 3.26074 13.2405C2.08882 12.0687 1.37963 10.5129 1.26374 8.85971C1.14784 7.20648 1.63304 5.56703 2.63001 4.24315C3.27954 3.38539 4.11928 2.69007 5.08313 2.2119C5.02823 2.59724 5.00055 2.98596 5.00032 3.37519C5.0026 5.52937 5.85935 7.59468 7.38259 9.11792C8.90583 10.6412 10.9711 11.4979 13.1253 11.5002C13.5153 11.5001 13.9048 11.4724 14.2909 11.4174C13.8123 12.3814 13.1165 13.2211 12.2581 13.8705Z" fill="#99A7B9"/>
</svg>
