<svg width="19" height="20" viewBox="0 0 19 20" fill="none" xmlns="http://www.w3.org/2000/svg">
<path d="M8.875 3.125V1.25C8.875 1.08424 8.94085 0.925268 9.05806 0.808058C9.17527 0.690848 9.33424 0.625 9.5 0.625C9.66576 0.625 9.82473 0.690848 9.94194 0.808058C10.0592 0.925268 10.125 1.08424 10.125 1.25V3.125C10.125 3.29076 10.0592 3.44973 9.94194 3.56694C9.82473 3.68415 9.66576 3.75 9.5 3.75C9.33424 3.75 9.17527 3.68415 9.05806 3.56694C8.94085 3.44973 8.875 3.29076 8.875 3.125ZM14.5 10C14.5 10.9889 14.2068 11.9556 13.6573 12.7779C13.1079 13.6001 12.327 14.241 11.4134 14.6194C10.4998 14.9978 9.49445 15.0969 8.52455 14.9039C7.55464 14.711 6.66373 14.2348 5.96447 13.5355C5.2652 12.8363 4.789 11.9454 4.59607 10.9755C4.40315 10.0055 4.50216 9.00021 4.8806 8.08658C5.25904 7.17295 5.8999 6.39206 6.72215 5.84265C7.54439 5.29324 8.51109 5 9.5 5C10.8256 5.00145 12.0966 5.5287 13.0339 6.46606C13.9713 7.40343 14.4986 8.67436 14.5 10ZM13.25 10C13.25 9.25832 13.0301 8.5333 12.618 7.91661C12.206 7.29993 11.6203 6.81928 10.9351 6.53545C10.2498 6.25162 9.49584 6.17736 8.76841 6.32206C8.04098 6.46675 7.3728 6.8239 6.84835 7.34835C6.3239 7.8728 5.96675 8.54098 5.82206 9.26841C5.67736 9.99584 5.75162 10.7498 6.03545 11.4351C6.31928 12.1203 6.79993 12.706 7.41661 13.118C8.0333 13.5301 8.75832 13.75 9.5 13.75C10.4942 13.749 11.4475 13.3535 12.1505 12.6505C12.8535 11.9475 13.249 10.9942 13.25 10ZM4.05781 5.44219C4.17509 5.55946 4.33415 5.62535 4.5 5.62535C4.66585 5.62535 4.82491 5.55946 4.94219 5.44219C5.05946 5.32491 5.12535 5.16585 5.12535 5C5.12535 4.83415 5.05946 4.67509 4.94219 4.55781L3.69219 3.30781C3.57491 3.19054 3.41585 3.12465 3.25 3.12465C3.08415 3.12465 2.92509 3.19054 2.80781 3.30781C2.69054 3.42509 2.62465 3.58415 2.62465 3.75C2.62465 3.91585 2.69054 4.07491 2.80781 4.19219L4.05781 5.44219ZM4.05781 14.5578L2.80781 15.8078C2.69054 15.9251 2.62465 16.0841 2.62465 16.25C2.62465 16.4159 2.69054 16.5749 2.80781 16.6922C2.92509 16.8095 3.08415 16.8753 3.25 16.8753C3.41585 16.8753 3.57491 16.8095 3.69219 16.6922L4.94219 15.4422C5.00026 15.3841 5.04632 15.3152 5.07775 15.2393C5.10917 15.1634 5.12535 15.0821 5.12535 15C5.12535 14.9179 5.10917 14.8366 5.07775 14.7607C5.04632 14.6848 5.00026 14.6159 4.94219 14.5578C4.88412 14.4997 4.81518 14.4537 4.73931 14.4223C4.66344 14.3908 4.58212 14.3747 4.5 14.3747C4.41788 14.3747 4.33656 14.3908 4.26069 14.4223C4.18482 14.4537 4.11588 14.4997 4.05781 14.5578ZM14.5 5.625C14.5821 5.62506 14.6634 5.60895 14.7393 5.57759C14.8152 5.54622 14.8841 5.50021 14.9422 5.44219L16.1922 4.19219C16.3095 4.07491 16.3753 3.91585 16.3753 3.75C16.3753 3.58415 16.3095 3.42509 16.1922 3.30781C16.0749 3.19054 15.9159 3.12465 15.75 3.12465C15.5841 3.12465 15.4251 3.19054 15.3078 3.30781L14.0578 4.55781C13.9703 4.64522 13.9107 4.75663 13.8865 4.87793C13.8624 4.99924 13.8748 5.12498 13.9221 5.23924C13.9695 5.35351 14.0496 5.45116 14.1525 5.51982C14.2554 5.58849 14.3763 5.6251 14.5 5.625ZM14.9422 14.5578C14.8249 14.4405 14.6659 14.3747 14.5 14.3747C14.3341 14.3747 14.1751 14.4405 14.0578 14.5578C13.9405 14.6751 13.8747 14.8341 13.8747 15C13.8747 15.1659 13.9405 15.3249 14.0578 15.4422L15.3078 16.6922C15.3659 16.7503 15.4348 16.7963 15.5107 16.8277C15.5866 16.8592 15.6679 16.8753 15.75 16.8753C15.8321 16.8753 15.9134 16.8592 15.9893 16.8277C16.0652 16.7963 16.1341 16.7503 16.1922 16.6922C16.2503 16.6341 16.2963 16.5652 16.3277 16.4893C16.3592 16.4134 16.3753 16.3321 16.3753 16.25C16.3753 16.1679 16.3592 16.0866 16.3277 16.0107C16.2963 15.9348 16.2503 15.8659 16.1922 15.8078L14.9422 14.5578ZM3.25 10C3.25 9.83424 3.18415 9.67527 3.06694 9.55806C2.94973 9.44085 2.79076 9.375 2.625 9.375H0.75C0.58424 9.375 0.425268 9.44085 0.308058 9.55806C0.190848 9.67527 0.125 9.83424 0.125 10C0.125 10.1658 0.190848 10.3247 0.308058 10.4419C0.425268 10.5592 0.58424 10.625 0.75 10.625H2.625C2.79076 10.625 2.94973 10.5592 3.06694 10.4419C3.18415 10.3247 3.25 10.1658 3.25 10ZM9.5 16.25C9.33424 16.25 9.17527 16.3158 9.05806 16.4331C8.94085 16.5503 8.875 16.7092 8.875 16.875V18.75C8.875 18.9158 8.94085 19.0747 9.05806 19.1919C9.17527 19.3092 9.33424 19.375 9.5 19.375C9.66576 19.375 9.82473 19.3092 9.94194 19.1919C10.0592 19.0747 10.125 18.9158 10.125 18.75V16.875C10.125 16.7092 10.0592 16.5503 9.94194 16.4331C9.82473 16.3158 9.66576 16.25 9.5 16.25ZM18.25 9.375H16.375C16.2092 9.375 16.0503 9.44085 15.9331 9.55806C15.8158 9.67527 15.75 9.83424 15.75 10C15.75 10.1658 15.8158 10.3247 15.9331 10.4419C16.0503 10.5592 16.2092 10.625 16.375 10.625H18.25C18.4158 10.625 18.5747 10.5592 18.6919 10.4419C18.8092 10.3247 18.875 10.1658 18.875 10C18.875 9.83424 18.8092 9.67527 18.6919 9.55806C18.5747 9.44085 18.4158 9.375 18.25 9.375Z" fill="#717D8C"/>
</svg>
