<svg width="32" height="33" viewBox="0 0 32 33" fill="none" xmlns="http://www.w3.org/2000/svg">
<g id="ArrowLeft">
<path id="Vector" d="M28.0008 16.5006C28.0008 16.7658 27.8954 17.0201 27.7079 17.2077C27.5204 17.3952 27.266 17.5006 27.0008 17.5006H7.41454L14.7083 24.7931C14.8012 24.886 14.8749 24.9963 14.9252 25.1177C14.9755 25.2391 15.0013 25.3692 15.0013 25.5006C15.0013 25.632 14.9755 25.7621 14.9252 25.8835C14.8749 26.0048 14.8012 26.1151 14.7083 26.2081C14.6154 26.301 14.5051 26.3747 14.3837 26.4249C14.2623 26.4752 14.1322 26.5011 14.0008 26.5011C13.8694 26.5011 13.7393 26.4752 13.6179 26.4249C13.4965 26.3747 13.3862 26.301 13.2933 26.2081L4.29329 17.2081C4.20031 17.1152 4.12655 17.0049 4.07623 16.8835C4.0259 16.7621 4 16.632 4 16.5006C4 16.3691 4.0259 16.239 4.07623 16.1176C4.12655 15.9962 4.20031 15.8859 4.29329 15.7931L13.2933 6.79306C13.4809 6.60542 13.7354 6.5 14.0008 6.5C14.2662 6.5 14.5206 6.60542 14.7083 6.79306C14.8959 6.9807 15.0013 7.23519 15.0013 7.50056C15.0013 7.76592 14.8959 8.02042 14.7083 8.20806L7.41454 15.5006H27.0008C27.266 15.5006 27.5204 15.6059 27.7079 15.7934C27.8954 15.981 28.0008 16.2353 28.0008 16.5006Z" fill="#ADB9D7"/>
</g>
</svg>
