<svg width="48" height="49" viewBox="0 0 48 49" fill="none" xmlns="http://www.w3.org/2000/svg">
<path d="M42.8325 17.2522L24.8325 5.25222C24.586 5.08777 24.2963 5 24 5C23.7037 5 23.414 5.08777 23.1675 5.25222L5.1675 17.2522C4.96202 17.3893 4.79358 17.575 4.67713 17.7929C4.56068 18.0107 4.49984 18.254 4.5 18.501V38.001C4.5 38.7966 4.81607 39.5597 5.37868 40.1223C5.94129 40.6849 6.70435 41.001 7.5 41.001H40.5C41.2957 41.001 42.0587 40.6849 42.6213 40.1223C43.1839 39.5597 43.5 38.7966 43.5 38.001V18.501C43.5002 18.254 43.4393 18.0107 43.3229 17.7929C43.2064 17.575 43.038 17.3893 42.8325 17.2522ZM18.135 29.001L7.5 36.501V21.4128L18.135 29.001ZM21.2044 30.501H26.7956L37.4137 38.001H10.5862L21.2044 30.501ZM29.865 29.001L40.5 21.4128V36.501L29.865 29.001ZM24 8.30285L39.3581 18.5422L26.7956 27.501H21.2081L8.64563 18.5422L24 8.30285Z" fill="#38B6FF"/>
</svg>
