<svg width="48" height="49" viewBox="0 0 48 49" fill="none" xmlns="http://www.w3.org/2000/svg">
<g id="Wrench">
<path id="Vector" d="M42.5171 13.4372C42.4261 13.2123 42.282 13.0129 42.097 12.8559C41.912 12.699 41.6916 12.5893 41.4549 12.5362C41.2182 12.4831 40.9721 12.4882 40.7378 12.5511C40.5035 12.614 40.288 12.7328 40.1096 12.8972L32.5534 19.8704L29.3228 19.1766L28.629 15.946L35.6021 8.38974C35.7666 8.21141 35.8854 7.99585 35.9483 7.76154C36.0112 7.52723 36.0163 7.28117 35.9632 7.04445C35.9101 6.80773 35.8004 6.58742 35.6434 6.40241C35.4865 6.21741 35.287 6.07323 35.0621 5.98224C33.0126 5.15318 30.7909 4.84015 28.5921 5.07065C26.3933 5.30115 24.2848 6.06814 22.4518 7.30421C20.6188 8.54028 19.1174 10.2076 18.0796 12.1597C17.0417 14.1118 16.4992 16.2889 16.4996 18.4997C16.4972 20.3666 16.8802 22.2139 17.6246 23.926L6.33526 33.6872C6.30713 33.7097 6.28088 33.736 6.25463 33.7604C5.12928 34.8857 4.49707 36.412 4.49707 38.0035C4.49707 38.7915 4.65228 39.5718 4.95385 40.2999C5.25541 41.0279 5.69742 41.6894 6.25463 42.2466C6.81185 42.8038 7.47336 43.2458 8.20139 43.5474C8.92943 43.849 9.70973 44.0042 10.4978 44.0042C12.0892 44.0042 13.6155 43.372 14.7409 42.2466C14.7653 42.2222 14.7915 42.1941 14.814 42.1679L24.5734 30.8747C26.6292 31.7772 28.8776 32.1526 31.1151 31.9671C33.3526 31.7816 35.5084 31.041 37.3876 29.8123C39.2667 28.5837 40.8097 26.9057 41.8769 24.9304C42.9441 22.9552 43.5019 20.7449 43.4996 18.4997C43.5026 16.7646 43.1689 15.0453 42.5171 13.4372ZM29.9996 28.9997C28.2241 28.9973 26.4781 28.5458 24.924 27.6872C24.6229 27.5209 24.2738 27.4631 23.9352 27.5235C23.5966 27.584 23.289 27.7589 23.064 28.0191L12.5828 40.1579C12.0156 40.6967 11.2603 40.9927 10.478 40.9827C9.69575 40.9727 8.94832 40.6575 8.39512 40.1043C7.84192 39.551 7.5267 38.8036 7.51669 38.0213C7.50667 37.239 7.80265 36.4838 8.34151 35.9166L20.4709 25.4372C20.7315 25.2122 20.9068 24.9042 20.9672 24.5652C21.0276 24.2262 20.9696 23.8766 20.8028 23.5754C19.8466 21.8459 19.3978 19.8818 19.5081 17.9087C19.6184 15.9356 20.2833 14.0337 21.4263 12.4216C22.5693 10.8096 24.144 9.55279 25.9694 8.79577C27.7949 8.03874 29.7968 7.81222 31.7453 8.14224L25.8953 14.4816C25.7325 14.6582 25.6145 14.8713 25.5512 15.1029C25.4879 15.3346 25.4811 15.5781 25.5315 15.8129L26.5928 20.7497C26.6535 21.0321 26.7944 21.2909 26.9986 21.4952C27.2028 21.6994 27.4616 21.8403 27.744 21.901L32.6846 22.9622C32.9194 23.0126 33.1629 23.0059 33.3946 22.9426C33.6262 22.8793 33.8393 22.7613 34.0159 22.5985L40.3553 16.7485C40.608 18.2541 40.5297 19.7968 40.1258 21.2691C39.722 22.7414 39.0022 24.1081 38.0167 25.274C37.0311 26.44 35.8034 27.3773 34.4189 28.0207C33.0344 28.6641 31.5263 28.9982 29.9996 28.9997Z" fill="#717D8C"/>
</g>
</svg>
