<svg width="48" height="49" viewBox="0 0 48 49" fill="none" xmlns="http://www.w3.org/2000/svg">
<g id="Group">
<path id="Vector" d="M11.5554 34.5H11.5548C11.0306 34.4997 10.5151 34.3492 10.0746 34.0632C9.63364 33.777 9.28547 33.3661 9.08209 32.8786C5.53984 24.3984 9.89905 15.0483 18.9253 13.5174C18.5974 13.3911 18.2941 13.2011 18.0356 12.9536C17.5303 12.4697 17.238 11.8038 17.238 11.1C17.238 10.3962 17.5303 9.73035 18.0356 9.24642C18.5395 8.76389 19.214 8.5 19.9086 8.5H26.5913C27.286 8.5 27.9604 8.76389 28.4643 9.24642C28.9696 9.73035 29.2619 10.3962 29.2619 11.1C29.2619 11.8039 28.9696 12.4697 28.4643 12.9536C28.2059 13.2011 27.9025 13.391 27.5747 13.5174C36.601 15.0482 40.9601 24.3984 37.4195 32.8786L11.5554 34.5ZM11.5554 34.5H34.9442C34.9443 34.5 34.9444 34.5 34.9445 34.5C35.469 34.5001 35.9849 34.3499 36.4259 34.0639C36.8673 33.7777 37.2158 33.3667 37.4194 32.8789L11.5554 34.5Z" stroke="#717D8C" stroke-width="2"/>
<path id="Vector 39" d="M9 39.5L37.5 39.5" stroke="#717D8C" stroke-width="2" stroke-linecap="round"/>
</g>
</svg>
