<svg width="48" height="49" viewBox="0 0 48 49" fill="none" xmlns="http://www.w3.org/2000/svg">
<g id="Factory">
<path id="Vector" d="M21.375 33.4992C21.375 33.7975 21.2565 34.0837 21.0455 34.2947C20.8345 34.5057 20.5484 34.6242 20.25 34.6242H15C14.7016 34.6242 14.4155 34.5057 14.2045 34.2947C13.9935 34.0837 13.875 33.7975 13.875 33.4992C13.875 33.2008 13.9935 32.9147 14.2045 32.7037C14.4155 32.4927 14.7016 32.3742 15 32.3742H20.25C20.5484 32.3742 20.8345 32.4927 21.0455 32.7037C21.2565 32.9147 21.375 33.2008 21.375 33.4992ZM33 32.3742H27.75C27.4516 32.3742 27.1655 32.4927 26.9545 32.7037C26.7435 32.9147 26.625 33.2008 26.625 33.4992C26.625 33.7975 26.7435 34.0837 26.9545 34.2947C27.1655 34.5057 27.4516 34.6242 27.75 34.6242H33C33.2984 34.6242 33.5845 34.5057 33.7955 34.2947C34.0065 34.0837 34.125 33.7975 34.125 33.4992C34.125 33.2008 34.0065 32.9147 33.7955 32.7037C33.5845 32.4927 33.2984 32.3742 33 32.3742ZM46.125 40.9992C46.125 41.2975 46.0065 41.5837 45.7955 41.7947C45.5845 42.0057 45.2984 42.1242 45 42.1242H3C2.70163 42.1242 2.41548 42.0057 2.2045 41.7947C1.99353 41.5837 1.875 41.2975 1.875 40.9992C1.875 40.7008 1.99353 40.4147 2.2045 40.2037C2.41548 39.9927 2.70163 39.8742 3 39.8742H6.375V16.9992C6.375 16.7903 6.43318 16.5855 6.54302 16.4077C6.65286 16.23 6.81002 16.0864 6.99688 15.9929C7.18375 15.8995 7.39295 15.86 7.60103 15.8787C7.80911 15.8975 8.00786 15.9738 8.175 16.0992L18.375 23.7492V16.9992C18.375 16.7903 18.4332 16.5855 18.543 16.4077C18.6529 16.23 18.81 16.0864 18.9969 15.9929C19.1838 15.8995 19.393 15.86 19.601 15.8787C19.8091 15.8975 20.0079 15.9738 20.175 16.0992L27.9375 21.9267L30.1875 6.12793C30.2803 5.5042 30.5934 4.93433 31.0701 4.52158C31.5469 4.10882 32.1557 3.88048 32.7863 3.87793H36.1838C36.8143 3.88048 37.4231 4.10882 37.8999 4.52158C38.3766 4.93433 38.6897 5.5042 38.7825 6.12793L41.595 25.8398C41.595 25.8398 41.6062 25.9504 41.6062 25.9992V39.8742H44.9812C45.1306 39.8717 45.2789 39.899 45.4175 39.9544C45.5562 40.0098 45.6824 40.0923 45.7889 40.197C45.8954 40.3017 45.9799 40.4266 46.0376 40.5643C46.0953 40.702 46.125 40.8498 46.125 40.9992ZM30 23.4661L31.875 24.8742H39.2025L36.5625 6.44668C36.5498 6.35658 36.5047 6.27418 36.4357 6.21484C36.3667 6.15551 36.2785 6.12328 36.1875 6.12418H32.8013C32.7103 6.12328 32.622 6.15551 32.553 6.21484C32.4841 6.27418 32.439 6.35658 32.4263 6.44668L30 23.4661ZM8.625 39.8742H39.375V27.1242H31.5C31.2566 27.1242 31.0197 27.0452 30.825 26.8992L28.125 24.8742L20.625 19.2492V25.9992C20.625 26.2081 20.5668 26.4129 20.457 26.5906C20.3471 26.7684 20.19 26.912 20.0031 27.0054C19.8162 27.0988 19.607 27.1384 19.399 27.1196C19.1909 27.1009 18.9921 27.0245 18.825 26.8992L8.625 19.2492V39.8742Z" fill="#717D8C"/>
</g>
</svg>
