<svg width="40" height="40" viewBox="0 0 40 40" fill="none" xmlns="http://www.w3.org/2000/svg">
<path d="M1.1 19.6998C1.25759 19.818 1.43691 19.904 1.62773 19.9529C1.81855 20.0017 2.01713 20.0126 2.21213 19.9847C2.40714 19.9569 2.59474 19.8909 2.76424 19.7905C2.93374 19.6901 3.08181 19.5574 3.2 19.3998C4.10818 18.1889 5.28583 17.206 6.63967 16.5291C7.99351 15.8522 9.48636 15.4998 11 15.4998C12.5136 15.4998 14.0065 15.8522 15.3603 16.5291C16.7142 17.206 17.8918 18.1889 18.8 19.3998C19.039 19.7178 19.3945 19.9278 19.7883 19.9837C20.1821 20.0396 20.582 19.9368 20.9 19.6979C21.0134 19.6136 21.1138 19.5132 21.1981 19.3998C22.1063 18.1889 23.284 17.206 24.6378 16.5291C25.9916 15.8522 27.4845 15.4998 28.9981 15.4998C30.5118 15.4998 32.0046 15.8522 33.3585 16.5291C34.7123 17.206 35.8899 18.1889 36.7981 19.3998C37.0371 19.7181 37.3927 19.9284 37.7867 19.9844C38.1807 20.0405 38.5808 19.9378 38.8991 19.6989C39.2173 19.4599 39.4276 19.1043 39.4837 18.7103C39.5398 18.3163 39.4371 17.9162 39.1981 17.5979C37.8704 15.8179 36.0998 14.4165 34.0625 13.5329C35.1794 12.5132 35.9619 11.1796 36.3074 9.70716C36.6528 8.23474 36.545 6.69227 35.9982 5.2822C35.4513 3.87214 34.4909 2.66034 33.243 1.80586C31.9951 0.951385 30.518 0.494141 29.0056 0.494141C27.4932 0.494141 26.0162 0.951385 24.7683 1.80586C23.5204 2.66034 22.56 3.87214 22.0131 5.2822C21.4662 6.69227 21.3584 8.23474 21.7039 9.70716C22.0493 11.1796 22.8318 12.5132 23.9487 13.5329C22.4777 14.169 21.1414 15.0796 20.0112 16.216C18.8811 15.0796 17.5448 14.169 16.0737 13.5329C17.1907 12.5132 17.9732 11.1796 18.3186 9.70716C18.6641 8.23474 18.5563 6.69227 18.0094 5.2822C17.4625 3.87214 16.5021 2.66034 15.2542 1.80586C14.0063 0.951385 12.5293 0.494141 11.0169 0.494141C9.50447 0.494141 8.0274 0.951385 6.77951 1.80586C5.53162 2.66034 4.57122 3.87214 4.02435 5.2822C3.47748 6.69227 3.36969 8.23474 3.71512 9.70716C4.06056 11.1796 4.84309 12.5132 5.96 13.5329C3.91372 14.4136 2.13444 15.8159 0.8 17.5998C0.68181 17.7574 0.595817 17.9367 0.546929 18.1275C0.498042 18.3183 0.487218 18.5169 0.515076 18.7119C0.542933 18.9069 0.608927 19.0945 0.709289 19.264C0.80965 19.4335 0.942414 19.5816 1.1 19.6998ZM29 3.49979C29.89 3.49979 30.76 3.76371 31.5001 4.25818C32.2401 4.75264 32.8169 5.45545 33.1575 6.27771C33.4981 7.09998 33.5872 8.00478 33.4135 8.8777C33.2399 9.75061 32.8113 10.5524 32.182 11.1818C31.5526 11.8111 30.7508 12.2397 29.8779 12.4133C29.005 12.587 28.1002 12.4978 27.2779 12.1572C26.4557 11.8167 25.7529 11.2399 25.2584 10.4999C24.7639 9.75983 24.5 8.88981 24.5 7.99979C24.5 6.80632 24.9741 5.66172 25.818 4.81781C26.6619 3.9739 27.8065 3.49979 29 3.49979ZM11 3.49979C11.89 3.49979 12.76 3.76371 13.5001 4.25818C14.2401 4.75264 14.8169 5.45545 15.1575 6.27771C15.4981 7.09998 15.5872 8.00478 15.4135 8.8777C15.2399 9.75061 14.8113 10.5524 14.182 11.1818C13.5526 11.8111 12.7508 12.2397 11.8779 12.4133C11.005 12.587 10.1002 12.4978 9.27792 12.1572C8.45566 11.8167 7.75285 11.2399 7.25839 10.4999C6.76392 9.75983 6.5 8.88981 6.5 7.99979C6.5 6.80632 6.97411 5.66172 7.81802 4.81781C8.66193 3.9739 9.80653 3.49979 11 3.49979ZM34.0625 33.0329C35.1794 32.0132 35.9619 30.6796 36.3074 29.2072C36.6528 27.7347 36.545 26.1923 35.9982 24.7822C35.4513 23.3721 34.4909 22.1603 33.243 21.3059C31.9951 20.4514 30.518 19.9941 29.0056 19.9941C27.4932 19.9941 26.0162 20.4514 24.7683 21.3059C23.5204 22.1603 22.56 23.3721 22.0131 24.7822C21.4662 26.1923 21.3584 27.7347 21.7039 29.2072C22.0493 30.6796 22.8318 32.0132 23.9487 33.0329C22.4777 33.669 21.1414 34.5796 20.0112 35.716C18.8811 34.5796 17.5448 33.669 16.0737 33.0329C17.1907 32.0132 17.9732 30.6796 18.3186 29.2072C18.6641 27.7347 18.5563 26.1923 18.0094 24.7822C17.4625 23.3721 16.5021 22.1603 15.2542 21.3059C14.0063 20.4514 12.5293 19.9941 11.0169 19.9941C9.50447 19.9941 8.0274 20.4514 6.77951 21.3059C5.53162 22.1603 4.57122 23.3721 4.02435 24.7822C3.47748 26.1923 3.36969 27.7347 3.71512 29.2072C4.06056 30.6796 4.84309 32.0132 5.96 33.0329C3.91372 33.9136 2.13444 35.3159 0.8 37.0998C0.68181 37.2574 0.595817 37.4367 0.546929 37.6275C0.498042 37.8183 0.487218 38.0169 0.515076 38.2119C0.542933 38.4069 0.608927 38.5945 0.709289 38.764C0.80965 38.9335 0.942414 39.0816 1.1 39.1998C1.25759 39.318 1.43691 39.404 1.62773 39.4529C1.81855 39.5017 2.01713 39.5126 2.21213 39.4847C2.40714 39.4569 2.59474 39.3909 2.76424 39.2905C2.93374 39.1901 3.08181 39.0574 3.2 38.8998C4.10818 37.6889 5.28583 36.706 6.63967 36.0291C7.99351 35.3522 9.48636 34.9998 11 34.9998C12.5136 34.9998 14.0065 35.3522 15.3603 36.0291C16.7142 36.706 17.8918 37.6889 18.8 38.8998C19.039 39.2178 19.3945 39.4278 19.7883 39.4837C20.1821 39.5396 20.582 39.4368 20.9 39.1979C21.0134 39.1136 21.1138 39.0132 21.1981 38.8998C22.1063 37.6889 23.284 36.706 24.6378 36.0291C25.9916 35.3522 27.4845 34.9998 28.9981 34.9998C30.5118 34.9998 32.0046 35.3522 33.3585 36.0291C34.7123 36.706 35.8899 37.6889 36.7981 38.8998C37.0371 39.218 37.3927 39.4284 37.7867 39.4844C38.1807 39.5405 38.5808 39.4378 38.8991 39.1989C39.2173 38.9599 39.4276 38.6043 39.4837 38.2103C39.5398 37.8163 39.4371 37.4162 39.1981 37.0979C37.8704 35.3179 36.0998 33.9165 34.0625 33.0329ZM11 22.9998C11.89 22.9998 12.76 23.2637 13.5001 23.7582C14.2401 24.2526 14.8169 24.9554 15.1575 25.7777C15.4981 26.6 15.5872 27.5048 15.4135 28.3777C15.2399 29.2506 14.8113 30.0524 14.182 30.6818C13.5526 31.3111 12.7508 31.7397 11.8779 31.9133C11.005 32.087 10.1002 31.9978 9.27792 31.6572C8.45566 31.3167 7.75285 30.7399 7.25839 29.9999C6.76392 29.2598 6.5 28.3898 6.5 27.4998C6.5 26.3063 6.97411 25.1617 7.81802 24.3178C8.66193 23.4739 9.80653 22.9998 11 22.9998ZM29 22.9998C29.89 22.9998 30.76 23.2637 31.5001 23.7582C32.2401 24.2526 32.8169 24.9554 33.1575 25.7777C33.4981 26.6 33.5872 27.5048 33.4135 28.3777C33.2399 29.2506 32.8113 30.0524 32.182 30.6818C31.5526 31.3111 30.7508 31.7397 29.8779 31.9133C29.005 32.087 28.1002 31.9978 27.2779 31.6572C26.4557 31.3167 25.7529 30.7399 25.2584 29.9999C24.7639 29.2598 24.5 28.3898 24.5 27.4998C24.5 26.3063 24.9741 25.1617 25.818 24.3178C26.6619 23.4739 27.8065 22.9998 29 22.9998Z" fill="#717D8C"/>
</svg>
