<svg width="40" height="36" viewBox="0 0 40 36" fill="none" xmlns="http://www.w3.org/2000/svg">
<path d="M36.5 6H29V4.5C29 3.30653 28.5259 2.16193 27.682 1.31802C26.8381 0.474106 25.6935 0 24.5 0H15.5C14.3065 0 13.1619 0.474106 12.318 1.31802C11.4741 2.16193 11 3.30653 11 4.5V6H3.5C2.70435 6 1.94129 6.31607 1.37868 6.87868C0.81607 7.44129 0.5 8.20435 0.5 9V33C0.5 33.7956 0.81607 34.5587 1.37868 35.1213C1.94129 35.6839 2.70435 36 3.5 36H36.5C37.2956 36 38.0587 35.6839 38.6213 35.1213C39.1839 34.5587 39.5 33.7956 39.5 33V9C39.5 8.20435 39.1839 7.44129 38.6213 6.87868C38.0587 6.31607 37.2956 6 36.5 6ZM14 4.5C14 4.10218 14.158 3.72064 14.4393 3.43934C14.7206 3.15804 15.1022 3 15.5 3H24.5C24.8978 3 25.2794 3.15804 25.5607 3.43934C25.842 3.72064 26 4.10218 26 4.5V6H14V4.5ZM26 9V33H14V9H26ZM3.5 9H11V33H3.5V9ZM36.5 33H29V9H36.5V33Z" fill="#717D8C"/>
</svg>
