<svg width="16" height="16" viewBox="0 0 16 16" fill="none" xmlns="http://www.w3.org/2000/svg">
<g id="Warehouse">
<path id="Vector" d="M15 11.2503H14.75V3.82096L15.1569 3.73408C15.2546 3.71496 15.3475 3.67659 15.4302 3.6212C15.5129 3.56581 15.5837 3.4945 15.6386 3.41145C15.6935 3.3284 15.7312 3.23525 15.7497 3.13745C15.7682 3.03964 15.7671 2.93913 15.7464 2.84178C15.7256 2.74442 15.6857 2.65217 15.6289 2.57039C15.5722 2.48862 15.4997 2.41896 15.4158 2.36549C15.3318 2.31201 15.238 2.27577 15.1399 2.2589C15.0418 2.24203 14.9414 2.24485 14.8444 2.26721L0.844375 5.26721C0.663614 5.30621 0.503634 5.41061 0.395157 5.56037C0.28668 5.71014 0.237354 5.89469 0.256651 6.0786C0.275949 6.26251 0.36251 6.43281 0.499711 6.5568C0.636913 6.68078 0.81508 6.7497 1 6.75033C1.05313 6.75043 1.10613 6.74499 1.15813 6.73408L1.25063 6.71408V11.2503H1C0.801088 11.2503 0.610322 11.3293 0.46967 11.47C0.329018 11.6107 0.25 11.8014 0.25 12.0003C0.25 12.1992 0.329018 12.39 0.46967 12.5307C0.610322 12.6713 0.801088 12.7503 1 12.7503H15C15.1989 12.7503 15.3897 12.6713 15.5303 12.5307C15.671 12.39 15.75 12.1992 15.75 12.0003C15.75 11.8014 15.671 11.6107 15.5303 11.47C15.3897 11.3293 15.1989 11.2503 15 11.2503ZM2.75 6.39221L13.25 4.14221V11.2503H12V7.50033C12 7.30142 11.921 7.11065 11.7803 6.97C11.6397 6.82935 11.4489 6.75033 11.25 6.75033H4.75C4.55109 6.75033 4.36032 6.82935 4.21967 6.97C4.07902 7.11065 4 7.30142 4 7.50033V11.2503H2.75V6.39221ZM10.5 9.00033H5.5V8.25033H10.5V9.00033ZM5.5 10.5003H10.5V11.2503H5.5V10.5003Z" fill="#717D8C"/>
</g>
</svg>
