<svg width="16" height="16" viewBox="0 0 16 16" fill="none" xmlns="http://www.w3.org/2000/svg">
<g id="Path">
<path id="Vector" d="M12.5 10.25C12.0349 10.2507 11.5813 10.3952 11.2016 10.6637C10.8218 10.9322 10.5344 11.3117 10.3787 11.75H4.5C4.03587 11.75 3.59075 11.5656 3.26256 11.2374C2.93437 10.9092 2.75 10.4641 2.75 10C2.75 9.53587 2.93437 9.09075 3.26256 8.76256C3.59075 8.43437 4.03587 8.25 4.5 8.25H10.5C11.2293 8.25 11.9288 7.96027 12.4445 7.44454C12.9603 6.92882 13.25 6.22935 13.25 5.5C13.25 4.77065 12.9603 4.07118 12.4445 3.55546C11.9288 3.03973 11.2293 2.75 10.5 2.75H4.5C4.30109 2.75 4.11032 2.82902 3.96967 2.96967C3.82902 3.11032 3.75 3.30109 3.75 3.5C3.75 3.69891 3.82902 3.88968 3.96967 4.03033C4.11032 4.17098 4.30109 4.25 4.5 4.25H10.5C10.8315 4.25 11.1495 4.3817 11.3839 4.61612C11.6183 4.85054 11.75 5.16848 11.75 5.5C11.75 5.83152 11.6183 6.14946 11.3839 6.38388C11.1495 6.6183 10.8315 6.75 10.5 6.75H4.5C3.63805 6.75 2.8114 7.09241 2.2019 7.7019C1.59241 8.3114 1.25 9.13805 1.25 10C1.25 10.862 1.59241 11.6886 2.2019 12.2981C2.8114 12.9076 3.63805 13.25 4.5 13.25H10.3787C10.5162 13.6389 10.758 13.9825 11.0776 14.2433C11.3972 14.5041 11.7824 14.672 12.191 14.7287C12.5996 14.7853 13.0159 14.7286 13.3944 14.5646C13.7729 14.4007 14.0991 14.1358 14.3372 13.799C14.5754 13.4622 14.7163 13.0664 14.7447 12.6549C14.7731 12.2434 14.6878 11.832 14.4982 11.4656C14.3086 11.0993 14.0219 10.7922 13.6695 10.5778C13.3171 10.3634 12.9125 10.25 12.5 10.25ZM12.5 13.25C12.3517 13.25 12.2067 13.206 12.0833 13.1236C11.96 13.0412 11.8639 12.9241 11.8071 12.787C11.7503 12.65 11.7355 12.4992 11.7644 12.3537C11.7933 12.2082 11.8648 12.0746 11.9697 11.9697C12.0746 11.8648 12.2082 11.7933 12.3537 11.7644C12.4992 11.7355 12.65 11.7503 12.787 11.8071C12.9241 11.8639 13.0412 11.96 13.1236 12.0833C13.206 12.2067 13.25 12.3517 13.25 12.5C13.25 12.6989 13.171 12.8897 13.0303 13.0303C12.8897 13.171 12.6989 13.25 12.5 13.25Z" fill="#99A7B9"/>
</g>
</svg>
