<svg width="16" height="16" viewBox="0 0 16 16" fill="none" xmlns="http://www.w3.org/2000/svg">
<g id="Buildings">
<path id="Vector" d="M15 12.7495H14.25V5.99955C14.25 5.66803 14.1183 5.35008 13.8839 5.11566C13.6495 4.88124 13.3315 4.74955 13 4.74955H10.75V1.99955C10.7499 1.78942 10.6969 1.5827 10.5958 1.3985C10.4947 1.2143 10.3487 1.05856 10.1715 0.945683C9.99427 0.832802 9.79144 0.766422 9.58176 0.752677C9.37209 0.738933 9.16233 0.778268 8.97188 0.867047L2.47187 3.9008C2.25644 4.00172 2.07417 4.16186 1.94634 4.3625C1.81852 4.56315 1.75042 4.79602 1.75 5.03392V12.7495H1C0.801088 12.7495 0.610322 12.8286 0.46967 12.9692C0.329018 13.1099 0.25 13.3006 0.25 13.4995C0.25 13.6985 0.329018 13.8892 0.46967 14.0299C0.610322 14.1705 0.801088 14.2495 1 14.2495H15C15.1989 14.2495 15.3897 14.1705 15.5303 14.0299C15.671 13.8892 15.75 13.6985 15.75 13.4995C15.75 13.3006 15.671 13.1099 15.5303 12.9692C15.3897 12.8286 15.1989 12.7495 15 12.7495ZM12.75 6.24955V12.7495H10.75V6.24955H12.75ZM3.25 5.19267L9.25 2.3933V12.7495H3.25V5.19267ZM8.25 6.99955V7.74955C8.25 7.94846 8.17098 8.13922 8.03033 8.27988C7.88968 8.42053 7.69891 8.49955 7.5 8.49955C7.30109 8.49955 7.11032 8.42053 6.96967 8.27988C6.82902 8.13922 6.75 7.94846 6.75 7.74955V6.99955C6.75 6.80063 6.82902 6.60987 6.96967 6.46922C7.11032 6.32856 7.30109 6.24955 7.5 6.24955C7.69891 6.24955 7.88968 6.32856 8.03033 6.46922C8.17098 6.60987 8.25 6.80063 8.25 6.99955ZM5.75 6.99955V7.74955C5.75 7.94846 5.67098 8.13922 5.53033 8.27988C5.38968 8.42053 5.19891 8.49955 5 8.49955C4.80109 8.49955 4.61032 8.42053 4.46967 8.27988C4.32902 8.13922 4.25 7.94846 4.25 7.74955V6.99955C4.25 6.80063 4.32902 6.60987 4.46967 6.46922C4.61032 6.32856 4.80109 6.24955 5 6.24955C5.19891 6.24955 5.38968 6.32856 5.53033 6.46922C5.67098 6.60987 5.75 6.80063 5.75 6.99955ZM5.75 10.2495V10.9995C5.75 11.1985 5.67098 11.3892 5.53033 11.5299C5.38968 11.6705 5.19891 11.7495 5 11.7495C4.80109 11.7495 4.61032 11.6705 4.46967 11.5299C4.32902 11.3892 4.25 11.1985 4.25 10.9995V10.2495C4.25 10.0506 4.32902 9.85987 4.46967 9.71922C4.61032 9.57857 4.80109 9.49955 5 9.49955C5.19891 9.49955 5.38968 9.57857 5.53033 9.71922C5.67098 9.85987 5.75 10.0506 5.75 10.2495ZM8.25 10.2495V10.9995C8.25 11.1985 8.17098 11.3892 8.03033 11.5299C7.88968 11.6705 7.69891 11.7495 7.5 11.7495C7.30109 11.7495 7.11032 11.6705 6.96967 11.5299C6.82902 11.3892 6.75 11.1985 6.75 10.9995V10.2495C6.75 10.0506 6.82902 9.85987 6.96967 9.71922C7.11032 9.57857 7.30109 9.49955 7.5 9.49955C7.69891 9.49955 7.88968 9.57857 8.03033 9.71922C8.17098 9.85987 8.25 10.0506 8.25 10.2495Z" fill="#99A7B9"/>
</g>
</svg>
