<svg width="16" height="16" viewBox="0 0 16 16" fill="none" xmlns="http://www.w3.org/2000/svg">
<g id="ReadCvLogo">
<path id="Vector" d="M13.2177 2.20661L5.07703 0.769113C4.91534 0.740508 4.74959 0.744041 4.58926 0.779512C4.42893 0.814982 4.27716 0.881694 4.14263 0.975836C4.00809 1.06998 3.89342 1.18971 3.80516 1.32818C3.71691 1.46665 3.6568 1.62115 3.62828 1.78286L1.7689 12.3454C1.7115 12.6717 1.78604 13.0075 1.97613 13.279C2.16623 13.5504 2.45632 13.7352 2.78265 13.7929L10.9233 15.2304C10.9959 15.2433 11.0695 15.2498 11.1433 15.2497C11.4375 15.2499 11.7224 15.1462 11.9477 14.957C12.173 14.7678 12.3244 14.5052 12.3752 14.2154L14.2345 3.65286C14.2627 3.49113 14.2588 3.32542 14.223 3.16521C14.1871 3.00499 14.1201 2.8534 14.0257 2.7191C13.9312 2.5848 13.8113 2.47042 13.6726 2.38249C13.534 2.29455 13.3794 2.23479 13.2177 2.20661ZM10.9377 13.7091L3.28953 12.3585L5.06265 2.28911L12.7108 3.63974L10.9377 13.7091ZM5.7439 4.18661C5.7785 3.99079 5.88946 3.81672 6.05237 3.70268C6.21528 3.58864 6.41681 3.54397 6.61265 3.57849L10.8127 4.32036C11.0005 4.34916 11.1704 4.44819 11.288 4.59742C11.4056 4.74666 11.4622 4.93499 11.4464 5.12435C11.4305 5.3137 11.3433 5.48998 11.2025 5.61755C11.0617 5.74512 10.8777 5.81448 10.6877 5.81161C10.6437 5.81154 10.5998 5.80777 10.5564 5.80036L6.35203 5.05536C6.1562 5.02076 5.98213 4.90981 5.86809 4.7469C5.75406 4.58399 5.70939 4.38245 5.7439 4.18661ZM5.31265 6.64849C5.32978 6.55146 5.36586 6.45876 5.41883 6.37568C5.47179 6.2926 5.54061 6.22077 5.62135 6.1643C5.70208 6.10783 5.79315 6.06781 5.88936 6.04655C5.98556 6.02528 6.08501 6.02318 6.18203 6.04036L10.3833 6.78286C10.5677 6.81607 10.733 6.91711 10.8466 7.06609C10.9603 7.21506 11.0141 7.40118 10.9974 7.58781C10.9807 7.77445 10.8947 7.94807 10.7564 8.07451C10.6181 8.20094 10.4375 8.27104 10.2502 8.27099C10.2062 8.27094 10.1623 8.26718 10.1189 8.25974L5.91828 7.51724C5.72291 7.48206 5.54946 7.37086 5.43594 7.20802C5.32241 7.04517 5.27808 6.84396 5.31265 6.64849ZM4.87515 9.11036C4.90975 8.91454 5.02071 8.74047 5.18362 8.62643C5.34653 8.51239 5.54806 8.46772 5.7439 8.50224L7.8464 8.87411C8.03125 8.9065 8.19725 9.007 8.31162 9.15579C8.42599 9.30458 8.48042 9.49083 8.46417 9.67779C8.44793 9.86475 8.36218 10.0388 8.22386 10.1657C8.08554 10.2925 7.90469 10.3629 7.71703 10.3629C7.67301 10.3629 7.62908 10.3589 7.58578 10.351L5.48515 9.98036C5.3879 9.96346 5.29493 9.92751 5.2116 9.8746C5.12826 9.82169 5.05619 9.75284 4.99952 9.67202C4.94285 9.59119 4.90269 9.49997 4.88135 9.40359C4.86001 9.30721 4.8579 9.20756 4.87515 9.11036Z" fill="#99A7B9"/>
</g>
</svg>
