<svg width="16" height="16" viewBox="0 0 16 16" fill="none" xmlns="http://www.w3.org/2000/svg">
<g id="MapTrifold">
<path id="Vector" d="M14.4613 2.90802C14.3714 2.83796 14.2668 2.78928 14.1554 2.76568C14.044 2.74207 13.9286 2.74415 13.8181 2.77177L10.0875 3.70427L6.3375 1.82927C6.17732 1.74913 5.99376 1.72895 5.82 1.7724L1.82 2.7724C1.6575 2.81257 1.51311 2.90595 1.40982 3.03767C1.30653 3.16939 1.25027 3.33188 1.25 3.49927V12.4993C1.25002 12.6132 1.27601 12.7257 1.32599 12.8281C1.37598 12.9305 1.44864 13.0202 1.53847 13.0903C1.62831 13.1605 1.73294 13.2092 1.84442 13.2328C1.95591 13.2565 2.07131 13.2544 2.18187 13.2268L5.9125 12.2943L9.6625 14.1693C9.82268 14.2494 10.0062 14.2696 10.18 14.2261L14.18 13.2261C14.3425 13.186 14.4869 13.0926 14.5902 12.9609C14.6935 12.8292 14.7497 12.6667 14.75 12.4993V3.49927C14.75 3.38525 14.724 3.27274 14.6739 3.17029C14.6239 3.06784 14.5512 2.97814 14.4613 2.90802ZM6.75 3.71302L9.25 4.96302V12.2855L6.75 11.0355V3.71302ZM2.75 4.08802L5.25 3.46302V10.9136L2.75 11.5386V4.08802ZM13.25 11.9136L10.75 12.5386V5.0849L13.25 4.4599V11.9136Z" fill="#99A7B9"/>
</g>
</svg>
