<svg width="16" height="16" viewBox="0 0 16 16" fill="none" xmlns="http://www.w3.org/2000/svg">
<g id="User">
<path id="Vector" d="M14.6489 13.1269C13.792 11.6229 12.4539 10.4511 10.8502 9.8C11.6477 9.20184 12.2368 8.36789 12.5341 7.4163C12.8313 6.4647 12.8217 5.4437 12.5064 4.49792C12.1911 3.55214 11.5863 2.72952 10.7775 2.1466C9.96876 1.56368 8.99709 1.25 8.00015 1.25C7.00321 1.25 6.03154 1.56368 5.22278 2.1466C4.41401 2.72952 3.80916 3.55214 3.4939 4.49792C3.17864 5.4437 3.16895 6.4647 3.46621 7.4163C3.76347 8.36789 4.3526 9.20184 5.15015 9.8C3.54635 10.4511 2.2083 11.6229 1.3514 13.1269C1.2983 13.2123 1.26291 13.3074 1.24734 13.4068C1.23176 13.5061 1.23631 13.6075 1.26073 13.7051C1.28514 13.8026 1.32891 13.8942 1.38944 13.9745C1.44997 14.0548 1.52603 14.1221 1.61308 14.1724C1.70014 14.2227 1.79642 14.2549 1.8962 14.2673C1.99598 14.2796 2.09722 14.2718 2.19391 14.2442C2.2906 14.2167 2.38076 14.1699 2.45903 14.1068C2.5373 14.0437 2.60208 13.9655 2.64952 13.8769C3.78202 11.9194 5.78202 10.7519 8.00015 10.7519C10.2183 10.7519 12.2183 11.92 13.3508 13.8769C13.4536 14.0422 13.6167 14.1611 13.8056 14.2083C13.9944 14.2556 14.1943 14.2276 14.3629 14.1302C14.5314 14.0328 14.6555 13.8737 14.7089 13.6864C14.7623 13.4992 14.7408 13.2985 14.6489 13.1269ZM4.75015 6.00187C4.75015 5.35909 4.94076 4.73073 5.29787 4.19627C5.65499 3.66181 6.16257 3.24525 6.75643 2.99927C7.35029 2.75328 8.00376 2.68892 8.63419 2.81432C9.26463 2.93972 9.84373 3.24926 10.2982 3.70378C10.7528 4.1583 11.0623 4.73739 11.1877 5.36783C11.3131 5.99827 11.2487 6.65174 11.0028 7.2456C10.7568 7.83946 10.3402 8.34704 9.80575 8.70415C9.27129 9.06127 8.64294 9.25187 8.00015 9.25187C7.1385 9.25088 6.31243 8.90815 5.70315 8.29888C5.09387 7.6896 4.75114 6.86352 4.75015 6.00187Z" fill="#99A7B9"/>
</g>
</svg>
