<svg width="16" height="16" viewBox="0 0 16 16" fill="none" xmlns="http://www.w3.org/2000/svg">
<g id="Scroll">
<path id="Vector" d="M5.75 5.75C5.75 5.55109 5.82902 5.36032 5.96967 5.21967C6.11032 5.07902 6.30109 5 6.5 5H10.25C10.4489 5 10.6397 5.07902 10.7803 5.21967C10.921 5.36032 11 5.55109 11 5.75C11 5.94891 10.921 6.13968 10.7803 6.28033C10.6397 6.42098 10.4489 6.5 10.25 6.5H6.5C6.30109 6.5 6.11032 6.42098 5.96967 6.28033C5.82902 6.13968 5.75 5.94891 5.75 5.75ZM6.5 9H10.25C10.4489 9 10.6397 8.92098 10.7803 8.78033C10.921 8.63968 11 8.44891 11 8.25C11 8.05109 10.921 7.86032 10.7803 7.71967C10.6397 7.57902 10.4489 7.5 10.25 7.5H6.5C6.30109 7.5 6.11032 7.57902 5.96967 7.71967C5.82902 7.86032 5.75 8.05109 5.75 8.25C5.75 8.44891 5.82902 8.63968 5.96967 8.78033C6.11032 8.92098 6.30109 9 6.5 9ZM14.75 12C14.75 12.5967 14.5129 13.169 14.091 13.591C13.669 14.0129 13.0967 14.25 12.5 14.25H5.5C4.90326 14.25 4.33097 14.0129 3.90901 13.591C3.48705 13.169 3.25 12.5967 3.25 12V4C3.25 3.80109 3.17098 3.61032 3.03033 3.46967C2.88968 3.32902 2.69891 3.25 2.5 3.25C2.30109 3.25 2.11032 3.32902 1.96967 3.46967C1.82902 3.61032 1.75 3.80109 1.75 4C1.75 4.23313 1.95937 4.40688 1.96125 4.40875L1.95 4.4C2.03254 4.4576 2.10264 4.53122 2.15613 4.61648C2.20962 4.70173 2.2454 4.79688 2.26134 4.89626C2.27728 4.99564 2.27305 5.09721 2.24892 5.19492C2.22478 5.29263 2.18122 5.38448 2.12084 5.465C2.06046 5.54553 1.98449 5.61307 1.89745 5.66362C1.81042 5.71416 1.7141 5.74667 1.61424 5.75921C1.51437 5.77175 1.41301 5.76406 1.31618 5.7366C1.21935 5.70914 1.12904 5.66247 1.05062 5.59937C0.968125 5.53875 0.25 4.97188 0.25 4C0.25 3.40326 0.487053 2.83097 0.90901 2.40901C1.33097 1.98705 1.90326 1.75 2.5 1.75H11C11.5967 1.75 12.169 1.98705 12.591 2.40901C13.0129 2.83097 13.25 3.40326 13.25 4V10.25H13.5C13.6623 10.25 13.8202 10.3026 13.95 10.4C14.0319 10.4612 14.75 11.0281 14.75 12ZM5.78875 10.7625C5.83857 10.6133 5.93406 10.4835 6.0617 10.3915C6.18934 10.2995 6.34267 10.25 6.5 10.25H11.75V4C11.75 3.80109 11.671 3.61032 11.5303 3.46967C11.3897 3.32902 11.1989 3.25 11 3.25H4.62125C4.70658 3.49084 4.75012 3.74449 4.75 4V12C4.75 12.1989 4.82902 12.3897 4.96967 12.5303C5.11032 12.671 5.30109 12.75 5.5 12.75C5.69891 12.75 5.88968 12.671 6.03033 12.5303C6.17098 12.3897 6.25 12.1989 6.25 12C6.25 11.7763 6.05188 11.6013 6.05 11.6C5.92405 11.5055 5.83104 11.3738 5.78415 11.2234C5.73726 11.0731 5.73887 10.9119 5.78875 10.7625ZM13.25 12C13.2478 11.9111 13.221 11.8246 13.1725 11.75H7.735C7.74593 11.8329 7.75135 11.9164 7.75125 12C7.75142 12.2555 7.70788 12.5092 7.6225 12.75H12.5C12.6989 12.75 12.8897 12.671 13.0303 12.5303C13.171 12.3897 13.25 12.1989 13.25 12Z" fill="#717D8C"/>
</g>
</svg>
