<svg width="16" height="16" viewBox="0 0 16 16" fill="none" xmlns="http://www.w3.org/2000/svg">
<path id="Vector" d="M14.7502 14.7502L11.4929 11.4929M11.4929 11.4929C12.0501 10.9357 12.492 10.2743 12.7936 9.54631C13.0951 8.81834 13.2503 8.03811 13.2503 7.25015C13.2503 6.4622 13.0951 5.68197 12.7936 4.95399C12.492 4.22602 12.0501 3.56457 11.4929 3.0074C10.9357 2.45024 10.2743 2.00827 9.54631 1.70673C8.81834 1.4052 8.03811 1.25 7.25015 1.25C6.4622 1.25 5.68197 1.4052 4.95399 1.70673C4.22602 2.00827 3.56457 2.45024 3.0074 3.0074C1.88216 4.13265 1.25 5.65881 1.25 7.25015C1.25 8.84149 1.88216 10.3677 3.0074 11.4929C4.13265 12.6182 5.65881 13.2503 7.25015 13.2503C8.84149 13.2503 10.3677 12.6182 11.4929 11.4929Z" stroke="#1E3F5F" stroke-width="1.5" stroke-linecap="round" stroke-linejoin="round"/>
</svg>
