<svg width="16" height="16" viewBox="0 0 16 16" fill="none" xmlns="http://www.w3.org/2000/svg">
<g id="ChartDonut">
<path id="Vector" d="M8.60961 1.25479C8.43692 1.23963 8.26297 1.26054 8.0988 1.31622C7.93462 1.37189 7.78383 1.4611 7.65599 1.57819C7.52815 1.69527 7.42606 1.83767 7.35621 1.99633C7.28635 2.15499 7.25027 2.32644 7.25024 2.49979V5.04167C7.24823 5.33682 7.35163 5.623 7.54182 5.84871C7.73202 6.07442 7.99652 6.22485 8.28774 6.27292C8.73337 6.34494 9.13393 6.58637 9.40574 6.94678C9.67754 7.30718 9.79957 7.75868 9.74632 8.20694C9.69307 8.65519 9.46867 9.06554 9.11999 9.35223C8.77131 9.63893 8.32534 9.7798 7.87524 9.74542C7.45065 9.71162 7.05252 9.52574 6.75399 9.22193C6.45546 8.91812 6.27659 8.51679 6.25024 8.09167C6.22711 7.63667 6.31649 7.26354 6.51711 6.98354C6.68845 6.74399 6.76912 6.45136 6.74474 6.15786C6.72036 5.86435 6.59251 5.58904 6.38399 5.38104L4.66336 3.62104L4.65774 3.61542C4.53478 3.49258 4.38755 3.39673 4.22545 3.334C4.06336 3.27127 3.88997 3.24303 3.71634 3.25108C3.54272 3.25914 3.37269 3.30332 3.2171 3.3808C3.06152 3.45827 2.9238 3.56734 2.81274 3.70104C1.7307 4.99781 1.17609 6.65417 1.25911 8.34104C1.34214 10.0279 2.05671 11.6218 3.26086 12.806C4.52087 14.0561 6.22536 14.7551 8.00024 14.7498H8.09712C9.85246 14.7197 11.5275 14.009 12.7688 12.7674C14.0101 11.5259 14.7205 9.85077 14.7502 8.09542C14.7984 4.57229 12.1015 1.56729 8.60961 1.25479ZM3.79336 4.87479L5.18024 6.29104C5.00503 6.58734 4.88239 6.9117 4.81774 7.24979H2.80461C2.92774 6.38717 3.26796 5.56995 3.79336 4.87479ZM2.80399 8.74979H4.83711C4.97616 9.33609 5.27547 9.87219 5.7016 10.2982C6.12773 10.7242 6.66391 11.0234 7.25024 11.1623V13.1967C6.1284 13.0347 5.0891 12.5141 4.28768 11.7126C3.48625 10.911 2.96576 9.87165 2.80399 8.74979ZM8.75024 13.1942V11.1635C9.29968 11.0337 9.80532 10.7617 10.2165 10.3748C10.6463 9.97369 10.9593 9.46352 11.1221 8.89861C11.2849 8.3337 11.2914 7.73521 11.1409 7.16689C10.9904 6.59857 10.6886 6.08171 10.2676 5.67136C9.84664 5.26101 9.32222 4.97254 8.75024 4.83667V2.78104C11.3309 3.15167 13.2865 5.42479 13.2502 8.07479C13.214 10.6598 11.2502 12.8279 8.75024 13.1942Z" fill="#717D8C"/>
</g>
</svg>
