<svg width="30" height="20" viewBox="0 0 30 20" fill="none" xmlns="http://www.w3.org/2000/svg">
<g id="Frame">
<g id="Group">
<path id="Vector" d="M27.5 0H2.5C1.11929 0 0 1.11929 0 2.5V17.5C0 18.8807 1.11929 20 2.5 20H27.5C28.8807 20 30 18.8807 30 17.5V2.5C30 1.11929 28.8807 0 27.5 0Z" fill="#016FD0"/>
<path id="Vector_2" fill-rule="evenodd" clip-rule="evenodd" d="M17.2051 16.7423V9.61554L29.8895 9.62692V11.5955L28.4234 13.1623L29.8895 14.7434V16.7538H27.5487L26.3047 15.3811L25.0696 16.759L17.2051 16.7423Z" fill="#FFFFFE"/>
<path id="Vector_3" fill-rule="evenodd" clip-rule="evenodd" d="M18.0508 15.9609V10.3998H22.7661V11.6809H19.5775V12.5506H22.6901V13.8103H19.5775V14.6645H22.7661V15.9609H18.0508Z" fill="#016FD0"/>
<path id="Vector_4" fill-rule="evenodd" clip-rule="evenodd" d="M22.7443 15.961L25.3534 13.1773L22.7441 10.4H24.7637L26.3581 12.1626L27.957 10.4H29.8897V10.4438L27.3361 13.1773L29.8897 15.8821V15.961H27.9375L26.3149 14.1808L24.7089 15.961H22.7443Z" fill="#016FD0"/>
<path id="Vector_5" fill-rule="evenodd" clip-rule="evenodd" d="M17.7966 3.28992H20.8541L21.9281 5.72848V3.28992H25.7029L26.3538 5.11688L27.007 3.28992H29.8894V10.4167H14.6562L17.7966 3.28992Z" fill="#FFFFFE"/>
<g id="Group_2">
<path id="Vector_6" fill-rule="evenodd" clip-rule="evenodd" d="M18.3757 4.06445L15.9082 9.62092H17.6006L18.0661 8.50821H20.5885L21.0537 9.62092H22.7882L20.331 4.06445H18.3757ZM18.5878 7.26125L19.3278 5.49241L20.0672 7.26125H18.5878Z" fill="#016FD0"/>
<path id="Vector_7" fill-rule="evenodd" clip-rule="evenodd" d="M22.7656 9.61971V4.06335L25.1445 4.07153L26.3686 7.48744L27.6007 4.06335H29.8902V9.61971L28.4169 9.63275V5.81606L27.0262 9.61971H25.6814L24.2619 5.80302V9.61971H22.7656Z" fill="#016FD0"/>
</g>
</g>
</g>
</svg>
