<svg width="20" height="20" viewBox="0 0 20 20" fill="none" xmlns="http://www.w3.org/2000/svg">
<g id="UserList">
<path id="Vector" d="M11.2499 6.2502C11.2499 6.08444 11.3157 5.92547 11.4329 5.80826C11.5501 5.69105 11.7091 5.6252 11.8749 5.6252H19.3749C19.5406 5.6252 19.6996 5.69105 19.8168 5.80826C19.934 5.92547 19.9999 6.08444 19.9999 6.2502C19.9999 6.41596 19.934 6.57493 19.8168 6.69214C19.6996 6.80935 19.5406 6.8752 19.3749 6.8752H11.8749C11.7091 6.8752 11.5501 6.80935 11.4329 6.69214C11.3157 6.57493 11.2499 6.41596 11.2499 6.2502ZM19.3749 9.3752H11.8749C11.7091 9.3752 11.5501 9.44105 11.4329 9.55826C11.3157 9.67547 11.2499 9.83444 11.2499 10.0002C11.2499 10.166 11.3157 10.3249 11.4329 10.4421C11.5501 10.5594 11.7091 10.6252 11.8749 10.6252H19.3749C19.5406 10.6252 19.6996 10.5594 19.8168 10.4421C19.934 10.3249 19.9999 10.166 19.9999 10.0002C19.9999 9.83444 19.934 9.67547 19.8168 9.55826C19.6996 9.44105 19.5406 9.3752 19.3749 9.3752ZM19.3749 13.1252H13.7499C13.5841 13.1252 13.4251 13.191 13.3079 13.3083C13.1907 13.4255 13.1249 13.5844 13.1249 13.7502C13.1249 13.916 13.1907 14.0749 13.3079 14.1921C13.4251 14.3094 13.5841 14.3752 13.7499 14.3752H19.3749C19.5406 14.3752 19.6996 14.3094 19.8168 14.1921C19.934 14.0749 19.9999 13.916 19.9999 13.7502C19.9999 13.5844 19.934 13.4255 19.8168 13.3083C19.6996 13.191 19.5406 13.1252 19.3749 13.1252ZM11.8553 14.844C11.8758 14.9235 11.8803 15.0062 11.8688 15.0875C11.8572 15.1688 11.8298 15.247 11.788 15.3176C11.7462 15.3883 11.6909 15.45 11.6252 15.4993C11.5596 15.5486 11.4849 15.5845 11.4053 15.6049C11.3544 15.6186 11.3018 15.6254 11.2491 15.6252C11.1105 15.6253 10.9758 15.5793 10.8662 15.4944C10.7566 15.4095 10.6783 15.2907 10.6436 15.1565C10.1624 13.2861 8.2733 11.8752 6.24909 11.8752C4.22487 11.8752 2.3358 13.2854 1.85455 15.1565C1.81311 15.317 1.70958 15.4546 1.56673 15.5388C1.42388 15.6231 1.25342 15.6471 1.09284 15.6057C0.932256 15.5642 0.794715 15.4607 0.71047 15.3178C0.626225 15.175 0.602177 15.0045 0.643617 14.844C1.08034 13.1479 2.34987 11.7744 3.9608 11.094C3.34052 10.6162 2.88533 9.95625 2.65907 9.2067C2.43282 8.45715 2.44685 7.65558 2.6992 6.91441C2.95155 6.17324 3.42956 5.52964 4.06619 5.07388C4.70282 4.61811 5.46613 4.37305 6.24909 4.37305C7.03204 4.37305 7.79536 4.61811 8.43199 5.07388C9.06862 5.52964 9.54662 6.17324 9.79897 6.91441C10.0513 7.65558 10.0654 8.45715 9.8391 9.2067C9.61285 9.95625 9.15766 10.6162 8.53737 11.094C10.1491 11.7744 11.4186 13.1479 11.8553 14.844ZM6.24987 10.6252C6.74432 10.6252 7.22767 10.4786 7.63879 10.2039C8.04992 9.92917 8.37035 9.53872 8.55957 9.08191C8.74879 8.62509 8.79829 8.12243 8.70183 7.63748C8.60537 7.15252 8.36727 6.70706 8.01763 6.35743C7.668 6.0078 7.22255 5.7697 6.73759 5.67324C6.25264 5.57677 5.74997 5.62628 5.29316 5.8155C4.83634 6.00472 4.4459 6.32515 4.17119 6.73628C3.89649 7.1474 3.74987 7.63075 3.74987 8.1252C3.74987 8.78824 4.01326 9.42413 4.4821 9.89297C4.95094 10.3618 5.58683 10.6252 6.24987 10.6252Z" fill="#38B6FF"/>
</g>
</svg>
