<svg width="16" height="16" viewBox="0 0 16 16" fill="none" xmlns="http://www.w3.org/2000/svg">
<g id="Coin">
<path id="Vector" d="M13.0856 3.76688C11.755 3.10125 10 2.75 8 2.75C6 2.75 4.245 3.10125 2.91438 3.76688C1.53875 4.45438 0.75 5.45062 0.75 6.5V9.5C0.75 10.5494 1.53875 11.5456 2.91438 12.2331C4.245 12.8987 6.00313 13.25 8 13.25C9.99687 13.25 11.755 12.8987 13.0856 12.2331C14.4606 11.5456 15.25 10.5494 15.25 9.5V6.5C15.25 5.45062 14.4612 4.45438 13.0856 3.76688ZM3.58562 5.10813C4.6925 4.555 6.26 4.25 8 4.25C9.74 4.25 11.3075 4.555 12.4144 5.10813C13.2381 5.52 13.75 6.05375 13.75 6.5C13.75 6.94625 13.2381 7.48 12.4144 7.89187C11.3075 8.445 9.74 8.75 8 8.75C6.26 8.75 4.6925 8.445 3.58562 7.89187C2.76187 7.48 2.25 6.94625 2.25 6.5C2.25 6.05375 2.76187 5.52 3.58562 5.10813ZM11.25 11.3363C10.4341 11.5609 9.59547 11.693 8.75 11.73V10.23C9.59245 10.1956 10.4296 10.0803 11.25 9.88562V11.3363ZM4.75 9.88875C5.57037 10.0834 6.40755 10.1987 7.25 10.2331V11.7331C6.40453 11.6961 5.56591 11.564 4.75 11.3394V9.88875ZM2.25 9.5V8.84625C2.46283 8.98949 2.68475 9.11873 2.91438 9.23312C3.02313 9.2875 3.13562 9.33937 3.25 9.38937V10.7063C2.625 10.3275 2.25 9.88188 2.25 9.5ZM12.75 10.7063V9.38937C12.8644 9.33937 12.9769 9.2875 13.0856 9.23312C13.3152 9.11873 13.5372 8.98949 13.75 8.84625V9.5C13.75 9.88188 13.375 10.3275 12.75 10.7063Z" fill="#717D8C"/>
</g>
</svg>
