<svg width="30" height="20" viewBox="0 0 30 20" fill="none" xmlns="http://www.w3.org/2000/svg">
<g id="icon/creditCard/Visa" clip-path="url(#clip0_3852_201243)">
<g id="319">
<g id="New-Icons">
<g id="Card-Brands">
<g id="Color">
<g id="Visa">
<path id="Container" d="M27.1875 0.3125H2.8125C1.43179 0.3125 0.3125 1.43179 0.3125 2.8125V17.1875C0.3125 18.5682 1.43179 19.6875 2.8125 19.6875H27.1875C28.5682 19.6875 29.6875 18.5682 29.6875 17.1875V2.8125C29.6875 1.43179 28.5682 0.3125 27.1875 0.3125Z" fill="white" stroke="black" stroke-opacity="0.2" stroke-width="0.5"/>
<g id="Group 975">
<path id="Vector" d="M11.25 16.25C14.7018 16.25 17.5 13.4518 17.5 10C17.5 6.54822 14.7018 3.75 11.25 3.75C7.79822 3.75 5 6.54822 5 10C5 13.4518 7.79822 16.25 11.25 16.25Z" fill="#D32011"/>
<path id="Vector_2" d="M18.75 16.25C22.2018 16.25 25 13.4518 25 10C25 6.54822 22.2018 3.75 18.75 3.75C15.2982 3.75 12.5 6.54822 12.5 10C12.5 13.4518 15.2982 16.25 18.75 16.25Z" fill="#0099DF"/>
<path id="Vector_3" fill-rule="evenodd" clip-rule="evenodd" d="M15 4.99939C16.5181 6.13965 17.5 7.95508 17.5 9.99985C17.5 12.0446 16.5181 13.86 15 15.0003C13.4819 13.86 12.5 12.0446 12.5 9.99985C12.5 7.95508 13.4819 6.13965 15 4.99939Z" fill="#6C6BBD"/>
</g>
</g>
</g>
</g>
</g>
</g>
</g>
<defs>
<clipPath id="clip0_3852_201243">
<rect width="30" height="20" fill="white"/>
</clipPath>
</defs>
</svg>
