<svg width="16" height="16" viewBox="0 0 16 16" fill="none" xmlns="http://www.w3.org/2000/svg">
<g id="Wallet">
<path id="Vector" d="M12.2508 8.75C12.2508 8.94778 12.1922 9.14112 12.0823 9.30557C11.9724 9.47002 11.8162 9.59819 11.6335 9.67388C11.4508 9.74957 11.2497 9.76937 11.0557 9.73079C10.8618 9.6922 10.6836 9.59696 10.5437 9.45711C10.4039 9.31725 10.3086 9.13907 10.27 8.94509C10.2315 8.75111 10.2513 8.55004 10.3269 8.36732C10.4026 8.18459 10.5308 8.02841 10.6953 7.91853C10.8597 7.80865 11.053 7.75 11.2508 7.75C11.516 7.75 11.7704 7.85536 11.9579 8.04289C12.1455 8.23043 12.2508 8.48478 12.2508 8.75ZM14.7508 6.75V11.75C14.7508 12.2804 14.5401 12.7891 14.165 13.1642C13.79 13.5393 13.2813 13.75 12.7508 13.75H3.75083C3.22039 13.75 2.71169 13.5393 2.33661 13.1642C1.96154 12.7891 1.75083 12.2804 1.75083 11.75V4.3075C1.74313 4.04006 1.78918 3.77379 1.88624 3.52446C1.9833 3.27514 2.1294 3.04782 2.31589 2.85597C2.50238 2.66412 2.72547 2.51164 2.97194 2.40755C3.21842 2.30346 3.48327 2.24989 3.75083 2.25H12.0008C12.1997 2.25 12.3905 2.32902 12.5312 2.46967C12.6718 2.61032 12.7508 2.80109 12.7508 3C12.7508 3.19891 12.6718 3.38968 12.5312 3.53033C12.3905 3.67098 12.1997 3.75 12.0008 3.75H3.75083C3.68378 3.74996 3.6174 3.76342 3.55566 3.78955C3.49391 3.81569 3.43805 3.85398 3.3914 3.90214C3.34475 3.95031 3.30827 4.00736 3.28412 4.06991C3.25997 4.13247 3.24865 4.19923 3.25083 4.26625V4.27125C3.26133 4.40364 3.32208 4.52699 3.42063 4.61601C3.51918 4.70503 3.64806 4.75297 3.78083 4.75H12.7508C13.2813 4.75 13.79 4.96071 14.165 5.33579C14.5401 5.71086 14.7508 6.21957 14.7508 6.75ZM13.2508 6.75C13.2508 6.61739 13.1981 6.49021 13.1044 6.39645C13.0106 6.30268 12.8834 6.25 12.7508 6.25H3.78083C3.60201 6.25008 3.42391 6.22739 3.25083 6.1825V11.75C3.25083 11.8826 3.30351 12.0098 3.39727 12.1036C3.49104 12.1973 3.61822 12.25 3.75083 12.25H12.7508C12.8834 12.25 13.0106 12.1973 13.1044 12.1036C13.1981 12.0098 13.2508 11.8826 13.2508 11.75V6.75Z" fill="#717D8C"/>
</g>
</svg>
