<svg width="16" height="16" viewBox="0 0 16 16" fill="none" xmlns="http://www.w3.org/2000/svg">
<g id="ClockCounterClockwise">
<path id="Vector" d="M8.5 4.99999V7.71686L10.7575 9.07124C10.8712 9.13953 10.9531 9.2502 10.9853 9.3789C11.0174 9.50759 10.997 9.64378 10.9288 9.75749C10.8605 9.8712 10.7498 9.95312 10.6211 9.98524C10.4924 10.0174 10.3562 9.99703 10.2425 9.92874L7.7425 8.42874C7.66851 8.38428 7.60728 8.32143 7.56479 8.2463C7.52229 8.17116 7.49997 8.08631 7.5 7.99999V4.99999C7.5 4.86738 7.55268 4.7402 7.64645 4.64643C7.74021 4.55267 7.86739 4.49999 8 4.49999C8.13261 4.49999 8.25979 4.55267 8.35355 4.64643C8.44732 4.7402 8.5 4.86738 8.5 4.99999ZM8 1.99999C7.21125 1.99802 6.42994 2.15251 5.70128 2.4545C4.97263 2.7565 4.31111 3.20001 3.755 3.75936C3.30063 4.21936 2.89687 4.66186 2.5 5.12499V3.99999C2.5 3.86738 2.44732 3.7402 2.35355 3.64643C2.25979 3.55267 2.13261 3.49999 2 3.49999C1.86739 3.49999 1.74021 3.55267 1.64645 3.64643C1.55268 3.7402 1.5 3.86738 1.5 3.99999V6.49999C1.5 6.6326 1.55268 6.75977 1.64645 6.85354C1.74021 6.94731 1.86739 6.99999 2 6.99999H4.5C4.63261 6.99999 4.75979 6.94731 4.85355 6.85354C4.94732 6.75977 5 6.6326 5 6.49999C5 6.36738 4.94732 6.2402 4.85355 6.14643C4.75979 6.05267 4.63261 5.99999 4.5 5.99999H3.0625C3.50938 5.47374 3.95437 4.97811 4.46187 4.46436C5.15678 3.76946 6.04107 3.29474 7.00423 3.09954C7.96739 2.90433 8.96673 2.99729 9.87736 3.36679C10.788 3.7363 11.5696 4.36597 12.1244 5.17712C12.6792 5.98827 12.9827 6.94494 12.9969 7.92758C13.0111 8.91023 12.7354 9.87527 12.2043 10.7021C11.6732 11.529 10.9102 12.181 10.0106 12.5767C9.11103 12.9724 8.1148 13.0942 7.1464 12.927C6.17799 12.7597 5.28034 12.3108 4.56563 11.6362C4.51786 11.5911 4.46166 11.5558 4.40026 11.5324C4.33885 11.509 4.27343 11.4979 4.20773 11.4997C4.14204 11.5016 4.07735 11.5163 4.01736 11.5432C3.95738 11.5701 3.90327 11.6085 3.85812 11.6562C3.81298 11.704 3.77769 11.7602 3.75427 11.8216C3.73084 11.883 3.71974 11.9484 3.7216 12.0141C3.72345 12.0798 3.73823 12.1445 3.76509 12.2045C3.79195 12.2645 3.83036 12.3186 3.87812 12.3637C4.59028 13.0358 5.45609 13.5233 6.4 13.7838C7.34391 14.0443 8.33722 14.0698 9.29326 13.8581C10.2493 13.6464 11.139 13.2039 11.8847 12.5693C12.6304 11.9347 13.2095 11.1272 13.5713 10.2174C13.9332 9.3075 14.0669 8.3229 13.9607 7.34948C13.8546 6.37606 13.5118 5.44342 12.9623 4.63295C12.4128 3.82247 11.6733 3.1588 10.8083 2.69985C9.94334 2.2409 8.97919 2.00063 8 1.99999Z" fill="#717D8C"/>
</g>
</svg>
